<?xml version="1.0" standalone="no"?>
<!DOCTYPE svg PUBLIC "-//W3C//DTD SVG 20010904//EN"
 "http://www.w3.org/TR/2001/REC-SVG-20010904/DTD/svg10.dtd">
<svg version="1.0" xmlns="http://www.w3.org/2000/svg"
 width="1148.000000pt" height="1148.000000pt" viewBox="0 0 1148.000000 1148.000000"
 preserveAspectRatio="xMidYMid meet">
<metadata>
Created by potrace 1.11, written by Peter Selinger 2001-2013
</metadata>
<g transform="translate(0.000000,1148.000000) scale(0.100000,-0.100000)"
fill="#000000" stroke="none">
<path d="M5650 11455 c-5 -13 -16 -63 -24 -111 -9 -48 -17 -89 -19 -91 -2 -2
-37 10 -78 26 -41 16 -109 37 -151 45 -313 64 -619 -86 -768 -378 -28 -54 -39
-66 -55 -63 -11 3 -58 15 -104 28 l-84 23 -102 104 c-108 110 -137 124 -143
69 -3 -23 15 -100 34 -152 5 -12 -1 -15 -28 -15 -53 0 -146 -27 -224 -65 -128
-63 -259 -232 -280 -363 -4 -23 -11 -45 -15 -48 -5 -3 -41 -14 -80 -25 -127
-35 -243 -106 -294 -179 l-28 -40 -31 21 c-55 37 -156 81 -171 75 -36 -13 -8
-92 65 -185 44 -55 43 -70 -4 -71 -34 0 -200 -61 -263 -96 -180 -101 -277
-274 -244 -436 28 -132 113 -245 227 -303 54 -28 67 -30 164 -30 97 0 110 2
171 31 65 31 66 31 130 18 90 -19 260 -18 350 2 41 9 112 34 158 56 l83 40
162 -159 c153 -151 231 -213 354 -278 28 -16 51 -30 49 -31 -2 -2 -37 3 -78
12 -60 13 -99 14 -204 8 -223 -15 -444 -10 -608 14 -166 25 -285 27 -532 11
-200 -12 -318 -29 -473 -68 -118 -29 -139 -40 -129 -65 14 -37 117 -66 390
-111 54 -9 104 -18 110 -20 7 -2 55 -19 107 -38 211 -77 440 -117 673 -117
181 0 211 -5 414 -71 83 -27 212 -61 287 -76 l136 -27 2 -58 c4 -132 8 -121
-41 -139 -44 -16 -45 -16 -107 12 -35 16 -107 41 -161 56 -90 24 -114 26 -288
27 -209 1 -280 -9 -446 -65 l-90 -30 -77 29 c-139 53 -207 67 -337 66 -400 -1
-624 -248 -510 -564 84 -235 344 -348 573 -250 28 12 58 30 67 40 15 17 19 16
82 -16 136 -68 286 -68 444 0 l79 34 73 -23 c232 -74 630 -74 848 0 l66 22 44
-23 c117 -61 276 -68 417 -19 l81 28 48 -20 c145 -62 341 -57 457 11 l45 26
34 -20 c18 -11 69 -30 113 -42 73 -21 100 -22 349 -22 246 0 277 2 349 22 44
12 98 33 120 46 l41 24 55 -23 c133 -57 318 -71 432 -31 45 16 49 16 125 -10
135 -46 334 -35 452 26 l39 20 59 -21 c128 -44 360 -61 543 -39 95 12 229 44
269 64 34 18 99 84 117 119 62 119 16 297 -110 423 -75 74 -127 105 -251 150
-263 94 -574 83 -837 -30 -76 -33 -77 -33 -106 -16 -111 68 -312 105 -526 98
-83 -3 -159 -9 -168 -13 -16 -6 -18 0 -18 67 l0 74 93 36 c117 46 173 54 472
68 366 17 607 51 748 104 34 14 104 41 156 61 52 20 229 72 392 115 164 44
313 85 331 93 74 32 85 82 25 111 -36 16 -203 47 -361 67 -128 15 -550 6 -741
-16 -113 -14 -195 -16 -420 -11 -154 3 -329 9 -390 12 -83 4 -127 2 -178 -10
-38 -9 -73 -16 -78 -16 -16 0 211 253 271 301 31 25 91 63 132 84 l75 38 89
-29 c79 -26 102 -29 209 -28 110 0 128 3 220 35 l100 35 68 -29 c150 -62 325
-84 447 -56 283 65 434 371 308 626 -56 114 -187 206 -333 233 -57 11 -68 16
-76 39 -6 14 -19 42 -29 63 l-19 36 45 58 c48 61 56 101 19 96 -11 -1 -46 -14
-77 -29 l-57 -26 -32 27 c-78 66 -210 112 -347 122 -64 5 -215 -10 -292 -28
-7 -2 -24 26 -40 65 -79 191 -202 271 -420 272 l-106 0 30 77 c52 137 18 143
-119 21 l-98 -87 -16 24 c-47 72 -147 183 -218 240 -230 186 -494 232 -776
136 -65 -23 -100 -30 -102 -22 -2 6 -8 45 -14 86 -19 120 -30 150 -58 150 -16
0 -27 -8 -33 -25z m-210 -301 c41 -13 102 -40 135 -59 33 -19 75 -43 93 -52
l33 -17 87 46 c151 80 281 107 422 88 239 -33 434 -177 578 -427 48 -83 58
-87 173 -56 67 18 123 25 195 26 97 2 104 1 170 -33 97 -50 131 -98 176 -250
20 -67 36 -71 171 -44 139 29 239 30 343 4 163 -42 274 -146 299 -283 10 -50
29 -63 115 -76 145 -23 254 -98 294 -203 25 -65 19 -177 -12 -238 -29 -56 -86
-116 -132 -140 -126 -65 -307 -53 -493 32 -77 35 -68 36 -217 -18 -98 -36
-218 -43 -310 -19 -184 47 -366 218 -420 394 -11 36 -25 70 -31 77 -8 10 -51
13 -162 12 -217 -1 -323 31 -428 129 -59 55 -90 107 -119 196 -23 70 -41 97
-66 97 -7 0 -53 -22 -100 -49 -127 -73 -189 -92 -319 -98 -163 -8 -276 26
-425 129 -106 72 -104 72 -210 -24 -183 -168 -388 -237 -574 -193 -41 10 -85
15 -98 11 -12 -4 -39 -28 -59 -55 -99 -131 -298 -189 -497 -146 -114 25 -115
23 -122 -138 -5 -103 -10 -131 -32 -178 -51 -111 -135 -181 -273 -226 -104
-34 -283 -38 -383 -9 l-62 19 -75 -39 c-64 -32 -86 -38 -138 -38 -189 0 -323
209 -243 379 53 113 198 192 411 225 44 7 88 19 97 28 10 8 25 40 34 71 47
163 126 231 324 281 115 28 139 39 145 64 2 11 9 47 15 78 48 246 267 391 542
357 96 -11 93 -11 220 -51 130 -41 140 -38 185 60 64 142 143 234 258 304 145
87 314 106 485 52z m-10 -968 c0 -6 -9 -66 -20 -134 -27 -163 -42 -386 -34
-494 4 -49 4 -88 1 -88 -4 0 -28 33 -55 73 -68 99 -160 216 -266 337 -49 55
-87 102 -85 104 2 1 33 13 69 25 105 37 267 137 324 200 17 19 20 19 42 4 13
-8 24 -20 24 -27z m864 -64 l18 -39 -57 -58 c-136 -139 -237 -289 -290 -432
l-32 -84 -7 108 c-4 59 -19 169 -33 243 -14 74 -28 150 -31 168 l-4 32 59 0
c74 0 189 29 274 68 35 17 69 31 75 31 6 1 19 -16 28 -37z m-578 -65 c34 -20
84 -315 84 -489 l0 -114 -130 0 c-131 1 -131 1 -138 26 -15 52 -7 372 12 480
10 58 22 115 27 127 l8 21 63 -22 c35 -12 68 -25 74 -29z m694 -112 c14 -14
44 -38 67 -53 24 -15 43 -30 43 -34 0 -3 -18 -43 -39 -87 -21 -44 -46 -116
-56 -158 -32 -151 -63 -227 -115 -287 l-31 -34 -117 55 c-64 31 -119 57 -121
59 -2 2 7 36 19 76 25 86 90 211 150 294 53 71 159 194 169 194 4 0 18 -11 31
-25z m-1522 -44 c87 -96 232 -283 303 -388 l78 -118 -82 -40 c-45 -22 -99 -51
-121 -64 l-39 -24 -18 24 c-40 51 -94 169 -166 357 -41 108 -87 218 -104 245
-16 26 -29 50 -29 52 0 3 33 2 73 -1 66 -7 75 -10 105 -43z m-298 -23 c38 -61
92 -182 146 -325 55 -146 101 -246 137 -297 23 -33 15 -29 -52 22 -61 46 -146
88 -341 166 -155 63 -298 133 -390 191 -39 24 -40 27 -40 78 l0 54 103 0 c65
0 126 6 167 17 72 20 189 77 216 107 23 26 31 24 54 -13z m2286 -105 l130 -5
27 -61 c15 -33 26 -61 24 -62 -14 -11 -417 -250 -462 -275 -33 -18 -80 -47
-105 -65 -71 -49 -75 -51 -52 -17 35 48 60 111 91 229 29 110 56 184 91 253
l20 38 52 -15 c29 -8 112 -17 184 -20z m328 -272 l59 -59 -63 -39 c-105 -64
-154 -107 -278 -245 -131 -145 -221 -226 -254 -228 -4 0 -23 24 -42 53 -19 28
-61 78 -93 111 l-57 59 29 24 c17 13 127 82 245 153 118 71 249 152 290 179
41 28 82 51 90 51 9 0 42 -27 74 -59z m-3120 10 c89 -56 203 -111 362 -176
159 -65 313 -143 363 -184 l34 -28 -54 -64 c-30 -35 -69 -87 -87 -116 l-34
-52 -80 29 c-173 63 -349 182 -525 355 l-122 120 37 77 c20 43 39 78 41 78 2
0 32 -17 65 -39z m1861 -195 c363 -94 645 -368 749 -729 31 -106 50 -290 39
-381 l-8 -69 -94 -38 -94 -38 -51 26 c-257 130 -630 135 -897 12 l-69 -32 -57
31 c-131 69 -302 98 -522 89 -75 -3 -176 -13 -225 -21 -49 -9 -92 -14 -95 -10
-3 3 -6 72 -5 152 0 127 4 161 27 247 107 396 414 687 819 775 133 29 342 23
483 -14z m2799 -463 c17 -9 12 -12 -40 -22 -134 -27 -279 -67 -444 -122 -294
-100 -507 -133 -936 -148 l-252 -9 -105 -36 c-128 -44 -137 -44 -137 -8 0 29
-30 148 -49 195 -19 49 -15 54 87 86 161 51 206 55 537 48 277 -6 362 -3 765
23 181 11 551 7 574 -7z m-5284 -55 c42 -8 209 -12 470 -13 369 -1 410 -2 464
-20 78 -25 151 -74 150 -100 -2 -30 -35 -209 -40 -214 -10 -10 -200 35 -336
80 -231 76 -294 89 -436 89 -219 0 -463 38 -670 105 -59 18 -136 39 -172 45
-132 22 -128 24 50 36 194 14 421 10 520 -8z m-397 -709 c160 -24 278 -117
389 -304 135 -227 129 -217 111 -231 -35 -27 -124 -47 -189 -41 -93 7 -149 43
-283 180 -157 160 -222 196 -265 148 -29 -32 -17 -63 34 -87 31 -15 65 -46
107 -96 58 -71 61 -76 47 -96 -45 -64 -191 -74 -299 -20 -142 71 -201 239
-133 379 44 89 150 149 298 168 94 12 104 12 183 0z m2162 -33 c164 -46 250
-121 340 -297 32 -63 69 -131 82 -152 13 -21 21 -46 18 -56 -15 -49 -169 -76
-270 -46 -81 23 -98 37 -224 184 -117 137 -151 168 -199 177 -22 5 -35 1 -51
-15 -12 -12 -21 -26 -21 -32 0 -6 30 -38 67 -72 64 -60 153 -169 153 -189 0
-20 -85 -48 -150 -48 -115 0 -170 41 -265 195 -27 44 -78 127 -113 184 -50 80
-62 105 -51 112 19 11 157 48 243 64 98 19 361 13 441 -9z m2097 -5 c134 -34
218 -89 292 -190 42 -57 156 -283 156 -310 0 -53 -203 -77 -318 -37 -47 16
-63 30 -156 139 -122 143 -151 172 -188 186 -49 19 -97 -15 -83 -58 3 -9 32
-40 65 -70 60 -52 130 -144 130 -169 0 -20 -64 -42 -123 -42 -105 0 -183 46
-250 147 -43 65 -187 324 -187 336 0 16 247 79 355 91 75 8 231 -4 307 -23z"/>
<path d="M5116 11036 c-84 -31 -164 -83 -229 -149 -70 -72 -78 -104 -39 -149
24 -29 47 -21 102 33 69 68 159 124 221 139 29 7 83 10 126 8 62 -4 88 -12
155 -46 78 -40 80 -40 99 -21 11 11 19 33 19 53 0 42 -36 76 -130 120 -56 26
-79 31 -160 34 -81 2 -105 -1 -164 -22z"/>
<path d="M5976 10994 c-77 -19 -189 -78 -226 -121 -20 -22 -30 -44 -30 -66 0
-34 23 -77 42 -77 6 0 33 21 60 46 105 98 281 138 433 99 125 -33 234 -115
320 -240 21 -30 41 -55 45 -55 4 0 19 9 34 21 37 29 33 65 -12 135 -80 123
-219 224 -357 259 -74 19 -229 18 -309 -1z"/>
<path d="M4206 10679 c-177 -20 -347 -178 -372 -345 -8 -53 13 -84 57 -84 23
0 29 6 40 38 72 224 245 329 442 268 57 -17 75 -13 88 21 24 62 2 89 -78 98
-32 3 -69 8 -83 9 -14 2 -56 0 -94 -5z"/>
<path d="M6991 10584 c-71 -19 -71 -19 -71 -69 0 -54 14 -60 90 -40 65 17 147
19 187 4 40 -15 81 -57 109 -111 26 -51 50 -61 78 -32 22 22 20 61 -8 120 -44
95 -136 145 -265 143 -36 0 -90 -7 -120 -15z"/>
<path d="M7730 10266 c-92 -20 -140 -53 -140 -96 0 -48 21 -55 99 -37 181 44
298 4 405 -140 26 -35 53 -63 61 -63 23 0 55 37 55 63 -1 69 -102 195 -192
239 -55 27 -148 49 -202 47 -17 0 -56 -6 -86 -13z"/>
<path d="M3559 10187 c-81 -28 -132 -65 -170 -125 -49 -78 -50 -139 -3 -160
39 -18 43 -16 68 41 39 87 87 126 182 147 63 14 74 25 74 70 0 58 -40 65 -151
27z"/>
<path d="M8308 9893 c-20 -22 -23 -46 -8 -74 8 -15 21 -19 60 -19 68 0 127
-25 146 -62 9 -16 18 -57 22 -91 l7 -62 36 -3 c48 -4 60 14 61 91 1 136 -89
225 -237 235 -60 4 -72 2 -87 -15z"/>
<path d="M3030 9816 c-143 -40 -233 -130 -247 -245 -5 -41 -2 -52 16 -70 31
-31 64 -24 72 16 10 50 57 121 101 154 53 38 126 59 204 59 49 0 65 4 73 17
10 19 -3 63 -22 75 -19 12 -147 8 -197 -6z"/>
<path d="M5188 8814 c-63 -22 -182 -113 -186 -141 -4 -29 16 -30 68 -3 39 20
84 25 114 14 10 -4 16 -18 16 -41 0 -26 8 -43 34 -69 30 -30 40 -34 84 -34 41
0 55 5 81 29 17 16 34 44 38 61 l6 32 57 -6 c54 -6 58 -5 64 16 12 48 7 107
-11 116 -66 35 -294 51 -365 26z"/>
<path d="M5846 8796 c-26 -8 -52 -20 -57 -27 -10 -16 -10 -63 0 -99 7 -24 10
-25 67 -22 l59 4 13 -34 c20 -57 56 -83 114 -83 44 0 53 4 84 37 19 21 34 46
34 57 0 60 44 67 127 21 29 -16 55 -30 58 -30 3 0 5 11 5 25 0 54 -108 130
-218 154 -70 15 -225 13 -286 -3z"/>
<path d="M5777 8397 c-14 -21 -21 -22 -151 -22 -135 0 -136 0 -136 -23 0 -41
28 -90 60 -107 42 -22 158 -22 204 0 39 19 56 55 56 121 0 51 -12 62 -33 31z"/>
<path d="M2400 5138 c0 -1792 3 -1983 36 -2268 86 -761 347 -1341 800 -1780
464 -449 1091 -743 2174 -1019 l265 -68 135 34 c666 166 1104 313 1485 498
971 473 1465 1172 1609 2281 40 303 41 371 41 2274 l0 1845 -3272 3 -3273 2 0
-1802z m2710 482 l0 -1160 -1275 0 -1275 0 0 1160 0 1160 1275 0 1275 0 0
-1160z m3678 3 l-3 -1158 -1275 0 -1275 0 -3 1158 -2 1157 1280 0 1280 0 -2
-1157z m-3668 -3746 c0 -849 -3 -1546 -6 -1549 -7 -7 -116 25 -334 99 -517
175 -897 360 -1195 582 -129 96 -348 316 -452 456 -46 60 -83 113 -83 117 0 5
144 8 320 8 l320 0 0 -45 0 -45 155 0 155 0 0 45 0 45 365 0 365 0 0 620 0
620 -80 0 -80 0 0 108 0 107 -97 1 c-56 1 -164 13 -253 29 -174 30 -250 29
-327 -5 l-47 -21 -48 21 c-80 34 -154 36 -323 5 -93 -17 -189 -28 -252 -29
l-103 -1 0 -107 0 -108 -80 0 -80 0 -2 -552 -3 -553 -57 115 c-196 395 -295
832 -334 1468 l-7 112 1282 0 1281 0 0 -1543z m3666 1401 c-17 -361 -67 -700
-143 -983 -45 -168 -91 -291 -167 -445 l-61 -125 -3 553 -2 552 -80 0 -80 0 0
110 0 110 -88 0 c-48 0 -156 11 -240 25 -195 32 -269 32 -346 0 l-59 -24 -41
21 c-65 34 -173 35 -346 4 -91 -16 -181 -26 -242 -26 l-98 0 0 -110 0 -110
-75 0 -75 0 0 -615 0 -615 363 -2 362 -3 3 -47 3 -48 149 0 149 0 3 48 3 47
328 3 c180 1 327 0 327 -4 0 -3 -32 -49 -72 -102 -92 -124 -344 -376 -470
-470 -347 -260 -796 -468 -1427 -662 -57 -17 -110 -34 -118 -37 -11 -4 -13
250 -13 1546 l0 1551 1281 0 1282 0 -7 -142z m-4551 -338 c55 -11 123 -21 150
-24 l50 -4 0 -533 0 -534 -42 -9 c-32 -7 -70 -3 -157 14 -113 22 -235 24 -293
5 l-23 -7 0 534 c0 499 1 536 18 551 46 41 110 43 297 7z m3688 -6 c70 -13
143 -24 162 -24 l35 0 0 -530 0 -530 -26 -10 c-40 -15 -105 -12 -201 11 -88
21 -232 23 -275 4 -17 -7 -18 22 -18 529 0 526 0 537 20 554 44 37 91 37 303
-4z m-4189 5 l26 -20 0 -539 0 -538 -37 14 c-54 19 -134 17 -237 -6 -98 -22
-180 -26 -220 -10 l-26 10 0 530 0 530 43 1 c23 0 96 11 162 24 159 31 253 32
289 4z m3684 5 l22 -15 0 -541 c0 -511 -1 -540 -17 -532 -43 18 -181 16 -271
-5 -90 -21 -157 -26 -199 -15 l-23 6 0 534 0 534 38 1 c20 0 91 11 157 24 145
28 261 32 293 9z"/>
<path d="M3445 6415 c-78 -14 -169 -24 -227 -25 l-97 0 -3 -107 -3 -108 -77
-3 -78 -3 0 -614 0 -615 364 0 365 0 3 -47 3 -48 150 0 150 0 3 48 3 47 365 0
364 0 0 615 0 614 -77 3 -78 3 -3 108 -3 107 -89 0 c-51 0 -152 11 -237 26
-175 30 -281 29 -355 -3 l-47 -21 -42 21 c-64 32 -190 32 -354 2z m790 -135
c50 -10 115 -21 145 -23 l55 -4 3 -532 2 -531 -26 -10 c-40 -15 -105 -12 -201
11 -87 21 -214 23 -270 4 l-23 -7 0 534 c0 499 1 536 18 551 45 41 121 43 297
7z m-501 -1 l26 -20 0 -536 c0 -506 -1 -535 -17 -528 -45 19 -181 17 -270 -4
-98 -23 -167 -27 -207 -11 l-26 10 0 530 0 530 43 1 c23 0 96 11 162 24 159
31 253 32 289 4z"/>
<path d="M7120 6415 c-79 -15 -163 -24 -227 -25 l-103 0 0 -110 0 -110 -75 0
-75 0 0 -615 0 -615 363 -2 362 -3 3 -47 3 -48 149 0 149 0 3 48 3 47 368 3
367 2 0 615 0 615 -80 0 -80 0 0 110 0 110 -92 0 c-53 0 -156 11 -238 25 -187
32 -267 32 -344 0 l-59 -24 -41 21 c-62 33 -196 34 -356 3z m782 -136 c59 -11
128 -21 155 -23 l48 -4 3 -531 2 -531 -26 -10 c-40 -16 -115 -12 -211 11 -88
21 -224 23 -266 5 -16 -8 -17 20 -15 535 l3 544 35 18 c41 21 101 18 272 -14z
m-512 6 l30 -16 0 -540 c0 -512 -1 -541 -17 -534 -44 19 -179 17 -270 -4 -93
-21 -159 -26 -200 -15 l-23 6 0 534 0 534 38 1 c20 0 91 11 157 24 144 28 244
31 285 10z"/>
</g>
</svg>
