<svg class="iso-ccv" version="1.1" xmlns="http://www.w3.org/2000/svg" xmlns:xlink="http://www.w3.org/1999/xlink" x="0px" y="0px"
	 viewBox="0 0 883.1 606.4" style="enable-background:new 0 0 883.1 606.4;" xml:space="preserve">
<style type="text/css">
	.st0{fill:#559DAD;stroke:#FFFFFF;stroke-miterlimit:10;}
	.st1{fill:#165F70;stroke:#FFFFFF;stroke-miterlimit:10;}
	.st2{fill:#CC87A3;stroke:#FFFFFF;stroke-miterlimit:10;}
	.st3{fill:#D85088;stroke:#FFFFFF;stroke-miterlimit:10;}
	.st4{fill:#75AA71;stroke:#FFFFFF;stroke-miterlimit:10;}
	.st5{fill:#84D880;stroke:#FFFFFF;stroke-miterlimit:10;}
	.st6{fill:#489B42;stroke:#FFFFFF;stroke-miterlimit:10;}
	.st7{fill:#E2135D;stroke:#FFFFFF;stroke-miterlimit:10;}
	.st8{fill:#003545;stroke:#FFFFFF;stroke-miterlimit:10;}
	.st9{display:none;}
	.st10{display:inline;}
	.st11{opacity:0.41;clip-path:url(#SVGID_2_iso);}
	.st12{fill:#424242;}
</style>
<g id="Layer_2">
	<polygon class="st0" points="706.5,93.3 706.5,186.6 794.8,233.2 794.8,139.9 	"/>
	<polygon class="st0" points="531.4,186.6 531.4,279.9 619.7,326.5 619.7,233.2 	"/>
	<polygon class="st1" points="618.2,233.2 706.5,186.6 706.5,279.9 618.2,326.5 	"/>
	<polygon class="st1" points="794.8,139.9 883.1,93.3 883.1,186.6 794.8,233.2 	"/>
	<polygon class="st2" points="264.9,326.5 264.9,419.8 353.2,466.5 353.2,373.2 	"/>
	<polygon class="st3" points="353.2,373.2 441.5,326.5 441.5,419.8 353.2,466.5 	"/>
	<polygon class="st4" points="88.3,419.8 176.6,373.2 176.6,466.4 88.3,513.1 	"/>
	<polygon class="st5" points="0,373.2 0,466.4 88.3,513.1 88.3,419.8 	"/>
	<polygon class="st6" points="0,466.4 88.3,419.8 176.6,466.4 88.3,513.1 	"/>
	<polygon class="st5" points="0,466.4 0,559.7 88.3,606.4 88.3,513.1 	"/>
	<polygon class="st4" points="88.3,513.1 176.6,466.4 176.6,559.7 88.3,606.4 	"/>
	<polygon class="st6" points="0,373.2 88.3,326.5 176.6,373.2 88.3,419.8 	"/>
	<polygon class="st6" points="88.3,326.5 176.6,279.9 264.9,326.5 176.6,373.2 	"/>
	<polygon class="st4" points="176.6,373.2 264.9,326.5 264.9,419.8 176.6,466.4 	"/>
	<polygon class="st6" points="176.6,466.4 264.9,419.8 353.2,466.4 264.9,513.1 	"/>
	<polygon class="st6" points="264.9,419.8 353.2,373.2 441.5,419.8 353.2,466.5 	"/>
	<polygon class="st4" points="264.9,513.1 353.2,466.4 353.2,559.7 264.9,606.4 	"/>
	<polygon class="st4" points="353.2,466.5 441.5,419.8 441.5,513.1 353.2,559.7 	"/>
	<polygon class="st5" points="176.6,466.4 176.6,559.7 264.9,606.4 264.9,513.1 	"/>
	<polygon class="st3" points="353.2,279.9 441.5,233.2 441.5,326.5 353.2,373.2 	"/>
	<polygon class="st2" points="264.9,233.2 264.9,326.5 353.2,373.2 353.2,279.9 	"/>
	<polygon class="st7" points="264.9,326.5 353.2,279.9 441.5,326.5 353.2,373.2 	"/>
	<polygon class="st7" points="264.9,233.2 353.2,186.6 441.5,233.2 353.2,279.9 	"/>
	<polygon class="st7" points="353.2,186.6 441.5,139.9 529.8,186.6 441.5,233.2 	"/>
	<polygon class="st3" points="441.5,233.2 529.8,186.6 529.8,279.9 441.5,326.5 	"/>
	<polygon class="st7" points="441.5,326.5 529.8,279.9 618.2,326.5 529.9,373.2 	"/>
	<polygon class="st7" points="529.8,279.9 618.2,233.2 706.5,279.9 618.2,326.5 	"/>
	<polygon class="st3" points="529.9,373.2 618.2,326.5 618.2,419.8 529.8,466.5 	"/>
	<polygon class="st3" points="618.2,326.5 706.5,279.9 706.5,373.2 618.2,419.8 	"/>
	<polygon class="st2" points="441.5,326.5 441.5,419.8 529.8,466.5 529.9,373.2 	"/>
	<polygon class="st8" points="441.5,139.9 529.9,93.3 618.2,139.9 529.9,186.6 	"/>
	<polygon class="st8" points="529.8,186.6 618.2,139.9 706.5,186.6 618.2,233.2 	"/>
	<polygon class="st8" points="706.5,186.6 794.8,139.9 883.1,186.6 794.8,233.2 	"/>
	<polygon class="st8" points="618.2,46.6 706.5,0 794.8,46.6 706.5,93.3 	"/>
	<polygon class="st8" points="706.5,93.3 794.8,46.6 883.1,93.3 794.8,139.9 	"/>
	<polygon class="st0" points="706.5,186.6 706.5,279.9 794.8,326.5 794.8,233.2 	"/>
	<polygon class="st0" points="618.2,46.6 618.2,139.9 706.5,186.6 706.5,93.3 	"/>
	<polygon class="st1" points="794.8,233.2 883.1,186.6 883.1,279.9 794.8,326.5 	"/>
</g>
<g id="Layer_1" class="st9">
	<g class="st10">
		<defs>
			<rect id="SVGID_1_" x="-263.9" y="-980.6" width="1767.1" height="1866.8"/>
		</defs>
		<clipPath id="SVGID_2_iso">
			<use xlink:href="#SVGID_1_"  style="overflow:visible;"/>
		</clipPath>
		<g class="st11">
			<g>
				<line class="st12" x1="-2119.3" y1="-1555.6" x2="-2119.3" y2="1040.4"/>
				<line class="st12" x1="-2031" y1="-1555.6" x2="-2031" y2="1040.4"/>
				<line class="st12" x1="-1942.7" y1="-1555.6" x2="-1942.7" y2="1040.4"/>
				<line class="st12" x1="-1854.4" y1="-1555.6" x2="-1854.4" y2="1040.4"/>
				<line class="st12" x1="-1766.1" y1="-1555.6" x2="-1766.1" y2="1040.4"/>
				<line class="st12" x1="-1677.8" y1="-1555.6" x2="-1677.8" y2="1040.4"/>
				<line class="st12" x1="-1589.5" y1="-1555.6" x2="-1589.5" y2="1040.4"/>
				<line class="st12" x1="-1501.2" y1="-1555.6" x2="-1501.2" y2="1040.4"/>
				<line class="st12" x1="-1412.9" y1="-1555.6" x2="-1412.9" y2="1040.4"/>
				<line class="st12" x1="-1324.6" y1="-1555.6" x2="-1324.6" y2="1040.4"/>
				<line class="st12" x1="-1236.3" y1="-1555.6" x2="-1236.3" y2="1040.4"/>
				<line class="st12" x1="-1148" y1="-1555.6" x2="-1148" y2="1040.4"/>
				<line class="st12" x1="-1059.7" y1="-1555.6" x2="-1059.7" y2="1040.4"/>
				<line class="st12" x1="-971.4" y1="-1555.6" x2="-971.4" y2="1040.4"/>
				<line class="st12" x1="-883.1" y1="-1555.6" x2="-883.1" y2="1040.4"/>
				<line class="st12" x1="-794.7" y1="-1555.6" x2="-794.7" y2="1040.4"/>
				<line class="st12" x1="-706.4" y1="-1555.6" x2="-706.4" y2="1040.4"/>
				<line class="st12" x1="-618.1" y1="-1555.6" x2="-618.1" y2="1040.4"/>
				<line class="st12" x1="-529.8" y1="-1555.6" x2="-529.8" y2="1040.4"/>
				<line class="st12" x1="-441.5" y1="-1555.6" x2="-441.5" y2="1040.4"/>
				<line class="st12" x1="-353.2" y1="-1555.6" x2="-353.2" y2="1040.4"/>
				<line class="st12" x1="-264.9" y1="-1555.6" x2="-264.9" y2="1040.4"/>
				<line class="st12" x1="-176.6" y1="-1555.6" x2="-176.6" y2="1040.4"/>
				<line class="st12" x1="-88.3" y1="-1555.6" x2="-88.3" y2="1040.4"/>
				<line class="st12" x1="0" y1="-1555.6" x2="0" y2="1040.4"/>
				<line class="st12" x1="88.3" y1="-1555.6" x2="88.3" y2="1040.4"/>
				<line class="st12" x1="176.6" y1="-1555.6" x2="176.6" y2="1040.4"/>
				<line class="st12" x1="264.9" y1="-1555.6" x2="264.9" y2="1040.4"/>
				<line class="st12" x1="353.2" y1="-1555.6" x2="353.2" y2="1040.4"/>
				<line class="st12" x1="441.5" y1="-1555.6" x2="441.5" y2="1040.4"/>
				<line class="st12" x1="529.8" y1="-1555.6" x2="529.8" y2="1040.4"/>
				<line class="st12" x1="618.2" y1="-1555.6" x2="618.2" y2="1040.4"/>
				<line class="st12" x1="706.5" y1="-1555.6" x2="706.5" y2="1040.4"/>
				<line class="st12" x1="794.8" y1="-1555.6" x2="794.8" y2="1040.4"/>
				<line class="st12" x1="883.1" y1="-1555.6" x2="883.1" y2="1040.4"/>
				<line class="st12" x1="971.4" y1="-1555.6" x2="971.4" y2="1040.4"/>
				<line class="st12" x1="1059.7" y1="-1555.6" x2="1059.7" y2="1040.4"/>
				<line class="st12" x1="1148" y1="-1555.6" x2="1148" y2="1040.4"/>
				<line class="st12" x1="1236.3" y1="-1555.6" x2="1236.3" y2="1040.4"/>
				<line class="st12" x1="1324.6" y1="-1555.6" x2="1324.6" y2="1040.4"/>
				<line class="st12" x1="1412.9" y1="-1555.6" x2="1412.9" y2="1040.4"/>
				<line class="st12" x1="1501.2" y1="-1555.6" x2="1501.2" y2="1040.4"/>
				<line class="st12" x1="1589.5" y1="-1555.6" x2="1589.5" y2="1040.4"/>
				<line class="st12" x1="1677.8" y1="-1555.6" x2="1677.8" y2="1040.4"/>
				<line class="st12" x1="1766.1" y1="-1555.6" x2="1766.1" y2="1040.4"/>
				<line class="st12" x1="1854.4" y1="-1555.6" x2="1854.4" y2="1040.4"/>
				<line class="st12" x1="1942.7" y1="-1555.6" x2="1942.7" y2="1040.4"/>
				<line class="st12" x1="2031" y1="-1555.6" x2="2031" y2="1040.4"/>
				<line class="st12" x1="2119.4" y1="-1555.6" x2="2119.4" y2="1040.4"/>
				<line class="st12" x1="2207.7" y1="-1555.6" x2="2207.7" y2="1040.4"/>
				<line class="st12" x1="2296" y1="-1555.6" x2="2296" y2="1040.4"/>
				<line class="st12" x1="2384.3" y1="-1555.6" x2="2384.3" y2="1040.4"/>
				<line class="st12" x1="2472.6" y1="-1555.6" x2="2472.6" y2="1040.4"/>
				<line class="st12" x1="2560.9" y1="-1555.6" x2="2560.9" y2="1040.4"/>
				<line class="st12" x1="2649.2" y1="-1555.6" x2="2649.2" y2="1040.4"/>
				<line class="st12" x1="2737.5" y1="-1555.6" x2="2737.5" y2="1040.4"/>
				<line class="st12" x1="2825.8" y1="-1555.6" x2="2825.8" y2="1040.4"/>
				<line class="st12" x1="2914.1" y1="-1555.6" x2="2914.1" y2="1040.4"/>
				<line class="st12" x1="3002.4" y1="-1555.6" x2="3002.4" y2="1040.4"/>
				<line class="st12" x1="3090.7" y1="-1555.6" x2="3090.7" y2="1040.4"/>
				<line class="st12" x1="3179" y1="-1555.6" x2="3179" y2="1040.4"/>
				<line class="st12" x1="3267.3" y1="-1555.6" x2="3267.3" y2="1040.4"/>
			</g>
			<g>
				<line class="st12" x1="-1920" y1="1224.8" x2="537.5" y2="2522.8"/>
				<line class="st12" x1="-1875.8" y1="1154.8" x2="581.6" y2="2452.8"/>
				<line class="st12" x1="-1831.7" y1="1084.9" x2="625.8" y2="2382.9"/>
				<line class="st12" x1="-1787.5" y1="1014.9" x2="669.9" y2="2312.9"/>
				<line class="st12" x1="-1743.3" y1="944.9" x2="714.1" y2="2242.9"/>
				<line class="st12" x1="-1699.2" y1="875" x2="758.2" y2="2173"/>
				<line class="st12" x1="-1655" y1="805" x2="802.4" y2="2103"/>
				<line class="st12" x1="-1610.9" y1="735" x2="846.5" y2="2033"/>
				<line class="st12" x1="-1566.7" y1="665.1" x2="890.7" y2="1963.1"/>
				<line class="st12" x1="-1522.6" y1="595.1" x2="934.8" y2="1893.1"/>
				<line class="st12" x1="-1478.4" y1="525.1" x2="979" y2="1823.1"/>
				<line class="st12" x1="-1434.3" y1="455.2" x2="1023.1" y2="1753.2"/>
				<line class="st12" x1="-1390.1" y1="385.2" x2="1067.3" y2="1683.2"/>
				<line class="st12" x1="-1346" y1="315.2" x2="1111.4" y2="1613.2"/>
				<line class="st12" x1="-1301.8" y1="245.3" x2="1155.6" y2="1543.3"/>
				<line class="st12" x1="-1257.7" y1="175.3" x2="1199.7" y2="1473.3"/>
				<line class="st12" x1="-1213.5" y1="105.3" x2="1243.9" y2="1403.3"/>
				<line class="st12" x1="-1169.4" y1="35.4" x2="1288.1" y2="1333.4"/>
				<line class="st12" x1="-1125.2" y1="-34.6" x2="1332.2" y2="1263.4"/>
				<line class="st12" x1="-1081" y1="-104.6" x2="1376.4" y2="1193.5"/>
				<line class="st12" x1="-1036.9" y1="-174.5" x2="1420.5" y2="1123.5"/>
				<line class="st12" x1="-992.7" y1="-244.5" x2="1464.7" y2="1053.5"/>
				<line class="st12" x1="-948.6" y1="-314.5" x2="1508.8" y2="983.6"/>
				<line class="st12" x1="-904.4" y1="-384.4" x2="1553" y2="913.6"/>
				<line class="st12" x1="-860.3" y1="-454.4" x2="1597.1" y2="843.6"/>
				<line class="st12" x1="-816.1" y1="-524.4" x2="1641.3" y2="773.7"/>
				<line class="st12" x1="-772" y1="-594.3" x2="1685.4" y2="703.7"/>
				<line class="st12" x1="-727.8" y1="-664.3" x2="1729.6" y2="633.7"/>
				<line class="st12" x1="-683.7" y1="-734.3" x2="1773.7" y2="563.8"/>
				<line class="st12" x1="-639.5" y1="-804.2" x2="1817.9" y2="493.8"/>
				<line class="st12" x1="-595.4" y1="-874.2" x2="1862" y2="423.8"/>
				<line class="st12" x1="-551.2" y1="-944.2" x2="1906.2" y2="353.9"/>
				<line class="st12" x1="-507.1" y1="-1014.1" x2="1950.3" y2="283.9"/>
				<line class="st12" x1="-462.9" y1="-1084.1" x2="1994.5" y2="213.9"/>
				<line class="st12" x1="-418.8" y1="-1154.1" x2="2038.7" y2="144"/>
				<line class="st12" x1="-374.6" y1="-1224" x2="2082.8" y2="74"/>
				<line class="st12" x1="-330.4" y1="-1294" x2="2127" y2="4"/>
				<line class="st12" x1="-286.3" y1="-1364" x2="2171.1" y2="-65.9"/>
				<line class="st12" x1="-242.1" y1="-1433.9" x2="2215.3" y2="-135.9"/>
				<line class="st12" x1="-198" y1="-1503.9" x2="2259.4" y2="-205.9"/>
				<line class="st12" x1="-153.8" y1="-1573.9" x2="2303.6" y2="-275.8"/>
				<line class="st12" x1="-109.7" y1="-1643.8" x2="2347.7" y2="-345.8"/>
				<line class="st12" x1="-65.5" y1="-1713.8" x2="2391.9" y2="-415.8"/>
				<line class="st12" x1="-21.4" y1="-1783.7" x2="2436" y2="-485.7"/>
				<line class="st12" x1="22.8" y1="-1853.7" x2="2480.2" y2="-555.7"/>
				<line class="st12" x1="66.9" y1="-1923.7" x2="2524.3" y2="-625.7"/>
				<line class="st12" x1="111.1" y1="-1993.6" x2="2568.5" y2="-695.6"/>
				<line class="st12" x1="155.2" y1="-2063.6" x2="2612.6" y2="-765.6"/>
				<line class="st12" x1="199.4" y1="-2133.6" x2="2656.8" y2="-835.6"/>
				<line class="st12" x1="243.5" y1="-2203.5" x2="2701" y2="-905.5"/>
				<line class="st12" x1="287.7" y1="-2273.5" x2="2745.1" y2="-975.5"/>
				<line class="st12" x1="331.9" y1="-2343.5" x2="2789.3" y2="-1045.5"/>
				<line class="st12" x1="376" y1="-2413.4" x2="2833.4" y2="-1115.4"/>
				<line class="st12" x1="420.2" y1="-2483.4" x2="2877.6" y2="-1185.4"/>
				<line class="st12" x1="464.3" y1="-2553.4" x2="2921.7" y2="-1255.4"/>
				<line class="st12" x1="508.5" y1="-2623.3" x2="2965.9" y2="-1325.3"/>
				<line class="st12" x1="552.6" y1="-2693.3" x2="3010" y2="-1395.3"/>
				<line class="st12" x1="596.8" y1="-2763.3" x2="3054.2" y2="-1465.3"/>
				<line class="st12" x1="640.9" y1="-2833.2" x2="3098.3" y2="-1535.2"/>
				<line class="st12" x1="685.1" y1="-2903.2" x2="3142.5" y2="-1605.2"/>
				<line class="st12" x1="729.2" y1="-2973.2" x2="3186.6" y2="-1675.1"/>
				<line class="st12" x1="773.4" y1="-3043.1" x2="3230.8" y2="-1745.1"/>
			</g>
			<g>
				<line class="st12" x1="3151.4" y1="1227.3" x2="694" y2="2525.4"/>
				<line class="st12" x1="3107.2" y1="1157.4" x2="649.8" y2="2455.4"/>
				<line class="st12" x1="3063.1" y1="1087.4" x2="605.7" y2="2385.4"/>
				<line class="st12" x1="3018.9" y1="1017.4" x2="561.5" y2="2315.5"/>
				<line class="st12" x1="2974.8" y1="947.5" x2="517.4" y2="2245.5"/>
				<line class="st12" x1="2930.6" y1="877.5" x2="473.2" y2="2175.5"/>
				<line class="st12" x1="2886.5" y1="807.5" x2="429.1" y2="2105.6"/>
				<line class="st12" x1="2842.3" y1="737.6" x2="384.9" y2="2035.6"/>
				<line class="st12" x1="2798.2" y1="667.6" x2="340.8" y2="1965.6"/>
				<line class="st12" x1="2754" y1="597.7" x2="296.6" y2="1895.7"/>
				<line class="st12" x1="2709.9" y1="527.7" x2="252.5" y2="1825.7"/>
				<line class="st12" x1="2665.7" y1="457.7" x2="208.3" y2="1755.7"/>
				<line class="st12" x1="2621.6" y1="387.8" x2="164.2" y2="1685.8"/>
				<line class="st12" x1="2577.4" y1="317.8" x2="120" y2="1615.8"/>
				<line class="st12" x1="2533.3" y1="247.8" x2="75.8" y2="1545.8"/>
				<line class="st12" x1="2489.1" y1="177.9" x2="31.7" y2="1475.9"/>
				<line class="st12" x1="2444.9" y1="107.9" x2="-12.5" y2="1405.9"/>
				<line class="st12" x1="2400.8" y1="37.9" x2="-56.6" y2="1335.9"/>
				<line class="st12" x1="2356.6" y1="-32" x2="-100.8" y2="1266"/>
				<line class="st12" x1="2312.5" y1="-102" x2="-144.9" y2="1196"/>
				<line class="st12" x1="2268.3" y1="-172" x2="-189.1" y2="1126"/>
				<line class="st12" x1="2224.2" y1="-241.9" x2="-233.2" y2="1056.1"/>
				<line class="st12" x1="2180" y1="-311.9" x2="-277.4" y2="986.1"/>
				<line class="st12" x1="2135.9" y1="-381.9" x2="-321.5" y2="916.1"/>
				<line class="st12" x1="2091.7" y1="-451.8" x2="-365.7" y2="846.2"/>
				<line class="st12" x1="2047.6" y1="-521.8" x2="-409.8" y2="776.2"/>
				<line class="st12" x1="2003.4" y1="-591.8" x2="-454" y2="706.3"/>
				<line class="st12" x1="1959.3" y1="-661.7" x2="-498.1" y2="636.3"/>
				<line class="st12" x1="1915.1" y1="-731.7" x2="-542.3" y2="566.3"/>
				<line class="st12" x1="1871" y1="-801.7" x2="-586.4" y2="496.4"/>
				<line class="st12" x1="1826.8" y1="-871.6" x2="-630.6" y2="426.4"/>
				<line class="st12" x1="1782.7" y1="-941.6" x2="-674.8" y2="356.4"/>
				<line class="st12" x1="1738.5" y1="-1011.6" x2="-718.9" y2="286.5"/>
				<line class="st12" x1="1694.3" y1="-1081.5" x2="-763.1" y2="216.5"/>
				<line class="st12" x1="1650.2" y1="-1151.5" x2="-807.2" y2="146.5"/>
				<line class="st12" x1="1606" y1="-1221.5" x2="-851.4" y2="76.6"/>
				<line class="st12" x1="1561.9" y1="-1291.4" x2="-895.5" y2="6.6"/>
				<line class="st12" x1="1517.7" y1="-1361.4" x2="-939.7" y2="-63.4"/>
				<line class="st12" x1="1473.6" y1="-1431.4" x2="-983.8" y2="-133.3"/>
				<line class="st12" x1="1429.4" y1="-1501.3" x2="-1028" y2="-203.3"/>
				<line class="st12" x1="1385.3" y1="-1571.3" x2="-1072.1" y2="-273.3"/>
				<line class="st12" x1="1341.1" y1="-1641.3" x2="-1116.3" y2="-343.2"/>
				<line class="st12" x1="1297" y1="-1711.2" x2="-1160.4" y2="-413.2"/>
				<line class="st12" x1="1252.8" y1="-1781.2" x2="-1204.6" y2="-483.2"/>
				<line class="st12" x1="1208.7" y1="-1851.2" x2="-1248.7" y2="-553.1"/>
				<line class="st12" x1="1164.5" y1="-1921.1" x2="-1292.9" y2="-623.1"/>
				<line class="st12" x1="1120.4" y1="-1991.1" x2="-1337.1" y2="-693.1"/>
				<line class="st12" x1="1076.2" y1="-2061.1" x2="-1381.2" y2="-763"/>
				<line class="st12" x1="1032" y1="-2131" x2="-1425.4" y2="-833"/>
				<line class="st12" x1="987.9" y1="-2201" x2="-1469.5" y2="-903"/>
				<line class="st12" x1="943.7" y1="-2271" x2="-1513.7" y2="-972.9"/>
				<line class="st12" x1="899.6" y1="-2340.9" x2="-1557.8" y2="-1042.9"/>
				<line class="st12" x1="855.4" y1="-2410.9" x2="-1602" y2="-1112.9"/>
				<line class="st12" x1="811.3" y1="-2480.8" x2="-1646.1" y2="-1182.8"/>
				<line class="st12" x1="767.1" y1="-2550.8" x2="-1690.3" y2="-1252.8"/>
				<line class="st12" x1="723" y1="-2620.8" x2="-1734.4" y2="-1322.8"/>
				<line class="st12" x1="678.8" y1="-2690.7" x2="-1778.6" y2="-1392.7"/>
				<line class="st12" x1="634.7" y1="-2760.7" x2="-1822.7" y2="-1462.7"/>
				<line class="st12" x1="590.5" y1="-2830.7" x2="-1866.9" y2="-1532.7"/>
				<line class="st12" x1="546.4" y1="-2900.6" x2="-1911" y2="-1602.6"/>
				<line class="st12" x1="502.2" y1="-2970.6" x2="-1955.2" y2="-1672.6"/>
				<line class="st12" x1="458.1" y1="-3040.6" x2="-1999.3" y2="-1742.6"/>
			</g>
		</g>
	</g>
</g>
</svg>
