<?xml version="1.0" encoding="utf-8"?>
<!-- Generator: Adobe Illustrator 22.1.0, SVG Export Plug-In . SVG Version: 6.00 Build 0)  -->
<svg version="1.1" id="Layer_1" xmlns="http://www.w3.org/2000/svg" xmlns:xlink="http://www.w3.org/1999/xlink" x="0px" y="0px"
	 viewBox="0 0 739 430" style="enable-background:new 0 0 739 430;" xml:space="preserve">
<style type="text/css">
	.st0{opacity:0.42;}
	.st1{enable-background:new    ;}
	.st2{clip-path:url(#SVGID_2_);enable-background:new    ;}
	.st3{fill:#D0A324;}
	.st4{clip-path:url(#SVGID_4_);enable-background:new    ;}
	.st5{fill:#DCAC26;}
	.st6{fill:#DEAD26;}
	.st7{fill:#E0AF27;}
	.st8{fill:#E2B027;}
	.st9{fill:#E4B227;}
	.st10{fill:#E6B328;}
	.st11{fill:#E8B528;}
	.st12{fill:#EAB628;}
	.st13{fill:#ECB829;}
	.st14{fill:#EBB729;}
	.st15{clip-path:url(#SVGID_6_);enable-background:new    ;}
	.st16{clip-path:url(#SVGID_8_);enable-background:new    ;}
	.st17{fill:#EBB829;}
	.st18{clip-path:url(#SVGID_10_);enable-background:new    ;}
	.st19{clip-path:url(#SVGID_12_);enable-background:new    ;}
	.st20{clip-path:url(#SVGID_14_);enable-background:new    ;}
	.st21{clip-path:url(#SVGID_16_);enable-background:new    ;}
	.st22{clip-path:url(#SVGID_18_);enable-background:new    ;}
	.st23{clip-path:url(#SVGID_20_);enable-background:new    ;}
	.st24{clip-path:url(#SVGID_22_);enable-background:new    ;}
	.st25{clip-path:url(#SVGID_24_);enable-background:new    ;}
	.st26{clip-path:url(#SVGID_26_);enable-background:new    ;}
	.st27{clip-path:url(#SVGID_28_);enable-background:new    ;}
	.st28{clip-path:url(#SVGID_30_);enable-background:new    ;}
	.st29{fill:#DAAA26;}
	.st30{fill:#D8A925;}
	.st31{fill:#D6A725;}
	.st32{clip-path:url(#SVGID_32_);enable-background:new    ;}
	.st33{clip-path:url(#SVGID_34_);enable-background:new    ;}
	.st34{fill:#D2A424;}
	.st35{fill:#D4A625;}
	.st36{clip-path:url(#SVGID_36_);enable-background:new    ;}
	.st37{fill:#F2BD2A;}
	.st38{fill:#D1A324;}
	.st39{clip-path:url(#SVGID_38_);enable-background:new    ;}
	.st40{clip-path:url(#SVGID_40_);enable-background:new    ;}
	.st41{fill:#E6B428;}
	.st42{clip-path:url(#SVGID_42_);enable-background:new    ;}
	.st43{clip-path:url(#SVGID_44_);enable-background:new    ;}
	.st44{clip-path:url(#SVGID_46_);enable-background:new    ;}
	.st45{clip-path:url(#SVGID_48_);enable-background:new    ;}
	.st46{clip-path:url(#SVGID_50_);enable-background:new    ;}
	.st47{clip-path:url(#SVGID_52_);enable-background:new    ;}
	.st48{clip-path:url(#SVGID_54_);enable-background:new    ;}
	.st49{clip-path:url(#SVGID_56_);enable-background:new    ;}
	.st50{fill:#E1AF27;}
	.st51{clip-path:url(#SVGID_58_);enable-background:new    ;}
	.st52{clip-path:url(#SVGID_60_);enable-background:new    ;}
	.st53{clip-path:url(#SVGID_62_);enable-background:new    ;}
	.st54{clip-path:url(#SVGID_64_);enable-background:new    ;}
	.st55{clip-path:url(#SVGID_66_);enable-background:new    ;}
	.st56{clip-path:url(#SVGID_68_);enable-background:new    ;}
	.st57{clip-path:url(#SVGID_70_);enable-background:new    ;}
	.st58{clip-path:url(#SVGID_72_);enable-background:new    ;}
	.st59{clip-path:url(#SVGID_74_);enable-background:new    ;}
	.st60{clip-path:url(#SVGID_76_);enable-background:new    ;}
	.st61{clip-path:url(#SVGID_78_);enable-background:new    ;}
	.st62{fill:#E9B628;}
</style>
<g id="Layer_3_1_" class="st0">
	<g>
		<g class="st1">
			<g class="st1">
				<defs>
					<path id="SVGID_1_" class="st1" d="M684.6,28l0,6.4c-1-0.4-1.9-0.9-2.8-1.5c-0.9-0.6-1.7-1.2-2.3-1.8l0-6.4
						c0.7,0.6,1.4,1.3,2.3,1.8C682.7,27.1,683.6,27.6,684.6,28z"/>
				</defs>
				<clipPath id="SVGID_2_">
					<use xlink:href="#SVGID_1_"  style="overflow:visible;"/>
				</clipPath>
				<g class="st2">
					<path class="st3" d="M684.6,28l0,6.4c-1-0.4-1.9-0.9-2.8-1.5c-0.9-0.6-1.7-1.2-2.3-1.8l0-6.4c0.7,0.6,1.4,1.3,2.3,1.8
						C682.7,27.1,683.6,27.6,684.6,28"/>
				</g>
			</g>
			<g class="st1">
				<defs>
					<path id="SVGID_3_" class="st1" d="M714,18.9l0,6.4c0,3-2,5.9-5.9,8.1c-3.8,2.1-8.8,3.1-13.6,3l0-6.4c4.8,0.1,9.8-0.8,13.6-3
						C712,24.9,714,21.9,714,18.9z"/>
				</defs>
				<clipPath id="SVGID_4_">
					<use xlink:href="#SVGID_3_"  style="overflow:visible;"/>
				</clipPath>
				<g class="st4">
					<path class="st5" d="M714,18.9l0,6.4c0,0.2,0,0.4,0,0.5l0-6.4C714,19.3,714,19.1,714,18.9"/>
					<path class="st6" d="M713.9,19.4l0,6.4c0,0.2-0.1,0.5-0.1,0.7l0-6.4C713.9,19.9,713.9,19.7,713.9,19.4"/>
					<path class="st7" d="M713.9,20.2l0,6.4c0,0.2-0.1,0.5-0.2,0.7l0-6.4C713.7,20.7,713.8,20.4,713.9,20.2"/>
					<path class="st8" d="M713.7,20.9l0,6.4c-0.1,0.3-0.2,0.5-0.3,0.8l0-6.4C713.5,21.4,713.6,21.2,713.7,20.9"/>
					<path class="st9" d="M713.4,21.7l0,6.4c-0.1,0.3-0.2,0.5-0.4,0.8l0-6.4C713.2,22.2,713.3,21.9,713.4,21.7"/>
					<path class="st10" d="M713,22.5l0,6.4c-0.2,0.3-0.3,0.6-0.5,0.8l0-6.4C712.7,23,712.8,22.7,713,22.5"/>
					<path class="st11" d="M712.5,23.3l0,6.4c-0.2,0.3-0.5,0.6-0.7,0.9l0-6.4C712,23.9,712.3,23.6,712.5,23.3"/>
					<path class="st12" d="M711.8,24.2l0,6.4c-0.3,0.4-0.7,0.7-1.1,1.1l0-6.4C711,24.9,711.4,24.6,711.8,24.2"/>
					<path class="st13" d="M710.6,25.3l0,6.4c-0.7,0.6-1.6,1.2-2.6,1.8c-1.3,0.7-2.8,1.3-4.3,1.8l0-6.4c1.5-0.5,3-1.1,4.3-1.8
						C709,26.5,709.9,25.9,710.6,25.3"/>
					<path class="st12" d="M703.7,28.9l0,6.4c-0.6,0.2-1.3,0.4-2,0.5l0-6.4C702.4,29.2,703,29,703.7,28.9"/>
					<path class="st11" d="M701.7,29.4l0,6.4c-0.5,0.1-1.1,0.2-1.6,0.3l0-6.4C700.6,29.6,701.2,29.5,701.7,29.4"/>
					<path class="st10" d="M700.1,29.7l0,6.4c-0.5,0.1-1,0.1-1.5,0.2l0-6.4C699.1,29.8,699.6,29.7,700.1,29.7"/>
					<path class="st9" d="M698.7,29.9l0,6.4c-0.5,0-0.9,0.1-1.4,0.1l0-6.4C697.7,29.9,698.2,29.9,698.7,29.9"/>
					<path class="st8" d="M697.3,30l0,6.4c-0.4,0-0.9,0-1.3,0.1l0-6.4C696.4,30,696.9,30,697.3,30"/>
					<path class="st7" d="M696,30l0,6.4c-0.4,0-0.8,0-1.3,0l0-6.4C695.1,30,695.6,30,696,30"/>
					<path class="st6" d="M694.7,30l0,6.4c-0.1,0-0.2,0-0.3,0l0-6.4C694.5,30,694.6,30,694.7,30"/>
				</g>
			</g>
			<g>
				<polygon class="st14" points="679.5,24.8 679.6,31.2 608.2,42.2 608.1,35.7 				"/>
			</g>
			<g class="st1">
				<defs>
					<path id="SVGID_5_" class="st1" d="M578.9,45.3l0,6.4c-1-0.4-2-0.9-2.8-1.5c-0.9-0.6-1.6-1.2-2.3-1.8l0-6.4
						c0.6,0.6,1.4,1.2,2.3,1.8C576.9,44.4,577.8,44.9,578.9,45.3z"/>
				</defs>
				<clipPath id="SVGID_6_">
					<use xlink:href="#SVGID_5_"  style="overflow:visible;"/>
				</clipPath>
				<g class="st15">
					<path class="st3" d="M578.9,45.3l0,6.4c-1-0.4-2-0.9-2.8-1.5c-0.9-0.6-1.6-1.2-2.3-1.8l0-6.4c0.6,0.6,1.4,1.2,2.3,1.8
						C576.9,44.4,577.8,44.9,578.9,45.3"/>
				</g>
			</g>
			<g class="st1">
				<defs>
					<path id="SVGID_7_" class="st1" d="M608.1,36.2l0,6.4c0,3-2,5.9-5.9,8.1c-3.8,2.1-8.7,3.1-13.6,3l0-6.4c4.8,0.1,9.7-0.9,13.6-3
						C606.2,42.1,608.2,39.1,608.1,36.2z"/>
				</defs>
				<clipPath id="SVGID_8_">
					<use xlink:href="#SVGID_7_"  style="overflow:visible;"/>
				</clipPath>
				<g class="st16">
					<path class="st5" d="M608.1,36.2l0,6.4c0,0.2,0,0.4,0,0.5l0-6.4C608.1,36.5,608.1,36.3,608.1,36.2"/>
					<path class="st6" d="M608.1,36.7l0,6.4c0,0.2-0.1,0.5-0.1,0.7l0-6.4C608.1,37.2,608.1,36.9,608.1,36.7"/>
					<path class="st7" d="M608,37.4l0,6.4c0,0.2-0.1,0.5-0.2,0.7l0-6.4C607.9,37.9,608,37.7,608,37.4"/>
					<path class="st8" d="M607.8,38.2l0,6.4c-0.1,0.3-0.2,0.5-0.3,0.8l0-6.4C607.7,38.7,607.8,38.4,607.8,38.2"/>
					<path class="st9" d="M607.6,38.9l0,6.4c-0.1,0.3-0.2,0.5-0.4,0.8l0-6.4C607.3,39.5,607.5,39.2,607.6,38.9"/>
					<path class="st10" d="M607.2,39.7l0,6.4c-0.2,0.3-0.3,0.6-0.5,0.8l0-6.4C606.8,40.3,607,40,607.2,39.7"/>
					<path class="st11" d="M606.7,40.5l0,6.4c-0.2,0.3-0.5,0.6-0.7,0.9l0-6.4C606.2,41.2,606.4,40.9,606.7,40.5"/>
					<path class="st12" d="M605.9,41.4l0,6.4c-0.3,0.4-0.7,0.7-1.1,1.1l0-6.4C605.2,42.2,605.6,41.8,605.9,41.4"/>
					<path class="st13" d="M604.8,42.5l0,6.4c-0.7,0.6-1.6,1.2-2.6,1.8c-1.3,0.7-2.8,1.3-4.3,1.8l0-6.4c1.5-0.5,3-1.1,4.3-1.8
						C603.2,43.8,604.1,43.2,604.8,42.5"/>
					<path class="st12" d="M597.9,46.1l0,6.4c-0.6,0.2-1.3,0.4-2,0.5l0-6.4C596.6,46.5,597.2,46.3,597.9,46.1"/>
					<path class="st11" d="M595.9,46.6l0,6.4c-0.5,0.1-1.1,0.2-1.6,0.3l0-6.4C594.8,46.8,595.4,46.7,595.9,46.6"/>
					<path class="st10" d="M594.3,46.9l0,6.4c-0.5,0.1-1,0.1-1.5,0.2l0-6.4C593.3,47.1,593.8,47,594.3,46.9"/>
					<path class="st9" d="M592.8,47.1l0,6.4c-0.5,0-0.9,0.1-1.4,0.1l0-6.4C591.9,47.2,592.4,47.2,592.8,47.1"/>
					<path class="st8" d="M591.5,47.2l0,6.4c-0.4,0-0.9,0-1.3,0.1l0-6.4C590.6,47.3,591,47.3,591.5,47.2"/>
					<path class="st7" d="M590.2,47.3l0,6.4c-0.4,0-0.8,0-1.3,0l0-6.4C589.3,47.3,589.7,47.3,590.2,47.3"/>
					<path class="st6" d="M588.9,47.3l0,6.4c-0.1,0-0.2,0-0.2,0l0-6.4C588.7,47.3,588.8,47.3,588.9,47.3"/>
				</g>
			</g>
			<g>
				<polygon class="st17" points="573.7,42.1 573.8,48.5 502.5,60.2 502.4,53.8 				"/>
			</g>
			<g class="st1">
				<defs>
					<path id="SVGID_9_" class="st1" d="M502.4,53.8l0,6.4c-0.1,2.9-2.1,5.7-5.9,7.9l0-6.4C500.3,59.5,502.3,56.6,502.4,53.8z"/>
				</defs>
				<clipPath id="SVGID_10_">
					<use xlink:href="#SVGID_9_"  style="overflow:visible;"/>
				</clipPath>
				<g class="st18">
					<path class="st5" d="M502.4,53.8l0,6.4c0,0.1,0,0.2,0,0.3l0-6.4C502.4,53.9,502.4,53.8,502.4,53.8"/>
					<path class="st6" d="M502.4,54l0,6.4c0,0.2-0.1,0.5-0.1,0.7l0-6.4C502.4,54.5,502.4,54.3,502.4,54"/>
					<path class="st7" d="M502.3,54.8l0,6.4c0,0.2-0.1,0.5-0.2,0.7l0-6.4C502.2,55.3,502.3,55,502.3,54.8"/>
					<path class="st8" d="M502.1,55.5l0,6.4c-0.1,0.3-0.2,0.5-0.3,0.8l0-6.4C502,56,502,55.8,502.1,55.5"/>
					<path class="st9" d="M501.8,56.3l0,6.4c-0.1,0.3-0.2,0.5-0.4,0.8l0-6.4C501.6,56.8,501.7,56.5,501.8,56.3"/>
					<path class="st10" d="M501.5,57l0,6.4c-0.2,0.3-0.3,0.6-0.5,0.8l0-6.4C501.1,57.6,501.3,57.3,501.5,57"/>
					<path class="st11" d="M500.9,57.9l0,6.4c-0.2,0.3-0.5,0.6-0.7,0.9l0-6.4C500.5,58.5,500.7,58.2,500.9,57.9"/>
					<path class="st12" d="M500.2,58.8l0,6.4c-0.3,0.4-0.7,0.7-1.1,1.1l0-6.4C499.5,59.5,499.9,59.1,500.2,58.8"/>
					<path class="st13" d="M499.1,59.8l0,6.4c-0.7,0.6-1.6,1.2-2.6,1.8l0-6.4C497.5,61.1,498.4,60.5,499.1,59.8"/>
				</g>
			</g>
			<g class="st1">
				<defs>
					<path id="SVGID_11_" class="st1" d="M473.1,62.6l0,6.4c-1-0.4-2-0.9-2.8-1.5s-1.6-1.2-2.3-1.8l0-6.4c0.6,0.6,1.4,1.2,2.3,1.8
						C471.2,61.7,472.1,62.2,473.1,62.6z"/>
				</defs>
				<clipPath id="SVGID_12_">
					<use xlink:href="#SVGID_11_"  style="overflow:visible;"/>
				</clipPath>
				<g class="st19">
					<path class="st3" d="M473.1,62.6l0,6.4c-1-0.4-2-0.9-2.8-1.5s-1.6-1.2-2.3-1.8l0-6.4c0.6,0.6,1.4,1.2,2.3,1.8
						C471.2,61.7,472.1,62.2,473.1,62.6"/>
				</g>
			</g>
			<g class="st1">
				<defs>
					<path id="SVGID_13_" class="st1" d="M496.5,61.6l0,6.4c-3.8,2.1-8.7,3.1-13.6,3l0-6.4C487.8,64.7,492.7,63.7,496.5,61.6z"/>
				</defs>
				<clipPath id="SVGID_14_">
					<use xlink:href="#SVGID_13_"  style="overflow:visible;"/>
				</clipPath>
				<g class="st20">
					<path class="st13" d="M496.5,61.6l0,6.4c-1.3,0.7-2.8,1.3-4.4,1.8l0-6.4C493.7,63,495.2,62.4,496.5,61.6"/>
					<path class="st12" d="M492.1,63.4l0,6.4c-0.6,0.2-1.3,0.4-2,0.5l0-6.4C490.9,63.8,491.5,63.6,492.1,63.4"/>
					<path class="st11" d="M490.2,63.9l0,6.4c-0.5,0.1-1.1,0.2-1.6,0.3l0-6.4C489.1,64.1,489.7,64,490.2,63.9"/>
					<path class="st10" d="M488.6,64.2l0,6.4c-0.5,0.1-1,0.1-1.4,0.2l0-6.4C487.6,64.4,488.1,64.3,488.6,64.2"/>
					<path class="st9" d="M487.1,64.4l0,6.4c-0.5,0-0.9,0.1-1.4,0.1l0-6.4C486.2,64.5,486.7,64.5,487.1,64.4"/>
					<path class="st8" d="M485.8,64.5l0,6.4c-0.4,0-0.9,0-1.3,0.1l0-6.4C484.9,64.6,485.3,64.6,485.8,64.5"/>
					<path class="st7" d="M484.5,64.6l0,6.4c-0.4,0-0.8,0-1.3,0l0-6.4C483.6,64.6,484,64.6,484.5,64.6"/>
					<path class="st6" d="M483.2,64.6l0,6.4c-0.1,0-0.2,0-0.3,0l0-6.4C483,64.6,483.1,64.6,483.2,64.6"/>
				</g>
			</g>
			<g>
				<polygon class="st17" points="468,59.4 468.1,65.8 396.7,77.5 396.6,71 				"/>
			</g>
			<g>
				<polygon class="st12" points="694.4,30 694.5,36.5 670,78 669.9,71.6 				"/>
			</g>
			<g class="st1">
				<defs>
					<path id="SVGID_15_" class="st1" d="M359.6,77.4l0-6.4c0,2.7,1.7,5.3,4.9,7.4c0.8,0.5,1.6,0.9,2.5,1.3l0,6.4
						c-0.9-0.4-1.7-0.8-2.5-1.3C361.2,82.8,359.6,80.1,359.6,77.4z"/>
				</defs>
				<clipPath id="SVGID_16_">
					<use xlink:href="#SVGID_15_"  style="overflow:visible;"/>
				</clipPath>
				<g class="st21">
					<path class="st3" d="M367,79.7l0,6.4c-0.9-0.4-1.7-0.8-2.5-1.3c-3.3-2.1-4.9-4.7-4.9-7.4l0-6.4c0,2.7,1.7,5.3,4.9,7.4
						C365.2,78.9,366.1,79.3,367,79.7"/>
				</g>
			</g>
			<g class="st1">
				<defs>
					<path id="SVGID_17_" class="st1" d="M396.6,71l0,6.4c-0.1,2.9-2.1,5.7-5.9,7.8c-3.9,2.2-9,3.2-14,3l0-6.4c5,0.2,10.1-0.8,14-3
						C394.5,76.7,396.5,73.9,396.6,71z"/>
				</defs>
				<clipPath id="SVGID_18_">
					<use xlink:href="#SVGID_17_"  style="overflow:visible;"/>
				</clipPath>
				<g class="st22">
					<path class="st5" d="M396.6,71l0,6.4c0,0.1,0,0.1,0,0.2l0-6.4C396.6,71.2,396.6,71.1,396.6,71"/>
					<path class="st6" d="M396.6,71.3l0,6.4c0,0.2-0.1,0.5-0.1,0.7l0-6.4C396.5,71.8,396.6,71.5,396.6,71.3"/>
					<path class="st7" d="M396.5,72l0,6.4c0,0.2-0.1,0.5-0.2,0.7l0-6.4C396.4,72.5,396.4,72.3,396.5,72"/>
					<path class="st8" d="M396.3,72.8l0,6.4c-0.1,0.3-0.2,0.5-0.3,0.8l0-6.4C396.1,73.3,396.2,73,396.3,72.8"/>
					<path class="st9" d="M396,73.5l0,6.4c-0.1,0.3-0.2,0.5-0.4,0.8l0-6.4C395.8,74,395.9,73.8,396,73.5"/>
					<path class="st10" d="M395.7,74.3l0,6.4c-0.2,0.3-0.3,0.6-0.5,0.8l0-6.4C395.3,74.8,395.5,74.6,395.7,74.3"/>
					<path class="st11" d="M395.1,75.1l0,6.4c-0.2,0.3-0.5,0.6-0.7,0.9l0-6.4C394.7,75.7,394.9,75.4,395.1,75.1"/>
					<path class="st12" d="M394.4,76l0,6.4c-0.3,0.4-0.7,0.7-1.1,1.1l0-6.4C393.7,76.7,394.1,76.4,394.4,76"/>
					<path class="st13" d="M393.3,77.1l0,6.4c-0.7,0.6-1.6,1.2-2.6,1.8c-1.3,0.7-2.8,1.3-4.3,1.8l0-6.4c1.5-0.5,3-1.1,4.3-1.8
						C391.7,78.3,392.5,77.7,393.3,77.1"/>
					<path class="st12" d="M386.3,80.7l0,6.4c-0.6,0.2-1.3,0.4-2,0.5l0-6.4C385,81,385.7,80.9,386.3,80.7"/>
					<path class="st11" d="M384.4,81.2l0,6.4c-0.5,0.1-1.1,0.2-1.6,0.3l0-6.4C383.3,81.4,383.8,81.3,384.4,81.2"/>
					<path class="st10" d="M382.8,81.5l0,6.4c-0.5,0.1-1,0.1-1.4,0.2l0-6.4C381.8,81.6,382.3,81.6,382.8,81.5"/>
					<path class="st9" d="M381.3,81.7l0,6.4c-0.4,0-0.9,0.1-1.4,0.1l0-6.4C380.4,81.8,380.9,81.7,381.3,81.7"/>
					<path class="st8" d="M380,81.8l0,6.4c-0.4,0-0.9,0-1.3,0.1l0-6.4C379.1,81.8,379.5,81.8,380,81.8"/>
					<path class="st7" d="M378.7,81.8l0,6.4c-0.4,0-0.8,0-1.3,0l0-6.4C377.8,81.9,378.2,81.9,378.7,81.8"/>
					<path class="st6" d="M377.4,81.8l0,6.4c-0.2,0-0.5,0-0.7,0l0-6.4C376.9,81.8,377.2,81.8,377.4,81.8"/>
				</g>
			</g>
			<g>
				<polygon class="st12" points="588.7,47.3 588.7,53.7 564.3,95.2 564.2,88.8 				"/>
			</g>
			<g class="st1">
				<defs>
					<path id="SVGID_19_" class="st1" d="M648.3,89.6l0,6.4c-1-0.4-2-0.9-2.8-1.5c-0.9-0.6-1.7-1.2-2.3-1.8l0-6.4
						c0.7,0.7,1.4,1.3,2.3,1.8C646.4,88.7,647.3,89.2,648.3,89.6z"/>
				</defs>
				<clipPath id="SVGID_20_">
					<use xlink:href="#SVGID_19_"  style="overflow:visible;"/>
				</clipPath>
				<g class="st23">
					<path class="st3" d="M648.3,89.6l0,6.4c-1-0.4-2-0.9-2.8-1.5c-0.9-0.6-1.7-1.2-2.3-1.8l0-6.4c0.7,0.7,1.4,1.3,2.3,1.8
						C646.4,88.7,647.3,89.2,648.3,89.6"/>
				</g>
			</g>
			<g class="st1">
				<defs>
					<path id="SVGID_21_" class="st1" d="M677.7,80.4l0,6.4c0,3-2,6-5.9,8.1c-3.8,2.1-8.7,3.1-13.6,3l0-6.4c4.8,0.1,9.7-0.8,13.6-3
						C675.7,86.4,677.7,83.4,677.7,80.4z"/>
				</defs>
				<clipPath id="SVGID_22_">
					<use xlink:href="#SVGID_21_"  style="overflow:visible;"/>
				</clipPath>
				<g class="st24">
					<path class="st5" d="M677.7,80.4l0,6.4c0,0.2,0,0.4,0,0.5l0-6.4C677.6,80.8,677.7,80.6,677.7,80.4"/>
					<path class="st6" d="M677.6,81l0,6.4c0,0.2-0.1,0.5-0.1,0.7l0-6.4C677.6,81.5,677.6,81.2,677.6,81"/>
					<path class="st7" d="M677.5,81.7l0,6.4c0,0.2-0.1,0.5-0.2,0.7l0-6.4C677.4,82.2,677.5,82,677.5,81.7"/>
					<path class="st8" d="M677.4,82.5l0,6.4c-0.1,0.3-0.2,0.5-0.3,0.8l0-6.4C677.2,83,677.3,82.7,677.4,82.5"/>
					<path class="st9" d="M677.1,83.2l0,6.4c-0.1,0.3-0.2,0.5-0.4,0.8l0-6.4C676.8,83.7,677,83.5,677.1,83.2"/>
					<path class="st10" d="M676.7,84l0,6.4c-0.2,0.3-0.3,0.6-0.5,0.8l0-6.4C676.4,84.5,676.5,84.3,676.7,84"/>
					<path class="st11" d="M676.2,84.8l0,6.4c-0.2,0.3-0.5,0.6-0.7,0.9l0-6.4C675.7,85.4,675.9,85.1,676.2,84.8"/>
					<path class="st12" d="M675.4,85.7l0,6.4c-0.3,0.4-0.7,0.7-1.1,1.1l0-6.4C674.7,86.5,675.1,86.1,675.4,85.7"/>
					<path class="st13" d="M674.3,86.8l0,6.4c-0.7,0.6-1.6,1.2-2.6,1.8c-1.3,0.7-2.8,1.3-4.3,1.8l0-6.4c1.5-0.5,3-1.1,4.3-1.8
						C672.7,88,673.6,87.4,674.3,86.8"/>
					<path class="st12" d="M667.4,90.4l0,6.4c-0.6,0.2-1.3,0.4-2,0.5l0-6.4C666.1,90.7,666.7,90.6,667.4,90.4"/>
					<path class="st11" d="M665.4,90.9l0,6.4c-0.5,0.1-1.1,0.2-1.6,0.3l0-6.4C664.3,91.1,664.9,91,665.4,90.9"/>
					<path class="st10" d="M663.8,91.2l0,6.4c-0.5,0.1-1,0.1-1.4,0.2l0-6.4C662.8,91.3,663.3,91.3,663.8,91.2"/>
					<path class="st9" d="M662.4,91.4l0,6.4c-0.5,0-0.9,0.1-1.4,0.1l0-6.4C661.4,91.5,661.9,91.4,662.4,91.4"/>
					<path class="st8" d="M661,91.5l0,6.4c-0.4,0-0.9,0-1.3,0.1l0-6.4C660.1,91.5,660.6,91.5,661,91.5"/>
					<path class="st7" d="M659.7,91.6l0,6.4c-0.4,0-0.8,0-1.3,0l0-6.4C658.8,91.6,659.3,91.6,659.7,91.6"/>
					<path class="st6" d="M658.4,91.6l0,6.4c-0.1,0-0.2,0-0.3,0l0-6.4C658.2,91.6,658.3,91.6,658.4,91.6"/>
				</g>
			</g>
			<g>
				<polygon class="st17" points="643.2,86.3 643.2,92.7 572,104.3 571.9,97.9 				"/>
			</g>
			<g>
				<polygon class="st12" points="482.9,64.6 483,71 458.4,112.5 458.4,106 				"/>
			</g>
			<g class="st1">
				<defs>
					<path id="SVGID_23_" class="st1" d="M542.6,106.8l0,6.4c-1-0.4-2-0.9-2.8-1.5c-0.9-0.6-1.6-1.1-2.3-1.8l0-6.4
						c0.6,0.6,1.4,1.2,2.3,1.8C540.7,105.9,541.6,106.4,542.6,106.8z"/>
				</defs>
				<clipPath id="SVGID_24_">
					<use xlink:href="#SVGID_23_"  style="overflow:visible;"/>
				</clipPath>
				<g class="st25">
					<path class="st3" d="M542.6,106.8l0,6.4c-1-0.4-2-0.9-2.8-1.5c-0.9-0.6-1.6-1.1-2.3-1.8l0-6.4c0.6,0.6,1.4,1.2,2.3,1.8
						C540.7,105.9,541.6,106.4,542.6,106.8"/>
				</g>
			</g>
			<g class="st1">
				<defs>
					<path id="SVGID_25_" class="st1" d="M571.9,97.9l0,6.4c-0.1,2.9-2.1,5.7-5.9,7.9c-3.8,2.1-8.7,3.1-13.6,3l0-6.4
						c4.8,0.1,9.7-0.9,13.6-3C569.8,103.6,571.8,100.8,571.9,97.9z"/>
				</defs>
				<clipPath id="SVGID_26_">
					<use xlink:href="#SVGID_25_"  style="overflow:visible;"/>
				</clipPath>
				<g class="st26">
					<path class="st5" d="M571.9,97.9l0,6.4c0,0.1,0,0.2,0,0.3l0-6.4C571.9,98.1,571.9,98,571.9,97.9"/>
					<path class="st6" d="M571.9,98.2l0,6.4c0,0.2-0.1,0.5-0.1,0.7l0-6.4C571.9,98.7,571.9,98.4,571.9,98.2"/>
					<path class="st7" d="M571.8,98.9l0,6.4c0,0.2-0.1,0.5-0.2,0.7l0-6.4C571.7,99.4,571.8,99.2,571.8,98.9"/>
					<path class="st8" d="M571.6,99.7l0,6.4c-0.1,0.3-0.2,0.5-0.3,0.8l0-6.4C571.5,100.2,571.6,99.9,571.6,99.7"/>
					<path class="st9" d="M571.4,100.4l0,6.4c-0.1,0.3-0.2,0.5-0.4,0.8l0-6.4C571.1,100.9,571.2,100.7,571.4,100.4"/>
					<path class="st10" d="M571,101.2l0,6.4c-0.2,0.3-0.3,0.6-0.5,0.8l0-6.4C570.6,101.7,570.8,101.5,571,101.2"/>
					<path class="st11" d="M570.4,102l0,6.4c-0.2,0.3-0.5,0.6-0.7,0.9l0-6.4C570,102.6,570.2,102.3,570.4,102"/>
					<path class="st12" d="M569.7,102.9l0,6.4c-0.3,0.4-0.7,0.7-1.1,1.1l0-6.4C569,103.6,569.4,103.3,569.7,102.9"/>
					<path class="st13" d="M568.6,104l0,6.4c-0.7,0.6-1.6,1.2-2.6,1.8c-1.3,0.7-2.8,1.3-4.4,1.8l0-6.4c1.6-0.5,3-1.1,4.4-1.8
						C567,105.2,567.9,104.6,568.6,104"/>
					<path class="st12" d="M561.7,107.6l0,6.4c-0.6,0.2-1.3,0.4-2,0.5l0-6.4C560.4,107.9,561,107.8,561.7,107.6"/>
					<path class="st11" d="M559.7,108.1l0,6.4c-0.5,0.1-1.1,0.2-1.6,0.3l0-6.4C558.6,108.3,559.2,108.2,559.7,108.1"/>
					<path class="st10" d="M558.1,108.4l0,6.4c-0.5,0.1-1,0.1-1.4,0.2l0-6.4C557.1,108.5,557.6,108.5,558.1,108.4"/>
					<path class="st9" d="M556.6,108.6l0,6.4c-0.5,0-0.9,0.1-1.4,0.1l0-6.4C555.7,108.7,556.2,108.6,556.6,108.6"/>
					<path class="st8" d="M555.3,108.7l0,6.4c-0.4,0-0.9,0-1.3,0.1l0-6.4C554.4,108.7,554.8,108.7,555.3,108.7"/>
					<path class="st7" d="M554,108.8l0,6.4c-0.4,0-0.8,0-1.3,0l0-6.4C553.1,108.8,553.6,108.8,554,108.8"/>
					<path class="st6" d="M552.7,108.8l0,6.4c-0.1,0-0.2,0-0.3,0l0-6.4C552.5,108.7,552.6,108.8,552.7,108.8"/>
				</g>
			</g>
			<g>
				<polygon class="st17" points="537.5,103.5 537.6,110 466.2,121.6 466.1,115.2 				"/>
			</g>
			<g class="st1">
				<defs>
					<path id="SVGID_27_" class="st1" d="M429.1,121.6l0-6.4c0,2.1,1,4.1,3,5.9l0,6.4C430.1,125.7,429.1,123.7,429.1,121.6z"/>
				</defs>
				<clipPath id="SVGID_28_">
					<use xlink:href="#SVGID_27_"  style="overflow:visible;"/>
				</clipPath>
				<g class="st27">
					<path class="st3" d="M432.1,121.1l0,6.4c-2-1.8-3-3.9-3-5.9l0-6.4C429.1,117.2,430.1,119.3,432.1,121.1"/>
				</g>
			</g>
			<g class="st1">
				<defs>
					<path id="SVGID_29_" class="st1" d="M466.1,115.2l0,6.4c-0.1,2.9-2.1,5.7-5.9,7.8c-5.5,3-13.1,3.7-19.6,2.2l0-6.4
						c6.5,1.5,14.1,0.8,19.6-2.2C464,120.9,466,118.1,466.1,115.2z"/>
				</defs>
				<clipPath id="SVGID_30_">
					<use xlink:href="#SVGID_29_"  style="overflow:visible;"/>
				</clipPath>
				<g class="st28">
					<path class="st5" d="M466.1,115.2l0,6.4c0,0.1,0,0.1,0,0.2l0-6.4C466.1,115.3,466.1,115.3,466.1,115.2"/>
					<path class="st6" d="M466.1,115.4l0,6.4c0,0.2-0.1,0.5-0.1,0.7l0-6.4C466.1,115.9,466.1,115.7,466.1,115.4"/>
					<path class="st7" d="M466,116.2l0,6.4c0,0.2-0.1,0.5-0.2,0.7l0-6.4C465.9,116.7,466,116.4,466,116.2"/>
					<path class="st8" d="M465.8,116.9l0,6.4c-0.1,0.3-0.2,0.5-0.3,0.8l0-6.4C465.7,117.4,465.7,117.2,465.8,116.9"/>
					<path class="st9" d="M465.5,117.7l0,6.4c-0.1,0.3-0.2,0.5-0.4,0.8l0-6.4C465.3,118.2,465.4,117.9,465.5,117.7"/>
					<path class="st10" d="M465.2,118.4l0,6.4c-0.2,0.3-0.3,0.6-0.5,0.8l0-6.4C464.8,119,465,118.7,465.2,118.4"/>
					<path class="st11" d="M464.6,119.3l0,6.4c-0.2,0.3-0.5,0.6-0.7,0.9l0-6.4C464.2,119.9,464.4,119.6,464.6,119.3"/>
					<path class="st12" d="M463.9,120.2l0,6.4c-0.3,0.4-0.7,0.7-1.1,1.1l0-6.4C463.2,120.9,463.6,120.5,463.9,120.2"/>
					<path class="st13" d="M462.8,121.3l0,6.4c-0.7,0.6-1.6,1.2-2.6,1.8c-1.3,0.7-2.8,1.3-4.3,1.8l0-6.4c1.5-0.5,3-1.1,4.3-1.8
						C461.2,122.5,462,121.9,462.8,121.3"/>
					<path class="st12" d="M455.8,124.8l0,6.4c-0.6,0.2-1.3,0.4-2,0.5l0-6.4C454.5,125.2,455.2,125,455.8,124.8"/>
					<path class="st11" d="M453.9,125.3l0,6.4c-0.5,0.1-1.1,0.2-1.6,0.3l0-6.4C452.8,125.6,453.4,125.4,453.9,125.3"/>
					<path class="st10" d="M452.3,125.6l0,6.4c-0.5,0.1-1,0.1-1.5,0.2l0-6.4C451.3,125.8,451.8,125.7,452.3,125.6"/>
					<path class="st9" d="M450.8,125.8l0,6.4c-0.4,0-0.9,0.1-1.3,0.1l0-6.4C449.9,125.9,450.4,125.9,450.8,125.8"/>
					<path class="st8" d="M449.5,125.9l0,6.4c-0.4,0-0.9,0-1.3,0.1l0-6.4C448.6,126,449,126,449.5,125.9"/>
					<path class="st7" d="M448.2,126l0,6.4c-0.4,0-0.8,0-1.3,0l0-6.4C447.3,126,447.8,126,448.2,126"/>
					<path class="st6" d="M446.9,126l0,6.4c-0.4,0-0.8,0-1.2,0l0-6.4C446.1,126,446.5,126,446.9,126"/>
					<path class="st5" d="M445.7,126l0,6.4c-0.4,0-0.8-0.1-1.3-0.1l0-6.4C444.8,125.9,445.2,125.9,445.7,126"/>
					<path class="st29" d="M444.4,125.9l0,6.4c-0.4,0-0.8-0.1-1.3-0.2l0-6.4C443.6,125.8,444,125.8,444.4,125.9"/>
					<path class="st30" d="M443.1,125.7l0,6.4c-0.4-0.1-0.9-0.1-1.3-0.2l0-6.4C442.3,125.6,442.7,125.6,443.1,125.7"/>
					<path class="st31" d="M441.8,125.5l0,6.4c-0.4-0.1-0.8-0.2-1.2-0.3l0-6.4C441,125.3,441.4,125.4,441.8,125.5"/>
				</g>
			</g>
			<g>
				<polygon class="st12" points="376.7,81.8 376.7,88.3 346.2,139.2 346.1,132.8 				"/>
			</g>
			<g>
				<polygon class="st12" points="658.2,91.6 658.2,98 633.7,139.4 633.7,132.9 				"/>
			</g>
			<g>
				<polygon class="st12" points="440.6,125.2 440.7,131.7 431.2,147.8 431.2,141.4 				"/>
			</g>
			<g>
				<polygon class="st12" points="552.4,108.7 552.5,115.2 527.9,156.7 527.9,150.3 				"/>
			</g>
			<g class="st1">
				<defs>
					<path id="SVGID_31_" class="st1" d="M612.1,150.9l0,6.4c-1-0.4-1.9-0.9-2.8-1.4c-0.9-0.6-1.6-1.2-2.3-1.8l0-6.4
						c0.6,0.6,1.4,1.2,2.3,1.8C610.2,150,611.1,150.5,612.1,150.9z"/>
				</defs>
				<clipPath id="SVGID_32_">
					<use xlink:href="#SVGID_31_"  style="overflow:visible;"/>
				</clipPath>
				<g class="st32">
					<path class="st3" d="M612.1,150.9l0,6.4c-1-0.4-1.9-0.9-2.8-1.4c-0.9-0.6-1.6-1.2-2.3-1.8l0-6.4c0.6,0.6,1.4,1.2,2.3,1.8
						C610.2,150,611.1,150.5,612.1,150.9"/>
				</g>
			</g>
			<g class="st1">
				<defs>
					<path id="SVGID_33_" class="st1" d="M278.9,154.4l0,6.4c-12.3-7.8-33-8.2-46.3-0.8l0-6.4C245.8,146.2,266.6,146.6,278.9,154.4z
						"/>
				</defs>
				<clipPath id="SVGID_34_">
					<use xlink:href="#SVGID_33_"  style="overflow:visible;"/>
				</clipPath>
				<g class="st33">
					<path class="st3" d="M278.9,154.4l0,6.4c-1.7-1.1-3.6-2-5.5-2.8l0-6.4C275.3,152.3,277.2,153.3,278.9,154.4"/>
					<path class="st34" d="M273.3,151.6l0,6.4c-1-0.4-2.1-0.8-3.2-1.1l0-6.4C271.2,150.8,272.3,151.1,273.3,151.6"/>
					<path class="st35" d="M270.2,150.4l0,6.4c-0.9-0.3-1.8-0.5-2.7-0.7l0-6.4C268.4,149.9,269.3,150.2,270.2,150.4"/>
					<path class="st31" d="M267.5,149.7l0,6.4c-0.8-0.2-1.6-0.4-2.4-0.5l0-6.4C265.9,149.3,266.7,149.5,267.5,149.7"/>
					<path class="st30" d="M265.1,149.2l0,6.4c-0.8-0.1-1.5-0.3-2.3-0.4l0-6.4C263.5,148.9,264.3,149,265.1,149.2"/>
					<path class="st29" d="M262.8,148.8l0,6.4c-0.7-0.1-1.5-0.2-2.2-0.3l0-6.4C261.3,148.6,262,148.7,262.8,148.8"/>
					<path class="st5" d="M260.5,148.5l0,6.4c-0.7-0.1-1.5-0.1-2.2-0.2l0-6.4C259,148.4,259.8,148.5,260.5,148.5"/>
					<path class="st6" d="M258.3,148.4l0,6.4c-0.7,0-1.5-0.1-2.2-0.1l0-6.4C256.8,148.3,257.6,148.3,258.3,148.4"/>
					<path class="st7" d="M256.1,148.3l0,6.4c-0.7,0-1.5,0-2.2,0l0-6.4C254.6,148.3,255.3,148.3,256.1,148.3"/>
					<path class="st8" d="M253.8,148.3l0,6.4c-0.8,0-1.5,0.1-2.3,0.1l0-6.4C252.3,148.3,253.1,148.3,253.8,148.3"/>
					<path class="st9" d="M251.5,148.4l0,6.4c-0.8,0.1-1.6,0.1-2.4,0.2l0-6.4C249.9,148.5,250.7,148.4,251.5,148.4"/>
					<path class="st10" d="M249.1,148.6l0,6.4c-0.9,0.1-1.7,0.2-2.6,0.3l0-6.4C247.4,148.8,248.3,148.7,249.1,148.6"/>
					<path class="st11" d="M246.6,148.9l0,6.4c-1,0.2-1.9,0.3-2.8,0.5l0-6.4C244.7,149.3,245.6,149.1,246.6,148.9"/>
					<path class="st12" d="M243.7,149.5l0,6.4c-1.2,0.3-2.4,0.6-3.5,0.9l0-6.4C241.4,150,242.5,149.7,243.7,149.5"/>
					<path class="st13" d="M240.2,150.4l0,6.4c-2.7,0.8-5.3,1.9-7.6,3.2l0-6.4C234.9,152.2,237.5,151.2,240.2,150.4"/>
				</g>
			</g>
			<g class="st1">
				<defs>
					<path id="SVGID_35_" class="st1" d="M641.5,141.8l0,6.4c0,3-2,5.9-5.9,8.1c-3.8,2.1-8.8,3.1-13.6,3l0-6.4
						c4.8,0.1,9.8-0.8,13.6-3C639.5,147.7,641.5,144.8,641.5,141.8z"/>
				</defs>
				<clipPath id="SVGID_36_">
					<use xlink:href="#SVGID_35_"  style="overflow:visible;"/>
				</clipPath>
				<g class="st36">
					<path class="st5" d="M641.5,141.8l0,6.4c0,0.2,0,0.4,0,0.5l0-6.4C641.5,142.1,641.5,142,641.5,141.8"/>
					<path class="st6" d="M641.4,142.3l0,6.4c0,0.2-0.1,0.5-0.1,0.7l0-6.4C641.4,142.8,641.4,142.6,641.4,142.3"/>
					<path class="st7" d="M641.3,143.1l0,6.4c0,0.2-0.1,0.5-0.2,0.7l0-6.4C641.2,143.6,641.3,143.3,641.3,143.1"/>
					<path class="st8" d="M641.2,143.8l0,6.4c-0.1,0.3-0.2,0.5-0.3,0.8l0-6.4C641,144.3,641.1,144.1,641.2,143.8"/>
					<path class="st9" d="M640.9,144.6l0,6.4c-0.1,0.3-0.2,0.5-0.4,0.8l0-6.4C640.6,145.1,640.8,144.8,640.9,144.6"/>
					<path class="st10" d="M640.5,145.3l0,6.4c-0.2,0.3-0.3,0.6-0.5,0.8l0-6.4C640.2,145.9,640.3,145.6,640.5,145.3"/>
					<path class="st11" d="M640,146.2l0,6.4c-0.2,0.3-0.5,0.6-0.7,0.9l0-6.4C639.5,146.8,639.8,146.5,640,146.2"/>
					<path class="st12" d="M639.2,147.1l0,6.4c-0.3,0.4-0.7,0.7-1.1,1.1l0-6.4C638.5,147.8,638.9,147.4,639.2,147.1"/>
					<path class="st13" d="M638.1,148.2l0,6.4c-0.7,0.6-1.6,1.2-2.6,1.8c-1.3,0.7-2.8,1.3-4.3,1.8l0-6.4c1.5-0.5,3-1.1,4.3-1.8
						C636.5,149.4,637.4,148.8,638.1,148.2"/>
					<path class="st12" d="M631.2,151.7l0,6.4c-0.6,0.2-1.3,0.4-2,0.5l0-6.4C629.9,152.1,630.5,151.9,631.2,151.7"/>
					<path class="st11" d="M629.2,152.2l0,6.4c-0.5,0.1-1.1,0.2-1.6,0.3l0-6.4C628.1,152.5,628.7,152.4,629.2,152.2"/>
					<path class="st10" d="M627.6,152.5l0,6.4c-0.5,0.1-1,0.1-1.5,0.2l0-6.4C626.6,152.7,627.1,152.6,627.6,152.5"/>
					<path class="st9" d="M626.1,152.7l0,6.4c-0.5,0-0.9,0.1-1.4,0.1l0-6.4C625.2,152.8,625.7,152.8,626.1,152.7"/>
					<path class="st8" d="M624.8,152.9l0,6.4c-0.4,0-0.9,0-1.3,0.1l0-6.4C623.9,152.9,624.3,152.9,624.8,152.9"/>
					<path class="st7" d="M623.5,152.9l0,6.4c-0.4,0-0.9,0-1.3,0l0-6.4C622.6,152.9,623,152.9,623.5,152.9"/>
					<path class="st6" d="M622.2,152.9l0,6.4c-0.1,0-0.2,0-0.3,0l0-6.4C622,152.9,622.1,152.9,622.2,152.9"/>
				</g>
			</g>
			<g>
				<polygon class="st37" points="346.1,132.8 346.2,139.2 301.9,163.8 301.9,157.3 				"/>
			</g>
			<g>
				<polygon class="st38" points="285,158.3 285.1,164.7 278.9,160.8 278.9,154.4 				"/>
			</g>
			<g>
				<polygon class="st17" points="607,147.7 607.1,154.1 535.7,165.8 535.6,159.4 				"/>
			</g>
			<g>
				<polygon class="st37" points="431.2,141.4 431.2,147.8 392,169.4 391.9,163 				"/>
			</g>
			<g class="st1">
				<defs>
					<path id="SVGID_37_" class="st1" d="M498.6,165.9l0-6.4c0,1.7,0.7,3.4,2,4.9l0,6.4C499.3,169.2,498.6,167.6,498.6,165.9z"/>
				</defs>
				<clipPath id="SVGID_38_">
					<use xlink:href="#SVGID_37_"  style="overflow:visible;"/>
				</clipPath>
				<g class="st39">
					<path class="st3" d="M500.6,164.3l0,6.4c-1.3-1.5-2-3.2-2-4.9l0-6.4C498.6,161.1,499.2,162.8,500.6,164.3"/>
				</g>
			</g>
			<g>
				<polygon class="st37" points="292.1,162.8 292.1,169.2 279.6,176.1 279.5,169.7 				"/>
			</g>
			<g class="st1">
				<defs>
					<path id="SVGID_39_" class="st1" d="M535.6,159.4l0,6.4c-0.1,2.9-2,5.8-5.9,7.9c-5.7,3.2-13.8,3.8-20.4,2l0-6.4
						c6.6,1.8,14.7,1.2,20.4-2C533.6,165.2,535.5,162.3,535.6,159.4z"/>
				</defs>
				<clipPath id="SVGID_40_">
					<use xlink:href="#SVGID_39_"  style="overflow:visible;"/>
				</clipPath>
				<g class="st40">
					<path class="st5" d="M535.6,159.4l0,6.4c0,0.1,0,0.2,0,0.3l0-6.4C535.6,159.6,535.6,159.5,535.6,159.4"/>
					<path class="st6" d="M535.6,159.7l0,6.4c0,0.2-0.1,0.5-0.1,0.7l0-6.4C535.5,160.2,535.6,160,535.6,159.7"/>
					<path class="st7" d="M535.5,160.4l0,6.4c0,0.2-0.1,0.5-0.2,0.7l0-6.4C535.4,160.9,535.5,160.7,535.5,160.4"/>
					<path class="st8" d="M535.3,161.2l0,6.4c-0.1,0.3-0.2,0.5-0.3,0.8l0-6.4C535.1,161.7,535.2,161.4,535.3,161.2"/>
					<path class="st9" d="M535,161.9l0,6.4c-0.1,0.3-0.2,0.5-0.4,0.8l0-6.4C534.8,162.5,534.9,162.2,535,161.9"/>
					<path class="st10" d="M534.7,162.7l0,6.4c-0.2,0.3-0.3,0.6-0.5,0.8l0-6.4C534.3,163.3,534.5,163,534.7,162.7"/>
					<path class="st11" d="M534.1,163.5l0,6.4c-0.2,0.3-0.5,0.6-0.7,0.9l0-6.4C533.7,164.2,533.9,163.9,534.1,163.5"/>
					<path class="st12" d="M533.4,164.5l0,6.4c-0.3,0.4-0.7,0.7-1.1,1.1l0-6.4C532.7,165.2,533.1,164.8,533.4,164.5"/>
					<path class="st13" d="M532.3,165.5l0,6.4c-0.7,0.6-1.6,1.2-2.6,1.8c-1.3,0.7-2.8,1.3-4.3,1.8l0-6.4c1.5-0.5,3-1.1,4.3-1.8
						C530.7,166.8,531.5,166.2,532.3,165.5"/>
					<path class="st12" d="M525.4,169.1l0,6.4c-0.6,0.2-1.3,0.4-2,0.5l0-6.4C524.1,169.5,524.7,169.3,525.4,169.1"/>
					<path class="st11" d="M523.4,169.6l0,6.4c-0.5,0.1-1.1,0.2-1.6,0.3l0-6.4C522.3,169.8,522.9,169.7,523.4,169.6"/>
					<path class="st10" d="M521.8,169.9l0,6.4c-0.5,0.1-1,0.1-1.4,0.2l0-6.4C520.8,170.1,521.3,170,521.8,169.9"/>
					<path class="st9" d="M520.3,170.1l0,6.4c-0.5,0-0.9,0.1-1.4,0.1l0-6.4C519.4,170.2,519.9,170.2,520.3,170.1"/>
					<path class="st8" d="M519,170.2l0,6.4c-0.4,0-0.9,0-1.3,0.1l0-6.4C518.1,170.3,518.5,170.3,519,170.2"/>
					<path class="st7" d="M517.7,170.3l0,6.4c-0.4,0-0.8,0-1.3,0l0-6.4C516.8,170.3,517.2,170.3,517.7,170.3"/>
					<path class="st6" d="M516.4,170.3l0,6.4c-0.4,0-0.8,0-1.3,0l0-6.4C515.6,170.3,516,170.3,516.4,170.3"/>
					<path class="st5" d="M515.1,170.2l0,6.4c-0.4,0-0.8-0.1-1.3-0.1l0-6.4C514.3,170.2,514.7,170.2,515.1,170.2"/>
					<path class="st29" d="M513.9,170.1l0,6.4c-0.4,0-0.8-0.1-1.3-0.2l0-6.4C513,170,513.5,170.1,513.9,170.1"/>
					<path class="st30" d="M512.6,170l0,6.4c-0.4-0.1-0.9-0.1-1.3-0.2l0-6.4C511.8,169.9,512.2,169.9,512.6,170"/>
					<path class="st31" d="M511.3,169.8l0,6.4c-0.5-0.1-0.9-0.2-1.4-0.3l0-6.4C510.4,169.6,510.9,169.7,511.3,169.8"/>
					<path class="st35" d="M509.9,169.5l0,6.4c-0.2-0.1-0.5-0.1-0.7-0.2l0-6.4C509.5,169.4,509.7,169.4,509.9,169.5"/>
				</g>
			</g>
			<g>
				<polygon class="st17" points="509.3,169.3 509.3,175.7 475.6,181.2 475.5,174.8 				"/>
			</g>
			<g>
				<polygon class="st37" points="391.9,163 392,169.4 348.6,193.4 348.6,187 				"/>
			</g>
			<g>
				<polygon class="st41" points="279.5,169.7 279.6,176.1 271.7,194.6 271.6,188.2 				"/>
			</g>
			<g>
				<polygon class="st38" points="331.7,188 331.8,194.4 292.1,169.2 292.1,162.8 				"/>
			</g>
			<g>
				<polygon class="st12" points="621.9,152.9 621.9,159.3 597.4,200.9 597.4,194.4 				"/>
			</g>
			<g>
				<polygon class="st37" points="271.6,188.2 271.7,194.6 251.8,205.4 251.8,199 				"/>
			</g>
			<g class="st1">
				<defs>
					<path id="SVGID_41_" class="st1" d="M245.7,205.4l0,6.4c0-1.9-1.2-3.8-3.6-5.3l0-6.4C244.5,201.5,245.7,203.5,245.7,205.4z"/>
				</defs>
				<clipPath id="SVGID_42_">
					<use xlink:href="#SVGID_41_"  style="overflow:visible;"/>
				</clipPath>
				<g class="st42">
					<path class="st3" d="M245.7,205.4l0,6.4c0-1.9-1.2-3.8-3.6-5.3l0-6.4C244.5,201.5,245.7,203.5,245.7,205.4"/>
				</g>
			</g>
			<g class="st1">
				<defs>
					<path id="SVGID_43_" class="st1" d="M219.1,212l0-6.4c0-2.1,1.4-4.3,4.3-5.9c5.4-3,13.9-2.8,18.9,0.3l0,6.4
						c-5-3.2-13.5-3.3-18.9-0.3C220.5,207.7,219.1,209.9,219.1,212z"/>
				</defs>
				<clipPath id="SVGID_44_">
					<use xlink:href="#SVGID_43_"  style="overflow:visible;"/>
				</clipPath>
				<g class="st43">
					<path class="st3" d="M242.2,200l0,6.4c-0.7-0.4-1.4-0.8-2.3-1.1l0-6.4C240.7,199.2,241.5,199.6,242.2,200"/>
					<path class="st34" d="M239.9,198.9l0,6.4c-0.4-0.2-0.8-0.3-1.3-0.5l0-6.4C239.1,198.6,239.5,198.7,239.9,198.9"/>
					<path class="st35" d="M238.6,198.4l0,6.4c-0.4-0.1-0.7-0.2-1.1-0.3l0-6.4C237.9,198.2,238.3,198.3,238.6,198.4"/>
					<path class="st31" d="M237.5,198.2l0,6.4c-0.3-0.1-0.7-0.2-1-0.2l0-6.4C236.9,198,237.2,198.1,237.5,198.2"/>
					<path class="st30" d="M236.5,197.9l0,6.4c-0.3-0.1-0.6-0.1-0.9-0.2l0-6.4C235.9,197.8,236.2,197.9,236.5,197.9"/>
					<path class="st29" d="M235.6,197.8l0,6.4c-0.3,0-0.6-0.1-0.9-0.1l0-6.4C235,197.7,235.3,197.7,235.6,197.8"/>
					<path class="st5" d="M234.7,197.7l0,6.4c-0.3,0-0.6-0.1-0.9-0.1l0-6.4C234.1,197.6,234.4,197.6,234.7,197.7"/>
					<path class="st6" d="M233.8,197.6l0,6.4c-0.3,0-0.6,0-0.9,0l0-6.4C233.2,197.6,233.5,197.6,233.8,197.6"/>
					<path class="st7" d="M232.9,197.6l0,6.4c-0.3,0-0.6,0-0.9,0l0-6.4C232.3,197.6,232.6,197.6,232.9,197.6"/>
					<path class="st8" d="M232,197.6l0,6.4c-0.3,0-0.6,0-0.9,0l0-6.4C231.3,197.6,231.7,197.6,232,197.6"/>
					<path class="st9" d="M231,197.6l0,6.4c-0.3,0-0.7,0-1,0.1l0-6.4C230.4,197.7,230.7,197.6,231,197.6"/>
					<path class="st10" d="M230,197.7l0,6.4c-0.4,0-0.7,0.1-1,0.1l0-6.4C229.3,197.8,229.7,197.7,230,197.7"/>
					<path class="st11" d="M229,197.8l0,6.4c-0.4,0.1-0.8,0.1-1.2,0.2l0-6.4C228.2,198,228.6,197.9,229,197.8"/>
					<path class="st12" d="M227.8,198l0,6.4c-0.5,0.1-1,0.2-1.4,0.4l0-6.4C226.9,198.3,227.4,198.2,227.8,198"/>
					<path class="st13" d="M226.4,198.4l0,6.4c-1.1,0.3-2.1,0.8-3.1,1.3c-0.7,0.4-1.3,0.8-1.8,1.3l0-6.4c0.5-0.4,1.1-0.9,1.8-1.3
						C224.2,199.2,225.3,198.8,226.4,198.4"/>
					<path class="st12" d="M221.4,201l0,6.4c-0.3,0.3-0.6,0.5-0.8,0.8l0-6.4C220.9,201.5,221.1,201.2,221.4,201"/>
					<path class="st11" d="M220.6,201.8l0,6.4c-0.2,0.2-0.4,0.4-0.5,0.6l0-6.4C220.3,202.2,220.4,202,220.6,201.8"/>
					<path class="st10" d="M220.1,202.4l0,6.4c-0.1,0.2-0.3,0.4-0.4,0.6l0-6.4C219.8,202.8,220,202.6,220.1,202.4"/>
					<path class="st9" d="M219.7,203l0,6.4c-0.1,0.2-0.2,0.4-0.3,0.6l0-6.4C219.5,203.4,219.6,203.2,219.7,203"/>
					<path class="st8" d="M219.4,203.6l0,6.4c-0.1,0.2-0.1,0.4-0.2,0.5l0-6.4C219.3,203.9,219.4,203.8,219.4,203.6"/>
					<path class="st7" d="M219.2,204.1l0,6.4c-0.1,0.2-0.1,0.4-0.1,0.5l0-6.4C219.1,204.5,219.2,204.3,219.2,204.1"/>
					<path class="st6" d="M219.1,204.7l0,6.4c0,0.2-0.1,0.4-0.1,0.5l0-6.4C219.1,205,219.1,204.8,219.1,204.7"/>
					<path class="st5" d="M219,205.2l0,6.4c0,0.1,0,0.3,0,0.4l0-6.4C219,205.4,219,205.3,219,205.2"/>
				</g>
			</g>
			<g class="st1">
				<defs>
					<path id="SVGID_45_" class="st1" d="M568.1,210l0-6.4c0,1.1,0.3,2.2,0.9,3.3l0,6.4C568.4,212.2,568.1,211.1,568.1,210z"/>
				</defs>
				<clipPath id="SVGID_46_">
					<use xlink:href="#SVGID_45_"  style="overflow:visible;"/>
				</clipPath>
				<g class="st44">
					<path class="st3" d="M568.9,206.8l0,6.4c-0.6-1.1-0.8-2.2-0.9-3.3l0-6.4C568.1,204.7,568.4,205.8,568.9,206.8"/>
				</g>
			</g>
			<g class="st1">
				<defs>
					<path id="SVGID_47_" class="st1" d="M605.1,203.3l0,6.4c0,3-2,5.9-5.9,8.1c-6.8,3.7-16.9,3.9-24,0.7l0-6.4c7,3.2,17.2,3,24-0.7
						C603.2,209.3,605.2,206.3,605.1,203.3z"/>
				</defs>
				<clipPath id="SVGID_48_">
					<use xlink:href="#SVGID_47_"  style="overflow:visible;"/>
				</clipPath>
				<g class="st45">
					<path class="st5" d="M605.1,203.3l0,6.4c0,0.2,0,0.4,0,0.5l0-6.4C605.1,203.7,605.1,203.5,605.1,203.3"/>
					<path class="st6" d="M605.1,203.8l0,6.4c0,0.2-0.1,0.5-0.1,0.7l0-6.4C605.1,204.3,605.1,204.1,605.1,203.8"/>
					<path class="st7" d="M605,204.6l0,6.4c0,0.2-0.1,0.5-0.2,0.7l0-6.4C604.9,205.1,605,204.8,605,204.6"/>
					<path class="st8" d="M604.8,205.3l0,6.4c-0.1,0.3-0.2,0.5-0.3,0.8l0-6.4C604.7,205.8,604.8,205.6,604.8,205.3"/>
					<path class="st9" d="M604.6,206.1l0,6.4c-0.1,0.3-0.2,0.5-0.4,0.8l0-6.4C604.3,206.6,604.5,206.3,604.6,206.1"/>
					<path class="st10" d="M604.2,206.9l0,6.4c-0.2,0.3-0.3,0.6-0.5,0.8l0-6.4C603.9,207.4,604,207.1,604.2,206.9"/>
					<path class="st11" d="M603.7,207.7l0,6.4c-0.2,0.3-0.5,0.6-0.7,0.9l0-6.4C603.2,208.3,603.4,208,603.7,207.7"/>
					<path class="st12" d="M602.9,208.6l0,6.4c-0.3,0.4-0.7,0.7-1.1,1.1l0-6.4C602.2,209.3,602.6,209,602.9,208.6"/>
					<path class="st13" d="M601.8,209.7l0,6.4c-0.7,0.6-1.6,1.2-2.6,1.8c-1.3,0.7-2.8,1.3-4.4,1.8l0-6.4c1.6-0.5,3-1.1,4.4-1.8
						C600.2,210.9,601,210.3,601.8,209.7"/>
					<path class="st12" d="M594.9,213.3l0,6.4c-0.6,0.2-1.3,0.4-1.9,0.5l0-6.4C593.6,213.6,594.2,213.5,594.9,213.3"/>
					<path class="st11" d="M592.9,213.8l0,6.4c-0.5,0.1-1.1,0.2-1.6,0.3l0-6.4C591.8,214,592.4,213.9,592.9,213.8"/>
					<path class="st10" d="M591.3,214.1l0,6.4c-0.5,0.1-1,0.1-1.5,0.2l0-6.4C590.3,214.2,590.8,214.1,591.3,214.1"/>
					<path class="st9" d="M589.8,214.3l0,6.4c-0.4,0-0.9,0.1-1.4,0.1l0-6.4C588.9,214.4,589.4,214.3,589.8,214.3"/>
					<path class="st8" d="M588.5,214.4l0,6.4c-0.4,0-0.9,0-1.3,0.1l0-6.4C587.6,214.4,588,214.4,588.5,214.4"/>
					<path class="st7" d="M587.2,214.4l0,6.4c-0.4,0-0.8,0-1.3,0l0-6.4C586.3,214.4,586.8,214.4,587.2,214.4"/>
					<path class="st6" d="M585.9,214.4l0,6.4c-0.4,0-0.8,0-1.2,0l0-6.4C585.1,214.4,585.5,214.4,585.9,214.4"/>
					<path class="st5" d="M584.7,214.4l0,6.4c-0.4,0-0.8-0.1-1.2-0.1l0-6.4C583.8,214.3,584.2,214.4,584.7,214.4"/>
					<path class="st29" d="M583.4,214.3l0,6.4c-0.4,0-0.8-0.1-1.3-0.2l0-6.4C582.6,214.2,583,214.3,583.4,214.3"/>
					<path class="st30" d="M582.2,214.1l0,6.4c-0.4-0.1-0.9-0.1-1.3-0.2l0-6.4C581.3,214,581.7,214.1,582.2,214.1"/>
					<path class="st31" d="M580.8,213.9l0,6.4c-0.5-0.1-0.9-0.2-1.4-0.3l0-6.4C579.9,213.7,580.4,213.8,580.8,213.9"/>
					<path class="st35" d="M579.5,213.6l0,6.4c-0.5-0.1-1-0.3-1.5-0.4l0-6.4C578.4,213.4,578.9,213.5,579.5,213.6"/>
					<path class="st34" d="M577.9,213.2l0,6.4c-0.6-0.2-1.2-0.4-1.8-0.6l0-6.4C576.7,212.8,577.3,213,577.9,213.2"/>
					<path class="st3" d="M576.2,212.6l0,6.4c-0.3-0.1-0.6-0.3-0.9-0.4l0-6.4C575.5,212.3,575.9,212.5,576.2,212.6"/>
				</g>
			</g>
			<g>
				<polygon class="st37" points="475.5,174.8 475.6,181.2 397.5,224.5 397.5,218.1 				"/>
			</g>
			<g>
				<polygon class="st38" points="380.6,219 380.7,225.4 338.8,198.9 338.8,192.4 				"/>
			</g>
			<g class="st1">
				<defs>
					<path id="SVGID_49_" class="st1" d="M254.6,205.3l0,6.4c0,3.6-2.4,7.1-7.1,9.8c-9,5-23.1,4.7-31.4-0.6
						c-3.9-2.5-5.9-5.7-5.9-8.9l0-6.4c0,3.2,2,6.4,5.9,8.9c8.3,5.3,22.4,5.5,31.4,0.6C252.2,212.5,254.6,208.9,254.6,205.3z"/>
				</defs>
				<clipPath id="SVGID_50_">
					<use xlink:href="#SVGID_49_"  style="overflow:visible;"/>
				</clipPath>
				<g class="st46">
					<path class="st5" d="M254.6,205.3l0,6.4c0,0.2,0,0.4,0,0.6l0-6.4C254.6,205.8,254.6,205.5,254.6,205.3"/>
					<path class="st6" d="M254.6,206l0,6.4c0,0.3-0.1,0.6-0.1,0.9l0-6.4C254.5,206.6,254.6,206.3,254.6,206"/>
					<path class="st7" d="M254.5,206.9l0,6.4c-0.1,0.3-0.1,0.6-0.2,0.9l0-6.4C254.3,207.5,254.4,207.2,254.5,206.9"/>
					<path class="st8" d="M254.2,207.8l0,6.4c-0.1,0.3-0.2,0.6-0.3,0.9l0-6.4C254,208.4,254.1,208.1,254.2,207.8"/>
					<path class="st9" d="M253.9,208.7l0,6.4c-0.1,0.3-0.3,0.6-0.5,0.9l0-6.4C253.6,209.3,253.8,209,253.9,208.7"/>
					<path class="st10" d="M253.4,209.6l0,6.4c-0.2,0.3-0.4,0.7-0.6,1l0-6.4C253.1,210.3,253.3,209.9,253.4,209.6"/>
					<path class="st11" d="M252.8,210.6l0,6.4c-0.3,0.4-0.6,0.7-0.9,1.1l0-6.4C252.3,211.3,252.6,210.9,252.8,210.6"/>
					<path class="st12" d="M251.9,211.7l0,6.4c-0.4,0.4-0.8,0.9-1.3,1.3l0-6.4C251.1,212.5,251.5,212.1,251.9,211.7"/>
					<path class="st13" d="M250.6,213l0,6.4c-0.9,0.8-1.9,1.5-3.1,2.1c-1.6,0.9-3.3,1.6-5.2,2.2l0-6.4c1.8-0.6,3.6-1.3,5.2-2.2
						C248.7,214.4,249.7,213.7,250.6,213"/>
					<path class="st12" d="M242.3,217.2l0,6.4c-0.8,0.2-1.6,0.4-2.4,0.6l0-6.4C240.7,217.7,241.5,217.5,242.3,217.2"/>
					<path class="st11" d="M239.9,217.9l0,6.4c-0.6,0.1-1.3,0.3-1.9,0.4l0-6.4C238.6,218.1,239.3,218,239.9,217.9"/>
					<path class="st10" d="M238,218.2l0,6.4c-0.6,0.1-1.2,0.2-1.7,0.2l0-6.4C236.8,218.4,237.4,218.3,238,218.2"/>
					<path class="st9" d="M236.2,218.4l0,6.4c-0.5,0.1-1.1,0.1-1.6,0.1l0-6.4C235.1,218.6,235.7,218.5,236.2,218.4"/>
					<path class="st8" d="M234.6,218.6l0,6.4c-0.5,0-1,0.1-1.6,0.1l0-6.4C233.6,218.6,234.1,218.6,234.6,218.6"/>
					<path class="st7" d="M233,218.7l0,6.4c-0.5,0-1,0-1.5,0l0-6.4C232,218.7,232.5,218.7,233,218.7"/>
					<path class="st6" d="M231.5,218.7l0,6.4c-0.5,0-1,0-1.5-0.1l0-6.4C230.5,218.6,231,218.7,231.5,218.7"/>
					<path class="st5" d="M230,218.6l0,6.4c-0.5,0-1-0.1-1.5-0.1l0-6.4C229,218.5,229.5,218.6,230,218.6"/>
					<path class="st29" d="M228.5,218.5l0,6.4c-0.5-0.1-1-0.1-1.5-0.2l0-6.4C227.5,218.4,228,218.4,228.5,218.5"/>
					<path class="st30" d="M227,218.3l0,6.4c-0.5-0.1-1.1-0.2-1.6-0.3l0-6.4C225.9,218.1,226.5,218.2,227,218.3"/>
					<path class="st31" d="M225.4,218l0,6.4c-0.6-0.1-1.1-0.2-1.7-0.4l0-6.4C224.3,217.8,224.9,217.9,225.4,218"/>
					<path class="st35" d="M223.8,217.7l0,6.4c-0.6-0.1-1.2-0.3-1.8-0.5l0-6.4C222.5,217.4,223.1,217.5,223.8,217.7"/>
					<path class="st34" d="M222,217.2l0,6.4c-0.7-0.2-1.5-0.5-2.2-0.8l0-6.4C220.5,216.7,221.2,217,222,217.2"/>
					<path class="st3" d="M219.8,216.4l0,6.4c-1.3-0.5-2.6-1.2-3.8-1.9c-3.9-2.5-5.9-5.7-5.9-8.9l0-6.4c0,3.2,2,6.4,5.9,8.9
						C217.2,215.3,218.5,215.9,219.8,216.4"/>
				</g>
			</g>
			<g>
				<polygon class="st17" points="575.2,212.2 575.3,218.6 489,232.2 488.9,225.8 				"/>
			</g>
			<g>
				<polygon class="st37" points="338.8,192.4 338.8,198.9 250.8,247.7 250.7,241.2 				"/>
			</g>
			<g>
				<polygon class="st37" points="232.6,153.5 232.6,160 64.9,253 64.8,246.5 				"/>
			</g>
			<g>
				<polygon class="st37" points="488.9,225.8 489,232.2 446.6,255.7 446.5,249.2 				"/>
			</g>
			<g>
				<polygon class="st37" points="387.7,223.5 387.7,229.9 338.8,257.1 338.7,250.6 				"/>
			</g>
			<g>
				<polygon class="st38" points="429.7,250.2 429.7,256.6 387.7,229.9 387.7,223.5 				"/>
			</g>
			<g class="st1">
				<defs>
					<path id="SVGID_51_" class="st1" d="M332.7,257.1l0,6.4c0-1.9-1.2-3.8-3.6-5.3l0-6.4C331.5,253.2,332.7,255.1,332.7,257.1z"/>
				</defs>
				<clipPath id="SVGID_52_">
					<use xlink:href="#SVGID_51_"  style="overflow:visible;"/>
				</clipPath>
				<g class="st47">
					<path class="st3" d="M332.7,257.1l0,6.4c0-1.9-1.2-3.8-3.6-5.3l0-6.4C331.5,253.2,332.7,255.1,332.7,257.1"/>
				</g>
			</g>
			<g class="st1">
				<defs>
					<path id="SVGID_53_" class="st1" d="M306,263.7l0-6.4c0-2.1,1.4-4.3,4.3-5.9c5.4-3,13.9-2.8,18.9,0.3l0,6.4
						c-5-3.2-13.5-3.3-18.9-0.3C307.5,259.4,306,261.6,306,263.7z"/>
				</defs>
				<clipPath id="SVGID_54_">
					<use xlink:href="#SVGID_53_"  style="overflow:visible;"/>
				</clipPath>
				<g class="st48">
					<path class="st3" d="M329.1,251.7l0,6.4c-0.7-0.4-1.4-0.8-2.3-1.1l0-6.4C327.7,250.9,328.4,251.3,329.1,251.7"/>
					<path class="st34" d="M326.9,250.6l0,6.4c-0.4-0.2-0.8-0.3-1.3-0.5l0-6.4C326,250.3,326.5,250.4,326.9,250.6"/>
					<path class="st35" d="M325.6,250.1l0,6.4c-0.4-0.1-0.7-0.2-1.1-0.3l0-6.4C324.9,249.9,325.2,250,325.6,250.1"/>
					<path class="st31" d="M324.5,249.8l0,6.4c-0.3-0.1-0.7-0.2-1-0.2l0-6.4C323.9,249.7,324.2,249.8,324.5,249.8"/>
					<path class="st30" d="M323.5,249.6l0,6.4c-0.3-0.1-0.6-0.1-0.9-0.2l0-6.4C322.9,249.5,323.2,249.6,323.5,249.6"/>
					<path class="st29" d="M322.6,249.5l0,6.4c-0.3,0-0.6-0.1-0.9-0.1l0-6.4C322,249.4,322.3,249.4,322.6,249.5"/>
					<path class="st5" d="M321.7,249.4l0,6.4c-0.3,0-0.6-0.1-0.9-0.1l0-6.4C321.1,249.3,321.4,249.3,321.7,249.4"/>
					<path class="st6" d="M320.8,249.3l0,6.4c-0.3,0-0.6,0-0.9,0l0-6.4C320.2,249.3,320.5,249.3,320.8,249.3"/>
					<path class="st7" d="M319.9,249.3l0,6.4c-0.3,0-0.6,0-0.9,0l0-6.4C319.2,249.3,319.6,249.3,319.9,249.3"/>
					<path class="st8" d="M318.9,249.3l0,6.4c-0.3,0-0.6,0-0.9,0l0-6.4C318.3,249.3,318.6,249.3,318.9,249.3"/>
					<path class="st9" d="M318,249.3l0,6.4c-0.3,0-0.7,0-1,0.1l0-6.4C317.3,249.3,317.7,249.3,318,249.3"/>
					<path class="st10" d="M317,249.4l0,6.4c-0.4,0-0.7,0.1-1,0.1l0-6.4C316.3,249.5,316.7,249.4,317,249.4"/>
					<path class="st11" d="M316,249.5l0,6.4c-0.4,0.1-0.8,0.1-1.2,0.2l0-6.4C315.2,249.7,315.6,249.6,316,249.5"/>
					<path class="st12" d="M314.8,249.7l0,6.4c-0.5,0.1-1,0.2-1.4,0.4l0-6.4C313.8,250,314.3,249.8,314.8,249.7"/>
					<path class="st13" d="M313.4,250.1l0,6.4c-1.1,0.3-2.2,0.8-3.1,1.3c-0.7,0.4-1.3,0.8-1.9,1.3l0-6.4c0.5-0.4,1.1-0.9,1.9-1.3
						C311.2,250.9,312.3,250.4,313.4,250.1"/>
					<path class="st12" d="M308.4,252.7l0,6.4c-0.3,0.3-0.6,0.5-0.8,0.8l0-6.4C307.8,253.2,308.1,252.9,308.4,252.7"/>
					<path class="st11" d="M307.6,253.5l0,6.4c-0.2,0.2-0.4,0.4-0.5,0.6l0-6.4C307.2,253.9,307.4,253.7,307.6,253.5"/>
					<path class="st10" d="M307.1,254.1l0,6.4c-0.1,0.2-0.3,0.4-0.4,0.6l0-6.4C306.8,254.5,306.9,254.3,307.1,254.1"/>
					<path class="st9" d="M306.7,254.7l0,6.4c-0.1,0.2-0.2,0.4-0.3,0.6l0-6.4C306.5,255.1,306.6,254.9,306.7,254.7"/>
					<path class="st8" d="M306.4,255.3l0,6.4c-0.1,0.2-0.1,0.4-0.2,0.5l0-6.4C306.3,255.6,306.3,255.4,306.4,255.3"/>
					<path class="st7" d="M306.2,255.8l0,6.4c-0.1,0.2-0.1,0.4-0.1,0.5l0-6.4C306.1,256.2,306.2,256,306.2,255.8"/>
					<path class="st6" d="M306.1,256.3l0,6.4c0,0.2-0.1,0.4-0.1,0.5l0-6.4C306,256.7,306,256.5,306.1,256.3"/>
					<path class="st5" d="M306,256.9l0,6.4c0,0.1,0,0.3,0,0.4l0-6.4C306,257.1,306,257,306,256.9"/>
				</g>
			</g>
			<g>
				<polygon class="st38" points="440,256.7 440.1,263.2 436.8,261.1 436.7,254.7 				"/>
			</g>
			<g class="st1">
				<defs>
					<path id="SVGID_55_" class="st1" d="M54.4,267.4l0-6.4c0-5.2,3.5-10.5,10.5-14.4l0,6.4C57.9,256.8,54.4,262.1,54.4,267.4z"/>
				</defs>
				<clipPath id="SVGID_56_">
					<use xlink:href="#SVGID_55_"  style="overflow:visible;"/>
				</clipPath>
				<g class="st49">
					<path class="st13" d="M64.8,246.5l0,6.4c-1.7,1-3.2,2-4.5,3.1l0-6.4C61.6,248.5,63.1,247.5,64.8,246.5"/>
					<path class="st12" d="M60.3,249.6l0,6.4c-0.7,0.6-1.4,1.3-2,1.9l0-6.4C58.9,250.9,59.5,250.3,60.3,249.6"/>
					<path class="st11" d="M58.3,251.6l0,6.4c-0.5,0.5-0.9,1.1-1.3,1.6l0-6.4C57.4,252.6,57.8,252.1,58.3,251.6"/>
					<path class="st10" d="M57,253.2l0,6.4c-0.3,0.5-0.7,1-0.9,1.5l0-6.4C56.3,254.1,56.6,253.6,57,253.2"/>
					<path class="st9" d="M56.1,254.6l0,6.4c-0.3,0.5-0.5,0.9-0.7,1.4l0-6.4C55.6,255.5,55.8,255.1,56.1,254.6"/>
					<path class="st8" d="M55.4,256l0,6.4c-0.2,0.4-0.4,0.9-0.5,1.3l0-6.4C55,256.9,55.2,256.4,55.4,256"/>
					<path class="st7" d="M54.9,257.3l0,6.4c-0.1,0.4-0.2,0.9-0.3,1.3l0-6.4C54.6,258.2,54.7,257.8,54.9,257.3"/>
					<path class="st6" d="M54.6,258.6l0,6.4c-0.1,0.4-0.1,0.9-0.2,1.3l0-6.4C54.4,259.5,54.5,259.1,54.6,258.6"/>
					<path class="st5" d="M54.4,260l0,6.4c0,0.3,0,0.6,0,1l0-6.4C54.4,260.6,54.4,260.3,54.4,260"/>
				</g>
			</g>
			<g>
				<polygon class="st50" points="250.7,241.2 250.8,247.7 246.3,268.7 246.2,262.2 				"/>
			</g>
			<g class="st1">
				<defs>
					<path id="SVGID_57_" class="st1" d="M448.6,269.8l0,6.4c0-4.7-2.9-9.4-8.6-13l0-6.4C445.8,260.4,448.6,265.1,448.6,269.8z"/>
				</defs>
				<clipPath id="SVGID_58_">
					<use xlink:href="#SVGID_57_"  style="overflow:visible;"/>
				</clipPath>
				<g class="st51">
					<path class="st3" d="M448.6,269.8l0,6.4c0-4.7-2.9-9.4-8.6-13l0-6.4C445.8,260.4,448.6,265.1,448.6,269.8"/>
				</g>
			</g>
			<g class="st1">
				<defs>
					<path id="SVGID_59_" class="st1" d="M341.6,257l0,6.4c0,3.6-2.4,7.1-7.1,9.8c-9,5-23.1,4.7-31.4-0.6c-3.9-2.5-5.9-5.7-5.9-8.9
						l0-6.4c0,3.2,2,6.4,5.9,8.9c8.3,5.3,22.4,5.5,31.4,0.6C339.2,264.1,341.6,260.6,341.6,257z"/>
				</defs>
				<clipPath id="SVGID_60_">
					<use xlink:href="#SVGID_59_"  style="overflow:visible;"/>
				</clipPath>
				<g class="st52">
					<path class="st5" d="M341.6,257l0,6.4c0,0.2,0,0.4,0,0.6l0-6.4C341.6,257.4,341.6,257.2,341.6,257"/>
					<path class="st6" d="M341.5,257.7l0,6.4c0,0.3-0.1,0.6-0.1,0.9l0-6.4C341.5,258.3,341.5,258,341.5,257.7"/>
					<path class="st7" d="M341.4,258.6l0,6.4c-0.1,0.3-0.1,0.6-0.2,0.9l0-6.4C341.3,259.1,341.4,258.8,341.4,258.6"/>
					<path class="st8" d="M341.2,259.4l0,6.4c-0.1,0.3-0.2,0.6-0.3,0.9l0-6.4C341,260,341.1,259.7,341.2,259.4"/>
					<path class="st9" d="M340.9,260.3l0,6.4c-0.1,0.3-0.3,0.6-0.5,0.9l0-6.4C340.6,261,340.7,260.7,340.9,260.3"/>
					<path class="st10" d="M340.4,261.3l0,6.4c-0.2,0.3-0.4,0.7-0.6,1l0-6.4C340,261.9,340.2,261.6,340.4,261.3"/>
					<path class="st11" d="M339.8,262.3l0,6.4c-0.3,0.4-0.6,0.7-0.9,1.1l0-6.4C339.2,263,339.5,262.6,339.8,262.3"/>
					<path class="st12" d="M338.9,263.4l0,6.4c-0.4,0.4-0.8,0.9-1.3,1.3l0-6.4C338.1,264.2,338.5,263.8,338.9,263.4"/>
					<path class="st13" d="M337.6,264.6l0,6.4c-0.9,0.8-1.9,1.5-3.1,2.1c-1.6,0.9-3.3,1.6-5.2,2.1l0-6.4c1.8-0.6,3.6-1.3,5.2-2.1
						C335.6,266.1,336.7,265.4,337.6,264.6"/>
					<path class="st12" d="M329.3,268.9l0,6.4c-0.8,0.2-1.6,0.4-2.4,0.6l0-6.4C327.7,269.4,328.5,269.2,329.3,268.9"/>
					<path class="st11" d="M326.9,269.5l0,6.4c-0.6,0.1-1.3,0.3-1.9,0.4l0-6.4C325.6,269.8,326.2,269.7,326.9,269.5"/>
					<path class="st10" d="M325,269.9l0,6.4c-0.6,0.1-1.2,0.2-1.7,0.2l0-6.4C323.8,270.1,324.4,270,325,269.9"/>
					<path class="st9" d="M323.2,270.1l0,6.4c-0.5,0.1-1.1,0.1-1.6,0.1l0-6.4C322.1,270.2,322.7,270.2,323.2,270.1"/>
					<path class="st8" d="M321.6,270.3l0,6.4c-0.5,0-1,0.1-1.6,0.1l0-6.4C320.5,270.3,321.1,270.3,321.6,270.3"/>
					<path class="st7" d="M320,270.3l0,6.4c-0.5,0-1,0-1.5,0l0-6.4C319,270.4,319.5,270.4,320,270.3"/>
					<path class="st6" d="M318.5,270.4l0,6.4c-0.5,0-1,0-1.5-0.1l0-6.4C317.5,270.3,318,270.3,318.5,270.4"/>
					<path class="st5" d="M317,270.3l0,6.4c-0.5,0-1-0.1-1.5-0.1l0-6.4C316,270.2,316.5,270.3,317,270.3"/>
					<path class="st29" d="M315.5,270.2l0,6.4c-0.5-0.1-1-0.1-1.5-0.2l0-6.4C314.5,270.1,315,270.1,315.5,270.2"/>
					<path class="st30" d="M314,270l0,6.4c-0.5-0.1-1.1-0.2-1.6-0.3l0-6.4C312.9,269.8,313.4,269.9,314,270"/>
					<path class="st31" d="M312.4,269.7l0,6.4c-0.6-0.1-1.1-0.2-1.7-0.4l0-6.4C311.3,269.5,311.8,269.6,312.4,269.7"/>
					<path class="st35" d="M310.7,269.4l0,6.4c-0.6-0.1-1.2-0.3-1.8-0.5l0-6.4C309.5,269.1,310.1,269.2,310.7,269.4"/>
					<path class="st34" d="M308.9,268.9l0,6.4c-0.7-0.2-1.5-0.5-2.2-0.8l0-6.4C307.5,268.4,308.2,268.7,308.9,268.9"/>
					<path class="st3" d="M306.8,268.1l0,6.4c-1.3-0.5-2.6-1.2-3.8-1.9c-3.9-2.5-5.9-5.7-5.9-8.9l0-6.4c0,3.2,2,6.4,5.9,8.9
						C304.2,266.9,305.4,267.6,306.8,268.1"/>
				</g>
			</g>
			<g class="st1">
				<defs>
					<path id="SVGID_61_" class="st1" d="M41.1,267.5l0-6.4c0,6.6,4.1,13.2,12.3,18.4l0,6.4C45.2,280.7,41.1,274.1,41.1,267.5z"/>
				</defs>
				<clipPath id="SVGID_62_">
					<use xlink:href="#SVGID_61_"  style="overflow:visible;"/>
				</clipPath>
				<g class="st53">
					<path class="st3" d="M53.3,279.4l0,6.4c-8.2-5.2-12.2-11.8-12.3-18.4l0-6.4C41.1,267.6,45.1,274.2,53.3,279.4"/>
				</g>
			</g>
			<g>
				<polygon class="st38" points="56.2,281.2 56.2,287.7 53.3,285.8 53.3,279.4 				"/>
			</g>
			<g>
				<polygon class="st37" points="246.2,262.2 246.3,268.7 208.1,289.8 208.1,283.4 				"/>
			</g>
			<g>
				<polygon class="st37" points="436.7,254.7 436.8,261.1 384,290.3 384,283.9 				"/>
			</g>
			<g class="st1">
				<defs>
					<path id="SVGID_63_" class="st1" d="M462,269.7l0,6.4c0,6.5-3.8,13-11.3,18.2l0-6.4C458.2,282.7,462,276.2,462,269.7z"/>
				</defs>
				<clipPath id="SVGID_64_">
					<use xlink:href="#SVGID_63_"  style="overflow:visible;"/>
				</clipPath>
				<g class="st54">
					<path class="st5" d="M462,269.7l0,6.4c0,0.4,0,0.9,0,1.3l0-6.4C462,270.6,462,270.1,462,269.7"/>
					<path class="st6" d="M461.9,271l0,6.4c0,0.6-0.1,1.2-0.2,1.9l0-6.4C461.8,272.3,461.9,271.6,461.9,271"/>
					<path class="st7" d="M461.7,272.9l0,6.4c-0.1,0.6-0.3,1.2-0.5,1.9l0-6.4C461.4,274.1,461.6,273.5,461.7,272.9"/>
					<path class="st8" d="M461.2,274.7l0,6.4c-0.2,0.6-0.4,1.3-0.7,1.9l0-6.4C460.8,276,461,275.4,461.2,274.7"/>
					<path class="st9" d="M460.5,276.6l0,6.4c-0.3,0.7-0.6,1.3-1,1.9l0-6.4C459.9,277.9,460.2,277.3,460.5,276.6"/>
					<path class="st10" d="M459.6,278.6l0,6.4c-0.4,0.7-0.8,1.4-1.3,2l0-6.4C458.7,279.9,459.2,279.3,459.6,278.6"/>
					<path class="st11" d="M458.3,280.6l0,6.4c-0.5,0.8-1.1,1.5-1.8,2.2l0-6.4C457.1,282.1,457.7,281.4,458.3,280.6"/>
					<path class="st12" d="M456.5,282.8l0,6.4c-0.8,0.9-1.8,1.9-2.8,2.7l0-6.4C454.7,284.7,455.6,283.8,456.5,282.8"/>
					<path class="st13" d="M453.6,285.6l0,6.4c-0.9,0.8-1.9,1.5-3,2.3l0-6.4C451.7,287.1,452.7,286.4,453.6,285.6"/>
				</g>
			</g>
			<g class="st1">
				<defs>
					<path id="SVGID_65_" class="st1" d="M202,289.8l0,6.4c0-1.9-1.2-3.8-3.5-5.3l0-6.4C200.8,286,202,287.9,202,289.8z"/>
				</defs>
				<clipPath id="SVGID_66_">
					<use xlink:href="#SVGID_65_"  style="overflow:visible;"/>
				</clipPath>
				<g class="st55">
					<path class="st3" d="M202,289.8l0,6.4c0-1.9-1.2-3.8-3.5-5.3l0-6.4C200.8,286,202,287.9,202,289.8"/>
				</g>
			</g>
			<g class="st1">
				<defs>
					<path id="SVGID_67_" class="st1" d="M175.4,296.5l0-6.4c0-2.1,1.4-4.3,4.3-5.9c5.4-3,13.9-2.8,18.9,0.3l0,6.4
						c-5-3.2-13.5-3.3-18.9-0.3C176.8,292.2,175.4,294.3,175.4,296.5z"/>
				</defs>
				<clipPath id="SVGID_68_">
					<use xlink:href="#SVGID_67_"  style="overflow:visible;"/>
				</clipPath>
				<g class="st56">
					<path class="st3" d="M198.5,284.5l0,6.4c-0.7-0.4-1.4-0.8-2.3-1.1l0-6.4C197,283.7,197.8,284.1,198.5,284.5"/>
					<path class="st34" d="M196.2,283.4l0,6.4c-0.4-0.2-0.8-0.3-1.3-0.5l0-6.4C195.4,283,195.8,283.2,196.2,283.4"/>
					<path class="st35" d="M194.9,282.9l0,6.4c-0.4-0.1-0.7-0.2-1.1-0.3l0-6.4C194.2,282.7,194.6,282.8,194.9,282.9"/>
					<path class="st31" d="M193.9,282.6l0,6.4c-0.3-0.1-0.7-0.2-1-0.2l0-6.4C193.2,282.5,193.5,282.5,193.9,282.6"/>
					<path class="st30" d="M192.9,282.4l0,6.4c-0.3-0.1-0.6-0.1-0.9-0.2l0-6.4C192.2,282.3,192.6,282.3,192.9,282.4"/>
					<path class="st29" d="M191.9,282.2l0,6.4c-0.3,0-0.6-0.1-0.9-0.1l0-6.4C191.3,282.2,191.6,282.2,191.9,282.2"/>
					<path class="st5" d="M191,282.1l0,6.4c-0.3,0-0.6-0.1-0.9-0.1l0-6.4C190.4,282.1,190.7,282.1,191,282.1"/>
					<path class="st6" d="M190.1,282.1l0,6.4c-0.3,0-0.6,0-0.9,0l0-6.4C189.5,282,189.8,282,190.1,282.1"/>
					<path class="st7" d="M189.2,282l0,6.4c-0.3,0-0.6,0-0.9,0l0-6.4C188.6,282,188.9,282,189.2,282"/>
					<path class="st8" d="M188.3,282l0,6.4c-0.3,0-0.6,0-0.9,0l0-6.4C187.7,282,188,282,188.3,282"/>
					<path class="st9" d="M187.3,282.1l0,6.4c-0.3,0-0.7,0-1,0.1l0-6.4C186.7,282.1,187,282.1,187.3,282.1"/>
					<path class="st10" d="M186.4,282.1l0,6.4c-0.4,0-0.7,0.1-1,0.1l0-6.4C185.7,282.2,186,282.2,186.4,282.1"/>
					<path class="st11" d="M185.3,282.3l0,6.4c-0.4,0.1-0.8,0.1-1.2,0.2l0-6.4C184.5,282.4,184.9,282.4,185.3,282.3"/>
					<path class="st12" d="M184.2,282.5l0,6.4c-0.5,0.1-1,0.2-1.4,0.4l0-6.4C183.2,282.7,183.7,282.6,184.2,282.5"/>
					<path class="st13" d="M182.7,282.9l0,6.4c-1.1,0.3-2.1,0.8-3.1,1.3c-0.7,0.4-1.3,0.8-1.8,1.3l0-6.4c0.5-0.4,1.1-0.9,1.8-1.3
						C180.6,283.6,181.6,283.2,182.7,282.9"/>
					<path class="st12" d="M177.8,285.4l0,6.4c-0.3,0.3-0.6,0.5-0.8,0.8l0-6.4C177.2,286,177.5,285.7,177.8,285.4"/>
					<path class="st11" d="M176.9,286.2l0,6.4c-0.2,0.2-0.4,0.4-0.5,0.6l0-6.4C176.6,286.7,176.7,286.4,176.9,286.2"/>
					<path class="st10" d="M176.4,286.9l0,6.4c-0.1,0.2-0.3,0.4-0.4,0.6l0-6.4C176.1,287.3,176.3,287.1,176.4,286.9"/>
					<path class="st9" d="M176,287.5l0,6.4c-0.1,0.2-0.2,0.4-0.3,0.6l0-6.4C175.8,287.8,175.9,287.7,176,287.5"/>
					<path class="st8" d="M175.8,288l0,6.4c-0.1,0.2-0.1,0.4-0.2,0.5l0-6.4C175.6,288.4,175.7,288.2,175.8,288"/>
					<path class="st7" d="M175.6,288.6l0,6.4c-0.1,0.2-0.1,0.4-0.1,0.5l0-6.4C175.5,288.9,175.5,288.8,175.6,288.6"/>
					<path class="st6" d="M175.4,289.1l0,6.4c0,0.2-0.1,0.4-0.1,0.5l0-6.4C175.4,289.5,175.4,289.3,175.4,289.1"/>
					<path class="st5" d="M175.4,289.6l0,6.4c0,0.1,0,0.3,0,0.4l0-6.4C175.3,289.9,175.3,289.8,175.4,289.6"/>
				</g>
			</g>
			<g>
				<polygon class="st14" points="384,283.9 384,290.3 347.6,295.7 347.5,289.2 				"/>
			</g>
			<g class="st1">
				<defs>
					<path id="SVGID_69_" class="st1" d="M210.9,289.8l0,6.4c0,3.6-2.4,7.1-7.1,9.8c-9,5-23.1,4.7-31.4-0.6
						c-3.9-2.5-5.9-5.7-5.9-8.9l0-6.4c0,3.2,2,6.4,5.9,8.9c8.3,5.3,22.4,5.5,31.4,0.6C208.6,296.9,210.9,293.3,210.9,289.8z"/>
				</defs>
				<clipPath id="SVGID_70_">
					<use xlink:href="#SVGID_69_"  style="overflow:visible;"/>
				</clipPath>
				<g class="st57">
					<path class="st5" d="M210.9,289.8l0,6.4c0,0.2,0,0.4,0,0.6l0-6.4C210.9,290.2,210.9,290,210.9,289.8"/>
					<path class="st6" d="M210.9,290.4l0,6.4c0,0.3-0.1,0.6-0.1,0.9l0-6.4C210.8,291,210.9,290.7,210.9,290.4"/>
					<path class="st7" d="M210.8,291.3l0,6.4c-0.1,0.3-0.1,0.6-0.2,0.9l0-6.4C210.6,291.9,210.7,291.6,210.8,291.3"/>
					<path class="st8" d="M210.6,292.2l0,6.4c-0.1,0.3-0.2,0.6-0.3,0.9l0-6.4C210.3,292.8,210.5,292.5,210.6,292.2"/>
					<path class="st9" d="M210.2,293.1l0,6.4c-0.1,0.3-0.3,0.6-0.5,0.9l0-6.4C209.9,293.7,210.1,293.4,210.2,293.1"/>
					<path class="st10" d="M209.8,294l0,6.4c-0.2,0.3-0.4,0.7-0.6,1l0-6.4C209.4,294.7,209.6,294.4,209.8,294"/>
					<path class="st11" d="M209.1,295l0,6.4c-0.3,0.4-0.6,0.7-0.9,1.1l0-6.4C208.6,295.8,208.9,295.4,209.1,295"/>
					<path class="st12" d="M208.3,296.1l0,6.4c-0.4,0.4-0.8,0.9-1.3,1.3l0-6.4C207.4,297,207.9,296.6,208.3,296.1"/>
					<path class="st13" d="M206.9,297.4l0,6.4c-0.9,0.8-1.9,1.5-3.1,2.1c-1.6,0.9-3.3,1.6-5.2,2.1l0-6.4c1.8-0.6,3.6-1.3,5.2-2.1
						C205,298.9,206,298.2,206.9,297.4"/>
					<path class="st12" d="M198.6,301.7l0,6.4c-0.8,0.2-1.6,0.4-2.4,0.6l0-6.4C197,302.1,197.8,301.9,198.6,301.7"/>
					<path class="st11" d="M196.2,302.3l0,6.4c-0.6,0.1-1.3,0.3-1.9,0.4l0-6.4C194.9,302.6,195.6,302.4,196.2,302.3"/>
					<path class="st10" d="M194.3,302.7l0,6.4c-0.6,0.1-1.2,0.2-1.7,0.2l0-6.4C193.1,302.8,193.7,302.8,194.3,302.7"/>
					<path class="st9" d="M192.6,302.9l0,6.4c-0.5,0.1-1.1,0.1-1.6,0.1l0-6.4C191.5,303,192,303,192.6,302.9"/>
					<path class="st8" d="M190.9,303l0,6.4c-0.5,0-1,0.1-1.6,0.1l0-6.4C189.9,303.1,190.4,303.1,190.9,303"/>
					<path class="st7" d="M189.4,303.1l0,6.4c-0.5,0-1,0-1.5,0l0-6.4C188.3,303.1,188.8,303.1,189.4,303.1"/>
					<path class="st6" d="M187.8,303.1l0,6.4c-0.5,0-1,0-1.5-0.1l0-6.4C186.8,303.1,187.3,303.1,187.8,303.1"/>
					<path class="st5" d="M186.3,303.1l0,6.4c-0.5,0-1-0.1-1.5-0.1l0-6.4C185.3,303,185.8,303,186.3,303.1"/>
					<path class="st29" d="M184.8,302.9l0,6.4c-0.5-0.1-1-0.1-1.5-0.2l0-6.4C183.8,302.8,184.3,302.9,184.8,302.9"/>
					<path class="st30" d="M183.3,302.8l0,6.4c-0.5-0.1-1.1-0.2-1.6-0.3l0-6.4C182.2,302.6,182.8,302.7,183.3,302.8"/>
					<path class="st31" d="M181.7,302.5l0,6.4c-0.6-0.1-1.1-0.2-1.7-0.4l0-6.4C180.6,302.3,181.2,302.4,181.7,302.5"/>
					<path class="st35" d="M180.1,302.1l0,6.4c-0.6-0.1-1.2-0.3-1.8-0.5l0-6.4C178.9,301.8,179.5,302,180.1,302.1"/>
					<path class="st34" d="M178.3,301.6l0,6.4c-0.7-0.2-1.5-0.5-2.2-0.8l0-6.4C176.8,301.2,177.5,301.4,178.3,301.6"/>
					<path class="st3" d="M176.1,300.9l0,6.4c-1.3-0.5-2.6-1.2-3.8-1.9c-3.9-2.5-5.9-5.7-5.9-8.9l0-6.4c0,3.2,2,6.4,5.9,8.9
						C173.5,299.7,174.8,300.3,176.1,300.9"/>
				</g>
			</g>
			<g>
				<polygon class="st38" points="27.9,307.7 28,314.1 18.9,308.4 18.9,301.9 				"/>
			</g>
			<g>
				<polygon class="st37" points="65.2,287 65.3,293.4 28,314.1 27.9,307.7 				"/>
			</g>
			<g>
				<polygon class="st37" points="347.5,289.2 347.6,295.7 315.4,313.5 315.3,307.1 				"/>
			</g>
			<g>
				<polygon class="st38" points="307.6,309.8 307.7,316.2 303.3,313.4 303.2,307 				"/>
			</g>
			<g>
				<polygon class="st38" points="105.1,312.4 105.2,318.8 65.3,293.4 65.2,287 				"/>
			</g>
			<g class="st1">
				<defs>
					<path id="SVGID_71_" class="st1" d="M282.6,320.2l0-6.4c0-2.1,1.4-4.3,4.3-5.9c4.6-2.5,11.4-2.8,16.4-0.9l0,6.4
						c-5-1.9-11.8-1.7-16.4,0.9C284.1,315.9,282.6,318,282.6,320.2z"/>
				</defs>
				<clipPath id="SVGID_72_">
					<use xlink:href="#SVGID_71_"  style="overflow:visible;"/>
				</clipPath>
				<g class="st58">
					<path class="st34" d="M303.2,307l0,6.4c-0.3-0.1-0.7-0.3-1.1-0.4l0-6.4C302.5,306.7,302.9,306.9,303.2,307"/>
					<path class="st35" d="M302.2,306.6l0,6.4c-0.4-0.1-0.7-0.2-1.1-0.3l0-6.4C301.5,306.4,301.8,306.5,302.2,306.6"/>
					<path class="st31" d="M301.1,306.3l0,6.4c-0.3-0.1-0.7-0.2-1-0.2l0-6.4C300.4,306.2,300.8,306.2,301.1,306.3"/>
					<path class="st30" d="M300.1,306.1l0,6.4c-0.3-0.1-0.6-0.1-0.9-0.2l0-6.4C299.5,306,299.8,306,300.1,306.1"/>
					<path class="st29" d="M299.1,305.9l0,6.4c-0.3,0-0.6-0.1-0.9-0.1l0-6.4C298.5,305.9,298.8,305.9,299.1,305.9"/>
					<path class="st5" d="M298.2,305.8l0,6.4c-0.3,0-0.6-0.1-0.9-0.1l0-6.4C297.6,305.8,297.9,305.8,298.2,305.8"/>
					<path class="st6" d="M297.3,305.8l0,6.4c-0.3,0-0.6,0-0.9,0l0-6.4C296.7,305.7,297,305.7,297.3,305.8"/>
					<path class="st7" d="M296.4,305.7l0,6.4c-0.3,0-0.6,0-0.9,0l0-6.4C295.8,305.7,296.1,305.7,296.4,305.7"/>
					<path class="st8" d="M295.5,305.7l0,6.4c-0.3,0-0.6,0-0.9,0l0-6.4C294.9,305.8,295.2,305.7,295.5,305.7"/>
					<path class="st9" d="M294.6,305.8l0,6.4c-0.3,0-0.7,0-1,0.1l0-6.4C293.9,305.8,294.2,305.8,294.6,305.8"/>
					<path class="st10" d="M293.6,305.9l0,6.4c-0.3,0-0.7,0.1-1,0.1l0-6.4C292.9,305.9,293.2,305.9,293.6,305.9"/>
					<path class="st11" d="M292.5,306l0,6.4c-0.4,0.1-0.8,0.1-1.2,0.2l0-6.4C291.8,306.1,292.2,306.1,292.5,306"/>
					<path class="st12" d="M291.4,306.2l0,6.4c-0.5,0.1-1,0.2-1.4,0.4l0-6.4C290.4,306.4,290.9,306.3,291.4,306.2"/>
					<path class="st13" d="M290,306.6l0,6.4c-1.1,0.3-2.2,0.8-3.1,1.3c-0.7,0.4-1.3,0.8-1.8,1.3l0-6.4c0.5-0.4,1.1-0.9,1.8-1.3
						C287.8,307.3,288.9,306.9,290,306.6"/>
					<path class="st12" d="M285,309.1l0,6.4c-0.3,0.3-0.6,0.5-0.8,0.8l0-6.4C284.4,309.7,284.7,309.4,285,309.1"/>
					<path class="st11" d="M284.2,309.9l0,6.4c-0.2,0.2-0.4,0.4-0.5,0.6l0-6.4C283.8,310.4,284,310.1,284.2,309.9"/>
					<path class="st10" d="M283.7,310.6l0,6.4c-0.1,0.2-0.3,0.4-0.4,0.6l0-6.4C283.4,311,283.5,310.8,283.7,310.6"/>
					<path class="st9" d="M283.3,311.2l0,6.4c-0.1,0.2-0.2,0.4-0.3,0.6l0-6.4C283.1,311.5,283.2,311.4,283.3,311.2"/>
					<path class="st8" d="M283,311.7l0,6.4c-0.1,0.2-0.1,0.4-0.2,0.5l0-6.4C282.9,312.1,282.9,311.9,283,311.7"/>
					<path class="st7" d="M282.8,312.3l0,6.4c-0.1,0.2-0.1,0.4-0.1,0.5l0-6.4C282.7,312.6,282.7,312.5,282.8,312.3"/>
					<path class="st6" d="M282.7,312.8l0,6.4c0,0.2-0.1,0.4-0.1,0.5l0-6.4C282.6,313.2,282.6,313,282.7,312.8"/>
					<path class="st5" d="M282.6,313.3l0,6.4c0,0.1,0,0.3,0,0.4l0-6.4C282.6,313.6,282.6,313.5,282.6,313.3"/>
				</g>
			</g>
			<g class="st1">
				<defs>
					<path id="SVGID_73_" class="st1" d="M309.3,313.5l0,6.4c0-1.3-0.6-2.6-1.7-3.8l0-6.4C308.7,310.9,309.3,312.2,309.3,313.5z"/>
				</defs>
				<clipPath id="SVGID_74_">
					<use xlink:href="#SVGID_73_"  style="overflow:visible;"/>
				</clipPath>
				<g class="st59">
					<path class="st3" d="M309.3,313.5l0,6.4c0-1.3-0.6-2.6-1.7-3.8l0-6.4C308.7,310.9,309.3,312.2,309.3,313.5"/>
				</g>
			</g>
			<g>
				<polygon class="st38" points="475.1,315 475.1,321.5 441.1,299.8 441,293.4 				"/>
			</g>
			<g>
				<polygon class="st37" points="484.9,309.6 484.9,316.1 475.1,321.5 475.1,315 				"/>
			</g>
			<g>
				<polygon class="st37" points="441,293.4 441.1,299.8 398.1,323.6 398,317.2 				"/>
			</g>
			<g class="st1">
				<defs>
					<path id="SVGID_75_" class="st1" d="M318.2,313.5l0,6.4c0,3.6-2.4,7.1-7.1,9.8c-9,5-23.1,4.7-31.4-0.6
						c-3.9-2.5-5.9-5.7-5.9-8.9l0-6.4c0,3.2,2,6.4,5.9,8.9c8.3,5.3,22.4,5.5,31.4,0.6C315.8,320.6,318.2,317,318.2,313.5z"/>
				</defs>
				<clipPath id="SVGID_76_">
					<use xlink:href="#SVGID_75_"  style="overflow:visible;"/>
				</clipPath>
				<g class="st60">
					<path class="st5" d="M318.2,313.5l0,6.4c0,0.2,0,0.4,0,0.6l0-6.4C318.2,313.9,318.2,313.7,318.2,313.5"/>
					<path class="st6" d="M318.1,314.1l0,6.4c0,0.3-0.1,0.6-0.1,0.9l0-6.4C318.1,314.7,318.1,314.4,318.1,314.1"/>
					<path class="st7" d="M318,315l0,6.4c-0.1,0.3-0.1,0.6-0.2,0.9l0-6.4C317.9,315.6,318,315.3,318,315"/>
					<path class="st8" d="M317.8,315.9l0,6.4c-0.1,0.3-0.2,0.6-0.3,0.9l0-6.4C317.6,316.5,317.7,316.2,317.8,315.9"/>
					<path class="st9" d="M317.5,316.8l0,6.4c-0.1,0.3-0.3,0.6-0.5,0.9l0-6.4C317.2,317.4,317.3,317.1,317.5,316.8"/>
					<path class="st10" d="M317,317.8l0,6.4c-0.2,0.3-0.4,0.7-0.6,1l0-6.4C316.6,318.4,316.8,318.1,317,317.8"/>
					<path class="st11" d="M316.4,318.7l0,6.4c-0.3,0.4-0.6,0.7-0.9,1.1l0-6.4C315.8,319.5,316.1,319.1,316.4,318.7"/>
					<path class="st12" d="M315.5,319.8l0,6.4c-0.4,0.4-0.8,0.9-1.3,1.3l0-6.4C314.7,320.7,315.1,320.3,315.5,319.8"/>
					<path class="st13" d="M314.2,321.1l0,6.4c-0.9,0.8-1.9,1.5-3.1,2.1c-1.6,0.9-3.3,1.6-5.2,2.1l0-6.4c1.8-0.6,3.6-1.3,5.2-2.1
						C312.2,322.6,313.3,321.9,314.2,321.1"/>
					<path class="st12" d="M305.9,325.4l0,6.4c-0.8,0.2-1.6,0.4-2.4,0.6l0-6.4C304.3,325.8,305.1,325.6,305.9,325.4"/>
					<path class="st11" d="M303.5,326l0,6.4c-0.6,0.1-1.3,0.3-1.9,0.4l0-6.4C302.2,326.3,302.8,326.2,303.5,326"/>
					<path class="st10" d="M301.5,326.4l0,6.4c-0.6,0.1-1.2,0.2-1.7,0.2l0-6.4C300.4,326.5,301,326.5,301.5,326.4"/>
					<path class="st9" d="M299.8,326.6l0,6.4c-0.5,0.1-1.1,0.1-1.6,0.1l0-6.4C298.7,326.7,299.3,326.7,299.8,326.6"/>
					<path class="st8" d="M298.2,326.7l0,6.4c-0.5,0-1,0.1-1.6,0.1l0-6.4C297.1,326.8,297.6,326.8,298.2,326.7"/>
					<path class="st7" d="M296.6,326.8l0,6.4c-0.5,0-1,0-1.5,0l0-6.4C295.6,326.8,296.1,326.8,296.6,326.8"/>
					<path class="st6" d="M295.1,326.8l0,6.4c-0.5,0-1,0-1.5-0.1l0-6.4C294.1,326.8,294.6,326.8,295.1,326.8"/>
					<path class="st5" d="M293.6,326.8l0,6.4c-0.5,0-1-0.1-1.5-0.1l0-6.4C292.6,326.7,293.1,326.7,293.6,326.8"/>
					<path class="st29" d="M292.1,326.6l0,6.4c-0.5-0.1-1-0.1-1.5-0.2l0-6.4C291.1,326.5,291.6,326.6,292.1,326.6"/>
					<path class="st30" d="M290.5,326.5l0,6.4c-0.5-0.1-1.1-0.2-1.6-0.3l0-6.4C289.5,326.3,290,326.4,290.5,326.5"/>
					<path class="st31" d="M289,326.2l0,6.4c-0.6-0.1-1.1-0.2-1.7-0.4l0-6.4C287.9,326,288.4,326.1,289,326.2"/>
					<path class="st35" d="M287.3,325.8l0,6.4c-0.6-0.1-1.2-0.3-1.8-0.5l0-6.4C286.1,325.5,286.7,325.7,287.3,325.8"/>
					<path class="st34" d="M285.5,325.3l0,6.4c-0.7-0.2-1.5-0.5-2.2-0.8l0-6.4C284.1,324.9,284.8,325.1,285.5,325.3"/>
					<path class="st3" d="M283.4,324.6l0,6.4c-1.3-0.5-2.6-1.2-3.8-1.9c-3.9-2.5-5.9-5.7-5.9-8.9l0-6.4c0,3.2,2,6.4,5.9,8.9
						C280.8,323.4,282,324.1,283.4,324.6"/>
				</g>
			</g>
			<g>
				<polygon class="st37" points="114.2,318.1 114.3,324.6 77,345.2 76.9,338.8 				"/>
			</g>
			<g>
				<polygon class="st38" points="76.9,338.8 77,345.2 67.9,339.5 67.8,333 				"/>
			</g>
			<g>
				<polygon class="st38" points="154,343.4 154.1,349.8 114.3,324.6 114.2,318.1 				"/>
			</g>
			<g>
				<polygon class="st37" points="432.1,338.9 432.2,345.3 422.4,350.7 422.3,344.3 				"/>
			</g>
			<g>
				<polygon class="st38" points="422.3,344.3 422.4,350.7 388.3,329.1 388.3,322.6 				"/>
			</g>
			<g>
				<polygon class="st37" points="388.3,322.6 388.3,329.1 345.3,352.9 345.3,346.4 				"/>
			</g>
			<g>
				<polygon class="st38" points="125.8,369.9 125.8,376.3 116.8,370.5 116.7,364.1 				"/>
			</g>
			<g>
				<polygon class="st37" points="163.1,349.2 163.1,355.6 125.8,376.3 125.8,369.9 				"/>
			</g>
			<g>
				<polygon class="st38" points="203.1,374.6 203.1,381 163.1,355.6 163.1,349.2 				"/>
			</g>
			<g>
				<polygon class="st37" points="379.4,368.1 379.4,374.5 369.6,380 369.6,373.5 				"/>
			</g>
			<g>
				<polygon class="st38" points="369.6,373.5 369.6,380 335.5,358.3 335.5,351.9 				"/>
			</g>
			<g>
				<polygon class="st37" points="335.5,351.9 335.5,358.3 292.9,382 292.8,375.5 				"/>
			</g>
			<g>
				<polygon class="st38" points="214.4,381.7 214.4,388.2 212.2,386.8 212.2,380.3 				"/>
			</g>
			<g>
				<polygon class="st37" points="283,381 283.1,387.4 279.6,389.3 279.5,382.9 				"/>
			</g>
			<g class="st1">
				<defs>
					<path id="SVGID_77_" class="st1" d="M279.5,382.9l0,6.4c-18.6,10.3-47.9,9.8-65.1-1.2l0-6.4
						C231.7,392.7,260.9,393.2,279.5,382.9z"/>
				</defs>
				<clipPath id="SVGID_78_">
					<use xlink:href="#SVGID_77_"  style="overflow:visible;"/>
				</clipPath>
				<g class="st61">
					<path class="st13" d="M279.5,382.9l0,6.4c-3.3,1.8-6.9,3.3-10.7,4.5l0-6.4C272.6,386.2,276.2,384.7,279.5,382.9"/>
					<path class="st12" d="M268.8,387.4l0,6.4c-1.6,0.5-3.3,0.9-5,1.3l0-6.4C265.5,388.3,267.2,387.9,268.8,387.4"/>
					<path class="st11" d="M263.8,388.6l0,6.4c-1.3,0.3-2.6,0.5-4,0.7l0-6.4C261.2,389.2,262.5,388.9,263.8,388.6"/>
					<path class="st10" d="M259.8,389.4l0,6.4c-1.2,0.2-2.4,0.3-3.6,0.5l0-6.4C257.4,389.7,258.6,389.6,259.8,389.4"/>
					<path class="st9" d="M256.2,389.9l0,6.4c-1.1,0.1-2.3,0.2-3.4,0.3l0-6.4C254,390.1,255.1,390,256.2,389.9"/>
					<path class="st8" d="M252.8,390.2l0,6.4c-1.1,0.1-2.2,0.1-3.2,0.1l0-6.4C250.7,390.3,251.7,390.2,252.8,390.2"/>
					<path class="st7" d="M249.6,390.3l0,6.4c-1.1,0-2.1,0-3.2,0l0-6.4C247.5,390.3,248.5,390.3,249.6,390.3"/>
					<path class="st6" d="M246.4,390.3l0,6.4c-1,0-2.1-0.1-3.1-0.1l0-6.4C244.3,390.3,245.4,390.3,246.4,390.3"/>
					<path class="st5" d="M243.3,390.2l0,6.4c-1-0.1-2.1-0.1-3.1-0.2l0-6.4C241.2,390.1,242.3,390.1,243.3,390.2"/>
					<path class="st29" d="M240.2,390l0,6.4c-1.1-0.1-2.1-0.2-3.2-0.4l0-6.4C238.1,389.7,239.1,389.9,240.2,390"/>
					<path class="st30" d="M237,389.6l0,6.4c-1.1-0.2-2.2-0.3-3.3-0.5l0-6.4C234.9,389.2,235.9,389.4,237,389.6"/>
					<path class="st31" d="M233.8,389l0,6.4c-1.2-0.2-2.3-0.5-3.4-0.7l0-6.4C231.5,388.6,232.6,388.8,233.8,389"/>
					<path class="st35" d="M230.3,388.3l0,6.4c-1.3-0.3-2.5-0.7-3.7-1l0-6.4C227.8,387.6,229.1,388,230.3,388.3"/>
					<path class="st34" d="M226.6,387.3l0,6.4c-1.5-0.5-3-1-4.5-1.6l0-6.4C223.6,386.3,225.1,386.8,226.6,387.3"/>
					<path class="st3" d="M222.2,385.7l0,6.4c-2.8-1.1-5.4-2.4-7.8-3.9l0-6.4C216.8,383.3,219.4,384.6,222.2,385.7"/>
				</g>
			</g>
			<g>
				<polygon class="st38" points="174.9,401 174.9,407.5 165.8,401.7 165.8,395.3 				"/>
			</g>
			<g>
				<polygon class="st37" points="212.2,380.3 212.2,386.8 174.9,407.5 174.9,401 				"/>
			</g>
			<g>
				<path class="st62" d="M682.8,11c7.5-4.2,19.2-4,26.2,0.5c7,4.4,6.5,11.4-1,15.5c-3.8,2.1-8.8,3.1-13.6,3l-24.5,41.6
					c1,0.4,1.9,0.9,2.8,1.4c7,4.4,6.5,11.4-1,15.6c-3.8,2.1-8.7,3.1-13.6,3l-24.5,41.4c1,0.4,2,0.9,2.8,1.5c7,4.4,6.5,11.4-1,15.5
					c-3.8,2.1-8.8,3.1-13.6,3l-24.5,41.5c1,0.4,2,0.9,2.8,1.5c7,4.4,6.5,11.4-1,15.5c-6.8,3.7-16.9,3.9-24,0.7l-86.3,13.6
					l-42.4,23.5l3.3,2.1c16,10.3,16,26.1,0.8,36.5l34.3,21.8l-9.8,5.4L441,293.4l-43,23.8l34.1,21.7l-9.8,5.4l-34.1-21.7l-43,23.8
					l34.1,21.7l-9.8,5.4l-34.1-21.7l-42.7,23.7l33.8,21.8l-9.9,5.4L283,381l-3.5,2c-18.6,10.3-47.9,9.8-65.1-1.2l-2.2-1.4L174.9,401
					l-9.1-5.8l37.3-20.7l-40-25.4l-37.3,20.7l-9.1-5.8l37.3-20.7l-39.8-25.3l-37.3,20.7l-9.1-5.8l37.3-20.7L65.2,287l-37.3,20.7
					l-9.1-5.8l37.3-20.7l-2.9-1.8c-17.3-11-16.2-28.3,2.5-38.6l167.8-93c18.6-10.3,47.9-9.8,65.1,1.2l6.1,3.9l42.4-23.5L367,79.7
					c-0.9-0.4-1.7-0.8-2.5-1.3c-7-4.4-6.5-11.4,1-15.5c7.5-4.2,19.2-4,26.2,0.5c0.9,0.6,1.6,1.2,2.3,1.8l71.4-11.7
					c0.1-2.9,2.1-5.7,5.9-7.8c7.5-4.2,19.2-4,26.2,0.5c0.9,0.5,1.6,1.1,2.2,1.7l71.4-11.7c0.1-2.9,2.1-5.7,5.9-7.8
					c7.5-4.2,19.3-4,26.2,0.5c0.6,0.4,1.1,0.8,1.5,1.1l72.1-11.1C677,16,679,13.1,682.8,11z M285,158.3l-6.1-3.9
					c-12.3-7.8-33-8.2-46.3-0.8l-167.8,93c-13.2,7.3-14,19.7-1.8,27.4l161.1,102.3c12.3,7.8,33,8.2,46.3,0.8l167.8-93
					c13.2-7.3,14-19.6,1.8-27.4l-3.3-2.1L384,283.9l-36.5,5.3l-32.2,17.9c4.9,5.2,3.4,11.9-4.3,16.2c-9,5-23.1,4.7-31.4-0.6
					c-8.3-5.3-7.8-13.7,1.2-18.7c7.7-4.3,19.1-4.7,27.5-1.4l34.2-19l36.5-5.3l50.8-28.1l-42-26.7l-49,27.1
					c4.9,5.2,3.4,11.9-4.3,16.2c-9,5-23.1,4.7-31.4-0.6c-8.3-5.3-7.8-13.7,1.2-18.7c7.7-4.3,19.1-4.7,27.4-1.4l49-27.1l-41.8-26.6
					l-88,48.8l-4.5,21l-38.2,21.2c4.9,5.2,3.4,11.9-4.3,16.2c-9,5-23.1,4.7-31.4-0.6c-8.3-5.3-7.8-13.7,1.2-18.7
					c7.7-4.3,19.1-4.7,27.5-1.4l35.4-19.6l4.5-21l90.8-50.3l-39.7-25.2l-12.5,7l-7.9,18.5L251.8,199c4.9,5.2,3.4,11.9-4.3,16.1
					c-9,5-23.1,4.7-31.4-0.6c-8.3-5.3-7.8-13.7,1.2-18.7c7.7-4.3,19.1-4.7,27.5-1.4l17.6-9.6l7.9-18.4L285,158.3 M612.1,150.9
					c-1-0.4-1.9-0.9-2.8-1.4c-0.9-0.6-1.6-1.2-2.3-1.8l-71.4,11.7c-0.1,2.9-2,5.8-5.9,7.9c-5.7,3.2-13.8,3.8-20.4,2l-33.7,5.5
					l-78,43.3l42,26.7l44.3-24.5l85.2-13.4c-2.1-3.9-0.4-8.4,5.1-11.4c3.8-2.1,8.7-3.1,13.6-3L612.1,150.9 M301.9,157.3l39.7,25.2
					l43.3-24l37.3-20.6l9.9-16.8c-4.8-4.4-3.8-10.3,2.9-14.1c3.8-2.1,8.7-3.1,13.6-3l24.6-41.4c-1-0.4-2-0.9-2.8-1.5
					c-0.9-0.6-1.6-1.2-2.3-1.8L396.6,71c-0.1,2.9-2.1,5.7-5.9,7.8c-3.9,2.2-9,3.2-14,3l-30.6,51L301.9,157.3 M348.6,187l41.8,26.6
					l79.9-44.3l30.2-4.9c-3.6-4.2-2.3-9.6,3.9-13.1c3.8-2.1,8.7-3.1,13.6-3l24.6-41.5c-1-0.4-2-0.9-2.8-1.5
					c-0.9-0.6-1.6-1.1-2.3-1.8l-71.4,11.7c-0.1,2.9-2.1,5.7-5.9,7.8c-5.5,3-13.1,3.7-19.6,2.2l-9.5,16.1L391.9,163L348.6,187
					 M684.6,28c-1-0.4-1.9-0.9-2.8-1.5c-0.9-0.6-1.7-1.2-2.3-1.8l-71.4,11c0.2,3.1-1.8,6.3-5.9,8.6c-3.8,2.1-8.7,3.1-13.6,3
					l-24.4,41.5c1,0.4,1.9,0.9,2.8,1.4c0.9,0.5,1.6,1.1,2.2,1.7l71.3-11.7c0.2-2.8,2.1-5.6,5.9-7.7c3.8-2.1,8.8-3.1,13.6-3L684.6,28
					 M496.5,61.6c-3.8,2.1-8.7,3.1-13.6,3L458.4,106c1,0.4,2,0.9,2.8,1.5c0.9,0.6,1.6,1.2,2.3,1.8l71.4-11.7
					c0.1-2.9,2.1-5.7,5.9-7.8c3.8-2.1,8.8-3.1,13.6-3l24.4-41.5c-1-0.4-2-0.9-2.8-1.5c-0.9-0.6-1.6-1.2-2.3-1.8l-71.3,11.7
					C502.3,56.6,500.3,59.5,496.5,61.6 M648.3,89.6c-1-0.4-2-0.9-2.8-1.5c-0.9-0.6-1.7-1.2-2.3-1.8l-71.2,11.6
					c-0.1,2.9-2.1,5.7-5.9,7.9c-3.8,2.1-8.7,3.1-13.6,3l-24.6,41.5c1,0.4,2,0.9,2.8,1.5c0.8,0.5,1.5,1.1,2.2,1.7l71.5-11.7
					c0.1-2.9,2.1-5.7,5.9-7.8c3.8-2.1,8.7-3.1,13.6-3L648.3,89.6 M329.1,251.7c-5-3.2-13.5-3.3-18.9-0.3c-5.4,3-5.7,8-0.7,11.2
					c5,3.2,13.5,3.3,18.9,0.3C333.8,259.9,334.1,254.9,329.1,251.7 M242.2,200c-5-3.2-13.5-3.3-18.9-0.3c-5.4,3-5.7,8-0.7,11.2
					c5,3.2,13.5,3.3,18.9,0.3C246.8,208.2,247.2,203.2,242.2,200 M198.5,284.5c-5-3.2-13.5-3.3-18.9-0.3c-5.4,3-5.7,8-0.7,11.2
					s13.5,3.3,18.9,0.3C203.2,292.7,203.5,287.7,198.5,284.5 M303.2,307c-5-1.9-11.8-1.7-16.4,0.9c-5.4,3-5.7,8-0.7,11.2
					c5,3.2,13.5,3.3,18.9,0.3c4.6-2.5,5.5-6.5,2.6-9.6L303.2,307"/>
			</g>
			<g>
				<polygon class="st38" points="316.8,402.7 316.8,409.2 283.1,387.4 283,381 				"/>
			</g>
			<g>
				<polygon class="st37" points="326.7,397.4 326.7,403.8 316.8,409.2 316.8,402.7 				"/>
			</g>
		</g>
	</g>
</g>
</svg>
