<?xml version="1.0" encoding="utf-8"?>
<!-- Generator: Adobe Illustrator 22.1.0, SVG Export Plug-In . SVG Version: 6.00 Build 0)  -->
<svg version="1.1" id="Layer_1" xmlns="http://www.w3.org/2000/svg" xmlns:xlink="http://www.w3.org/1999/xlink" x="0px" y="0px"
	 viewBox="0 0 895 649" style="enable-background:new 0 0 895 649;" xml:space="preserve">
<style type="text/css">
	.st0{clip-path:url(#SVGID_2_);}
	.st1{clip-path:url(#SVGID_5_);}
	.st2{clip-path:url(#SVGID_6_);fill:#FFC72C;stroke:#FFFFFF;stroke-miterlimit:10;}
	.st3{clip-path:url(#SVGID_6_);}
	.st4{display:none;}
	.st5{display:inline;}
	.st6{display:inline;opacity:0.41;clip-path:url(#SVGID_8_);}
	.st7{fill:none;}
</style>
<g>
	<g>
		<defs>
			<rect id="SVGID_1_" width="895" height="649"/>
		</defs>
		<clipPath id="SVGID_2_">
			<use xlink:href="#SVGID_1_"  style="overflow:visible;"/>
		</clipPath>
		<g class="st0">
			<g>
				<defs>
					<rect id="SVGID_3_" x="-215.5" y="-121.5" width="1117" height="1056"/>
				</defs>
				<defs>
					<rect id="SVGID_4_" x="-215.5" y="-121.5" width="1117" height="1056"/>
				</defs>
				<clipPath id="SVGID_5_">
					<use xlink:href="#SVGID_3_"  style="overflow:visible;"/>
				</clipPath>
				<clipPath id="SVGID_6_" class="st1">
					<use xlink:href="#SVGID_4_"  style="overflow:visible;"/>
				</clipPath>
				<polygon class="st2" points="-952.9,-93.4 209.3,-700.8 1218.8,136.3 56.6,743.8 				"/>
				<g class="st3">
					<g class="st4">
						<defs>
							<rect id="SVGID_7_" x="-496.4" y="-315" width="1767.1" height="1866.8"/>
						</defs>
						<clipPath id="SVGID_8_" class="st5">
							<use xlink:href="#SVGID_7_"  style="overflow:visible;"/>
						</clipPath>
						<g class="st6">
							<g>
								<line class="st7" x1="-2351.8" y1="-890.1" x2="-2351.8" y2="1706"/>
								<line class="st7" x1="-2263.5" y1="-890.1" x2="-2263.5" y2="1706"/>
								<line class="st7" x1="-2175.2" y1="-890.1" x2="-2175.2" y2="1706"/>
								<line class="st7" x1="-2086.9" y1="-890.1" x2="-2086.9" y2="1706"/>
								<line class="st7" x1="-1998.6" y1="-890.1" x2="-1998.6" y2="1706"/>
								<line class="st7" x1="-1910.3" y1="-890.1" x2="-1910.3" y2="1706"/>
								<line class="st7" x1="-1822" y1="-890.1" x2="-1822" y2="1706"/>
								<line class="st7" x1="-1733.7" y1="-890.1" x2="-1733.7" y2="1706"/>
								<line class="st7" x1="-1645.4" y1="-890.1" x2="-1645.4" y2="1706"/>
								<line class="st7" x1="-1557.1" y1="-890.1" x2="-1557.1" y2="1706"/>
								<line class="st7" x1="-1468.8" y1="-890.1" x2="-1468.8" y2="1706"/>
								<line class="st7" x1="-1380.5" y1="-890.1" x2="-1380.5" y2="1706"/>
								<line class="st7" x1="-1292.2" y1="-890.1" x2="-1292.2" y2="1706"/>
								<line class="st7" x1="-1203.9" y1="-890.1" x2="-1203.9" y2="1706"/>
								<line class="st7" x1="-1115.6" y1="-890.1" x2="-1115.6" y2="1706"/>
								<line class="st7" x1="-1027.2" y1="-890.1" x2="-1027.2" y2="1706"/>
								<line class="st7" x1="-938.9" y1="-890.1" x2="-938.9" y2="1706"/>
								<line class="st7" x1="-850.6" y1="-890.1" x2="-850.6" y2="1706"/>
								<line class="st7" x1="-762.3" y1="-890.1" x2="-762.3" y2="1706"/>
								<line class="st7" x1="-674" y1="-890.1" x2="-674" y2="1706"/>
								<line class="st7" x1="-585.7" y1="-890.1" x2="-585.7" y2="1706"/>
								<line class="st7" x1="-497.4" y1="-890.1" x2="-497.4" y2="1706"/>
								<line class="st7" x1="-409.1" y1="-890.1" x2="-409.1" y2="1706"/>
								<line class="st7" x1="-320.8" y1="-890.1" x2="-320.8" y2="1706"/>
								<line class="st7" x1="-232.5" y1="-890.1" x2="-232.5" y2="1706"/>
								<line class="st7" x1="-144.2" y1="-890.1" x2="-144.2" y2="1706"/>
								<line class="st7" x1="-55.9" y1="-890.1" x2="-55.9" y2="1706"/>
								<line class="st7" x1="32.4" y1="-890.1" x2="32.4" y2="1706"/>
								<line class="st7" x1="120.7" y1="-890.1" x2="120.7" y2="1706"/>
								<line class="st7" x1="209" y1="-890.1" x2="209" y2="1706"/>
								<line class="st7" x1="297.3" y1="-890.1" x2="297.3" y2="1706"/>
								<line class="st7" x1="385.7" y1="-890.1" x2="385.7" y2="1706"/>
								<line class="st7" x1="474" y1="-890.1" x2="474" y2="1706"/>
								<line class="st7" x1="562.3" y1="-890.1" x2="562.3" y2="1706"/>
								<line class="st7" x1="650.6" y1="-890.1" x2="650.6" y2="1706"/>
								<line class="st7" x1="738.9" y1="-890.1" x2="738.9" y2="1706"/>
								<line class="st7" x1="827.2" y1="-890.1" x2="827.2" y2="1706"/>
								<line class="st7" x1="915.5" y1="-890.1" x2="915.5" y2="1706"/>
								<line class="st7" x1="1003.8" y1="-890.1" x2="1003.8" y2="1706"/>
								<line class="st7" x1="1092.1" y1="-890.1" x2="1092.1" y2="1706"/>
								<line class="st7" x1="1180.4" y1="-890.1" x2="1180.4" y2="1706"/>
								<line class="st7" x1="1268.7" y1="-890.1" x2="1268.7" y2="1706"/>
								<line class="st7" x1="1357" y1="-890.1" x2="1357" y2="1706"/>
								<line class="st7" x1="1445.3" y1="-890.1" x2="1445.3" y2="1706"/>
								<line class="st7" x1="1533.6" y1="-890.1" x2="1533.6" y2="1706"/>
								<line class="st7" x1="1621.9" y1="-890.1" x2="1621.9" y2="1706"/>
								<line class="st7" x1="1710.2" y1="-890.1" x2="1710.2" y2="1706"/>
								<line class="st7" x1="1798.5" y1="-890.1" x2="1798.5" y2="1706"/>
								<line class="st7" x1="1886.9" y1="-890.1" x2="1886.9" y2="1706"/>
								<line class="st7" x1="1975.2" y1="-890.1" x2="1975.2" y2="1706"/>
								<line class="st7" x1="2063.5" y1="-890.1" x2="2063.5" y2="1706"/>
								<line class="st7" x1="2151.8" y1="-890.1" x2="2151.8" y2="1706"/>
								<line class="st7" x1="2240.1" y1="-890.1" x2="2240.1" y2="1706"/>
								<line class="st7" x1="2328.4" y1="-890.1" x2="2328.4" y2="1706"/>
								<line class="st7" x1="2416.7" y1="-890.1" x2="2416.7" y2="1706"/>
								<line class="st7" x1="2505" y1="-890.1" x2="2505" y2="1706"/>
								<line class="st7" x1="2593.3" y1="-890.1" x2="2593.3" y2="1706"/>
								<line class="st7" x1="2681.6" y1="-890.1" x2="2681.6" y2="1706"/>
								<line class="st7" x1="2769.9" y1="-890.1" x2="2769.9" y2="1706"/>
								<line class="st7" x1="2858.2" y1="-890.1" x2="2858.2" y2="1706"/>
								<line class="st7" x1="2946.5" y1="-890.1" x2="2946.5" y2="1706"/>
								<line class="st7" x1="3034.8" y1="-890.1" x2="3034.8" y2="1706"/>
							</g>
							<g>
								<line class="st7" x1="-2152.5" y1="1890.3" x2="305" y2="3188.3"/>
								<line class="st7" x1="-2108.3" y1="1820.4" x2="349.1" y2="3118.4"/>
								<line class="st7" x1="-2064.2" y1="1750.4" x2="393.3" y2="3048.4"/>
								<line class="st7" x1="-2020" y1="1680.4" x2="437.4" y2="2978.5"/>
								<line class="st7" x1="-1975.8" y1="1610.5" x2="481.6" y2="2908.5"/>
								<line class="st7" x1="-1931.7" y1="1540.5" x2="525.7" y2="2838.5"/>
								<line class="st7" x1="-1887.5" y1="1470.5" x2="569.9" y2="2768.6"/>
								<line class="st7" x1="-1843.4" y1="1400.6" x2="614" y2="2698.6"/>
								<line class="st7" x1="-1799.2" y1="1330.6" x2="658.2" y2="2628.6"/>
								<line class="st7" x1="-1755.1" y1="1260.6" x2="702.3" y2="2558.7"/>
								<line class="st7" x1="-1710.9" y1="1190.7" x2="746.5" y2="2488.7"/>
								<line class="st7" x1="-1666.8" y1="1120.7" x2="790.6" y2="2418.7"/>
								<line class="st7" x1="-1622.6" y1="1050.7" x2="834.8" y2="2348.8"/>
								<line class="st7" x1="-1578.5" y1="980.8" x2="878.9" y2="2278.8"/>
								<line class="st7" x1="-1534.3" y1="910.8" x2="923.1" y2="2208.8"/>
								<line class="st7" x1="-1490.2" y1="840.8" x2="967.2" y2="2138.9"/>
								<line class="st7" x1="-1446" y1="770.9" x2="1011.4" y2="2068.9"/>
								<line class="st7" x1="-1401.9" y1="700.9" x2="1055.6" y2="1998.9"/>
								<line class="st7" x1="-1357.7" y1="630.9" x2="1099.7" y2="1929"/>
								<line class="st7" x1="-1313.5" y1="561" x2="1143.9" y2="1859"/>
								<line class="st7" x1="-1269.4" y1="491" x2="1188" y2="1789"/>
								<line class="st7" x1="-1225.2" y1="421" x2="1232.2" y2="1719.1"/>
								<line class="st7" x1="-1181.1" y1="351.1" x2="1276.3" y2="1649.1"/>
								<line class="st7" x1="-1136.9" y1="281.1" x2="1320.5" y2="1579.1"/>
								<line class="st7" x1="-1092.8" y1="211.1" x2="1364.6" y2="1509.2"/>
								<line class="st7" x1="-1048.6" y1="141.2" x2="1408.8" y2="1439.2"/>
								<line class="st7" x1="-1004.5" y1="71.2" x2="1452.9" y2="1369.2"/>
								<line class="st7" x1="-960.3" y1="1.3" x2="1497.1" y2="1299.3"/>
								<line class="st7" x1="-916.2" y1="-68.7" x2="1541.2" y2="1229.3"/>
								<line class="st7" x1="-872" y1="-138.7" x2="1585.4" y2="1159.3"/>
								<line class="st7" x1="-827.9" y1="-208.6" x2="1629.5" y2="1089.4"/>
								<line class="st7" x1="-783.7" y1="-278.6" x2="1673.7" y2="1019.4"/>
								<line class="st7" x1="-739.6" y1="-348.6" x2="1717.8" y2="949.4"/>
								<line class="st7" x1="-695.4" y1="-418.5" x2="1762" y2="879.5"/>
								<line class="st7" x1="-651.3" y1="-488.5" x2="1806.2" y2="809.5"/>
								<line class="st7" x1="-607.1" y1="-558.5" x2="1850.3" y2="739.5"/>
								<line class="st7" x1="-562.9" y1="-628.4" x2="1894.5" y2="669.6"/>
								<line class="st7" x1="-518.8" y1="-698.4" x2="1938.6" y2="599.6"/>
								<line class="st7" x1="-474.6" y1="-768.4" x2="1982.8" y2="529.6"/>
								<line class="st7" x1="-430.5" y1="-838.3" x2="2026.9" y2="459.7"/>
								<line class="st7" x1="-386.3" y1="-908.3" x2="2071.1" y2="389.7"/>
								<line class="st7" x1="-342.2" y1="-978.3" x2="2115.2" y2="319.7"/>
								<line class="st7" x1="-298" y1="-1048.2" x2="2159.4" y2="249.8"/>
								<line class="st7" x1="-253.9" y1="-1118.2" x2="2203.5" y2="179.8"/>
								<line class="st7" x1="-209.7" y1="-1188.2" x2="2247.7" y2="109.8"/>
								<line class="st7" x1="-165.6" y1="-1258.1" x2="2291.8" y2="39.9"/>
								<line class="st7" x1="-121.4" y1="-1328.1" x2="2336" y2="-30.1"/>
								<line class="st7" x1="-77.3" y1="-1398.1" x2="2380.1" y2="-100"/>
								<line class="st7" x1="-33.1" y1="-1468" x2="2424.3" y2="-170"/>
								<line class="st7" x1="11" y1="-1538" x2="2468.5" y2="-240"/>
								<line class="st7" x1="55.2" y1="-1608" x2="2512.6" y2="-309.9"/>
								<line class="st7" x1="99.4" y1="-1677.9" x2="2556.8" y2="-379.9"/>
								<line class="st7" x1="143.5" y1="-1747.9" x2="2600.9" y2="-449.9"/>
								<line class="st7" x1="187.7" y1="-1817.9" x2="2645.1" y2="-519.8"/>
								<line class="st7" x1="231.8" y1="-1887.8" x2="2689.2" y2="-589.8"/>
								<line class="st7" x1="276" y1="-1957.8" x2="2733.4" y2="-659.8"/>
								<line class="st7" x1="320.1" y1="-2027.8" x2="2777.5" y2="-729.7"/>
								<line class="st7" x1="364.3" y1="-2097.7" x2="2821.7" y2="-799.7"/>
								<line class="st7" x1="408.4" y1="-2167.7" x2="2865.8" y2="-869.7"/>
								<line class="st7" x1="452.6" y1="-2237.7" x2="2910" y2="-939.6"/>
								<line class="st7" x1="496.7" y1="-2307.6" x2="2954.1" y2="-1009.6"/>
								<line class="st7" x1="540.9" y1="-2377.6" x2="2998.3" y2="-1079.6"/>
							</g>
							<g>
								<line class="st7" x1="2918.9" y1="1892.9" x2="461.5" y2="3190.9"/>
								<line class="st7" x1="2874.7" y1="1822.9" x2="417.3" y2="3120.9"/>
								<line class="st7" x1="2830.6" y1="1753" x2="373.2" y2="3051"/>
								<line class="st7" x1="2786.4" y1="1683" x2="329" y2="2981"/>
								<line class="st7" x1="2742.3" y1="1613" x2="284.9" y2="2911"/>
								<line class="st7" x1="2698.1" y1="1543.1" x2="240.7" y2="2841.1"/>
								<line class="st7" x1="2654" y1="1473.1" x2="196.6" y2="2771.1"/>
								<line class="st7" x1="2609.8" y1="1403.1" x2="152.4" y2="2701.1"/>
								<line class="st7" x1="2565.7" y1="1333.2" x2="108.3" y2="2631.2"/>
								<line class="st7" x1="2521.5" y1="1263.2" x2="64.1" y2="2561.2"/>
								<line class="st7" x1="2477.4" y1="1193.2" x2="20" y2="2491.2"/>
								<line class="st7" x1="2433.2" y1="1123.3" x2="-24.2" y2="2421.3"/>
								<line class="st7" x1="2389.1" y1="1053.3" x2="-68.3" y2="2351.3"/>
								<line class="st7" x1="2344.9" y1="983.3" x2="-112.5" y2="2281.4"/>
								<line class="st7" x1="2300.8" y1="913.4" x2="-156.7" y2="2211.4"/>
								<line class="st7" x1="2256.6" y1="843.4" x2="-200.8" y2="2141.4"/>
								<line class="st7" x1="2212.4" y1="773.4" x2="-245" y2="2071.5"/>
								<line class="st7" x1="2168.3" y1="703.5" x2="-289.1" y2="2001.5"/>
								<line class="st7" x1="2124.1" y1="633.5" x2="-333.3" y2="1931.5"/>
								<line class="st7" x1="2080" y1="563.5" x2="-377.4" y2="1861.6"/>
								<line class="st7" x1="2035.8" y1="493.6" x2="-421.6" y2="1791.6"/>
								<line class="st7" x1="1991.7" y1="423.6" x2="-465.7" y2="1721.6"/>
								<line class="st7" x1="1947.5" y1="353.6" x2="-509.9" y2="1651.7"/>
								<line class="st7" x1="1903.4" y1="283.7" x2="-554" y2="1581.7"/>
								<line class="st7" x1="1859.2" y1="213.7" x2="-598.2" y2="1511.7"/>
								<line class="st7" x1="1815.1" y1="143.7" x2="-642.3" y2="1441.8"/>
								<line class="st7" x1="1770.9" y1="73.8" x2="-686.5" y2="1371.8"/>
								<line class="st7" x1="1726.8" y1="3.8" x2="-730.6" y2="1301.8"/>
								<line class="st7" x1="1682.6" y1="-66.2" x2="-774.8" y2="1231.9"/>
								<line class="st7" x1="1638.5" y1="-136.1" x2="-818.9" y2="1161.9"/>
								<line class="st7" x1="1594.3" y1="-206.1" x2="-863.1" y2="1091.9"/>
								<line class="st7" x1="1550.2" y1="-276.1" x2="-907.3" y2="1022"/>
								<line class="st7" x1="1506" y1="-346" x2="-951.4" y2="952"/>
								<line class="st7" x1="1461.8" y1="-416" x2="-995.6" y2="882"/>
								<line class="st7" x1="1417.7" y1="-486" x2="-1039.7" y2="812.1"/>
								<line class="st7" x1="1373.5" y1="-555.9" x2="-1083.9" y2="742.1"/>
								<line class="st7" x1="1329.4" y1="-625.9" x2="-1128" y2="672.1"/>
								<line class="st7" x1="1285.2" y1="-695.8" x2="-1172.2" y2="602.2"/>
								<line class="st7" x1="1241.1" y1="-765.8" x2="-1216.3" y2="532.2"/>
								<line class="st7" x1="1196.9" y1="-835.8" x2="-1260.5" y2="462.2"/>
								<line class="st7" x1="1152.8" y1="-905.7" x2="-1304.6" y2="392.3"/>
								<line class="st7" x1="1108.6" y1="-975.7" x2="-1348.8" y2="322.3"/>
								<line class="st7" x1="1064.5" y1="-1045.7" x2="-1392.9" y2="252.3"/>
								<line class="st7" x1="1020.3" y1="-1115.6" x2="-1437.1" y2="182.4"/>
								<line class="st7" x1="976.2" y1="-1185.6" x2="-1481.2" y2="112.4"/>
								<line class="st7" x1="932" y1="-1255.6" x2="-1525.4" y2="42.4"/>
								<line class="st7" x1="887.9" y1="-1325.5" x2="-1569.6" y2="-27.5"/>
								<line class="st7" x1="843.7" y1="-1395.5" x2="-1613.7" y2="-97.5"/>
								<line class="st7" x1="799.5" y1="-1465.5" x2="-1657.9" y2="-167.5"/>
								<line class="st7" x1="755.4" y1="-1535.4" x2="-1702" y2="-237.4"/>
								<line class="st7" x1="711.2" y1="-1605.4" x2="-1746.2" y2="-307.4"/>
								<line class="st7" x1="667.1" y1="-1675.4" x2="-1790.3" y2="-377.4"/>
								<line class="st7" x1="622.9" y1="-1745.3" x2="-1834.5" y2="-447.3"/>
								<line class="st7" x1="578.8" y1="-1815.3" x2="-1878.6" y2="-517.3"/>
								<line class="st7" x1="534.6" y1="-1885.3" x2="-1922.8" y2="-587.2"/>
								<line class="st7" x1="490.5" y1="-1955.2" x2="-1966.9" y2="-657.2"/>
								<line class="st7" x1="446.3" y1="-2025.2" x2="-2011.1" y2="-727.2"/>
								<line class="st7" x1="402.2" y1="-2095.2" x2="-2055.2" y2="-797.1"/>
								<line class="st7" x1="358" y1="-2165.1" x2="-2099.4" y2="-867.1"/>
								<line class="st7" x1="313.9" y1="-2235.1" x2="-2143.5" y2="-937.1"/>
								<line class="st7" x1="269.7" y1="-2305.1" x2="-2187.7" y2="-1007"/>
								<line class="st7" x1="225.6" y1="-2375" x2="-2231.8" y2="-1077"/>
							</g>
						</g>
					</g>
				</g>
			</g>
		</g>
	</g>
</g>
</svg>
