<?xml version="1.0" encoding="utf-8"?>
<!-- Generator: Adobe Illustrator 22.1.0, SVG Export Plug-In . SVG Version: 6.00 Build 0)  -->
<svg version="1.1" xmlns="http://www.w3.org/2000/svg" xmlns:xlink="http://www.w3.org/1999/xlink" x="0px" y="0px"
	 viewBox="0 0 941.1 635.4" style="enable-background:new 0 0 941.1 635.4;" xml:space="preserve">
<style type="text/css">
	.st0{fill:#559DAD;stroke:#FFFFFF;stroke-miterlimit:10;}
	.st1{fill:#165F70;stroke:#FFFFFF;stroke-miterlimit:10;}
	.st2{fill:#CC87A3;stroke:#FFFFFF;stroke-miterlimit:10;}
	.st3{fill:#D85088;stroke:#FFFFFF;stroke-miterlimit:10;}
	.st4{fill:#75AA71;stroke:#FFFFFF;stroke-miterlimit:10;}
	.st5{fill:#84D880;stroke:#FFFFFF;stroke-miterlimit:10;}
	.st6{fill:#489B42;stroke:#FFFFFF;stroke-miterlimit:10;}
	.st7{fill:#E2135D;stroke:#FFFFFF;stroke-miterlimit:10;}
	.st8{fill:#003545;stroke:#FFFFFF;stroke-miterlimit:10;}
	.st9{opacity:0.41;clip-path:url(#SVGID_2_);}
	.st10{fill:#424242;}
</style>
<g id="Layer_2">
	<polygon class="st0" points="497.3,141 497.3,234.3 585.6,280.9 585.6,187.6 	"/>
	<polygon class="st0" points="761.5,94.3 761.5,187.6 849.8,234.3 849.8,141 	"/>
	<polygon class="st0" points="585.6,187.6 585.6,280.9 673.9,327.6 673.9,234.3 	"/>
	<polygon class="st1" points="672.4,234.3 760.7,187.6 760.7,280.9 672.4,327.6 	"/>
	<polygon class="st1" points="849.8,141 938.1,94.3 938.1,187.6 849.8,234.3 	"/>
	<polygon class="st2" points="292.9,341.6 292.9,434.8 381.2,481.5 381.2,388.2 	"/>
	<polygon class="st3" points="381.2,388.2 469.5,341.6 469.5,434.9 381.2,481.5 	"/>
	<polygon class="st4" points="88.3,448.9 176.6,402.2 176.6,495.5 88.3,542.1 	"/>
	<polygon class="st5" points="0,402.2 0,495.5 88.3,542.1 88.3,448.9 	"/>
	<polygon class="st6" points="0,495.5 88.3,448.9 176.6,495.5 88.3,542.1 	"/>
	<polygon class="st5" points="0,495.5 0,588.8 88.3,635.4 88.3,542.1 	"/>
	<polygon class="st4" points="88.3,542.1 176.6,495.5 176.6,588.8 88.3,635.4 	"/>
	<polygon class="st6" points="0,402.2 88.3,355.6 176.6,402.2 88.3,448.9 	"/>
	<polygon class="st6" points="88.3,355.6 176.6,308.9 264.9,355.6 176.6,402.2 	"/>
	<polygon class="st4" points="176.6,402.2 264.9,355.6 264.9,448.8 176.6,495.5 	"/>
	<polygon class="st6" points="176.6,495.5 264.9,448.9 353.2,495.5 264.9,542.1 	"/>
	<polygon class="st6" points="264.9,448.8 353.2,402.2 441.5,448.8 353.2,495.5 	"/>
	<polygon class="st4" points="264.9,542.1 353.2,495.5 353.2,588.8 264.9,635.4 	"/>
	<polygon class="st4" points="353.2,495.5 441.5,448.9 441.5,542.1 353.2,588.8 	"/>
	<polygon class="st5" points="176.6,495.5 176.6,588.8 264.9,635.4 264.9,542.1 	"/>
	<polygon class="st3" points="381.2,294.9 469.5,248.3 469.5,341.6 381.2,388.2 	"/>
	<polygon class="st2" points="292.9,248.3 292.9,341.6 381.2,388.2 381.2,294.9 	"/>
	<polygon class="st7" points="292.9,341.6 381.2,294.9 469.5,341.6 381.2,388.2 	"/>
	<polygon class="st7" points="292.9,248.3 381.2,201.6 469.5,248.3 381.2,294.9 	"/>
	<polygon class="st7" points="381.2,201.6 469.5,155 557.8,201.6 469.5,248.3 	"/>
	<polygon class="st3" points="469.5,248.3 557.8,201.6 557.8,294.9 469.5,341.6 	"/>
	<polygon class="st7" points="469.5,341.6 557.9,294.9 646.2,341.6 557.9,388.2 	"/>
	<polygon class="st7" points="557.9,294.9 646.2,248.3 734.5,294.9 646.2,341.6 	"/>
	<polygon class="st3" points="557.9,388.2 646.2,341.6 646.2,434.9 557.8,481.5 	"/>
	<polygon class="st3" points="646.2,341.6 734.5,294.9 734.5,388.2 646.2,434.9 	"/>
	<polygon class="st2" points="469.5,341.6 469.5,434.8 557.8,481.5 557.9,388.2 	"/>
	<polygon class="st8" points="496.5,141 584.9,94.3 673.2,141 584.9,187.6 	"/>
	<polygon class="st8" points="584.8,187.6 673.2,141 761.5,187.6 673.2,234.3 	"/>
	<polygon class="st8" points="760.7,187.6 849,141 937.3,187.6 849,234.3 	"/>
	<polygon class="st8" points="673.2,47.7 761.5,1 849.8,47.7 761.5,94.3 	"/>
	<polygon class="st8" points="761.5,94.3 849.8,47.7 938.1,94.3 849.8,141 	"/>
	<polygon class="st0" points="760.7,187.6 760.7,280.9 849,327.6 849,234.3 	"/>
	<polygon class="st0" points="673.2,47.7 673.2,141 761.5,187.6 761.5,94.3 	"/>
	<polygon class="st1" points="849.8,234.3 938.1,187.6 938.1,280.9 849.8,327.6 	"/>
</g>
<g id="Layer_1">
	<g>
		<defs>
			<rect id="SVGID_1_" x="-263.9" y="-951.5" width="1767.1" height="1866.8"/>
		</defs>
		<clipPath id="SVGID_2_">
			<use xlink:href="#SVGID_1_"  style="overflow:visible;"/>
		</clipPath>
		<g class="st9">
			<g>
				<line class="st10" x1="-2119.3" y1="-1526.6" x2="-2119.3" y2="1069.5"/>
				<line class="st10" x1="-2031" y1="-1526.6" x2="-2031" y2="1069.5"/>
				<line class="st10" x1="-1942.7" y1="-1526.6" x2="-1942.7" y2="1069.5"/>
				<line class="st10" x1="-1854.4" y1="-1526.6" x2="-1854.4" y2="1069.5"/>
				<line class="st10" x1="-1766.1" y1="-1526.6" x2="-1766.1" y2="1069.5"/>
				<line class="st10" x1="-1677.8" y1="-1526.6" x2="-1677.8" y2="1069.5"/>
				<line class="st10" x1="-1589.5" y1="-1526.6" x2="-1589.5" y2="1069.5"/>
				<line class="st10" x1="-1501.2" y1="-1526.6" x2="-1501.2" y2="1069.5"/>
				<line class="st10" x1="-1412.9" y1="-1526.6" x2="-1412.9" y2="1069.5"/>
				<line class="st10" x1="-1324.6" y1="-1526.6" x2="-1324.6" y2="1069.5"/>
				<line class="st10" x1="-1236.3" y1="-1526.6" x2="-1236.3" y2="1069.5"/>
				<line class="st10" x1="-1148" y1="-1526.6" x2="-1148" y2="1069.5"/>
				<line class="st10" x1="-1059.7" y1="-1526.6" x2="-1059.7" y2="1069.5"/>
				<line class="st10" x1="-971.4" y1="-1526.6" x2="-971.4" y2="1069.5"/>
				<line class="st10" x1="-883.1" y1="-1526.6" x2="-883.1" y2="1069.5"/>
				<line class="st10" x1="-794.7" y1="-1526.6" x2="-794.7" y2="1069.5"/>
				<line class="st10" x1="-706.4" y1="-1526.6" x2="-706.4" y2="1069.5"/>
				<line class="st10" x1="-618.1" y1="-1526.6" x2="-618.1" y2="1069.5"/>
				<line class="st10" x1="-529.8" y1="-1526.6" x2="-529.8" y2="1069.5"/>
				<line class="st10" x1="-441.5" y1="-1526.6" x2="-441.5" y2="1069.5"/>
				<line class="st10" x1="-353.2" y1="-1526.6" x2="-353.2" y2="1069.5"/>
				<line class="st10" x1="-264.9" y1="-1526.6" x2="-264.9" y2="1069.5"/>
				<line class="st10" x1="-176.6" y1="-1526.6" x2="-176.6" y2="1069.5"/>
				<line class="st10" x1="-88.3" y1="-1526.6" x2="-88.3" y2="1069.5"/>
				<line class="st10" x1="0" y1="-1526.6" x2="0" y2="1069.5"/>
				<line class="st10" x1="88.3" y1="-1526.6" x2="88.3" y2="1069.5"/>
				<line class="st10" x1="176.6" y1="-1526.6" x2="176.6" y2="1069.5"/>
				<line class="st10" x1="264.9" y1="-1526.6" x2="264.9" y2="1069.5"/>
				<line class="st10" x1="353.2" y1="-1526.6" x2="353.2" y2="1069.5"/>
				<line class="st10" x1="441.5" y1="-1526.6" x2="441.5" y2="1069.5"/>
				<line class="st10" x1="529.8" y1="-1526.6" x2="529.8" y2="1069.5"/>
				<line class="st10" x1="618.2" y1="-1526.6" x2="618.2" y2="1069.5"/>
				<line class="st10" x1="706.5" y1="-1526.6" x2="706.5" y2="1069.5"/>
				<line class="st10" x1="794.8" y1="-1526.6" x2="794.8" y2="1069.5"/>
				<line class="st10" x1="883.1" y1="-1526.6" x2="883.1" y2="1069.5"/>
				<line class="st10" x1="971.4" y1="-1526.6" x2="971.4" y2="1069.5"/>
				<line class="st10" x1="1059.7" y1="-1526.6" x2="1059.7" y2="1069.5"/>
				<line class="st10" x1="1148" y1="-1526.6" x2="1148" y2="1069.5"/>
				<line class="st10" x1="1236.3" y1="-1526.6" x2="1236.3" y2="1069.5"/>
				<line class="st10" x1="1324.6" y1="-1526.6" x2="1324.6" y2="1069.5"/>
				<line class="st10" x1="1412.9" y1="-1526.6" x2="1412.9" y2="1069.5"/>
				<line class="st10" x1="1501.2" y1="-1526.6" x2="1501.2" y2="1069.5"/>
				<line class="st10" x1="1589.5" y1="-1526.6" x2="1589.5" y2="1069.5"/>
				<line class="st10" x1="1677.8" y1="-1526.6" x2="1677.8" y2="1069.5"/>
				<line class="st10" x1="1766.1" y1="-1526.6" x2="1766.1" y2="1069.5"/>
				<line class="st10" x1="1854.4" y1="-1526.6" x2="1854.4" y2="1069.5"/>
				<line class="st10" x1="1942.7" y1="-1526.6" x2="1942.7" y2="1069.5"/>
				<line class="st10" x1="2031" y1="-1526.6" x2="2031" y2="1069.5"/>
				<line class="st10" x1="2119.4" y1="-1526.6" x2="2119.4" y2="1069.5"/>
				<line class="st10" x1="2207.7" y1="-1526.6" x2="2207.7" y2="1069.5"/>
				<line class="st10" x1="2296" y1="-1526.6" x2="2296" y2="1069.5"/>
				<line class="st10" x1="2384.3" y1="-1526.6" x2="2384.3" y2="1069.5"/>
				<line class="st10" x1="2472.6" y1="-1526.6" x2="2472.6" y2="1069.5"/>
				<line class="st10" x1="2560.9" y1="-1526.6" x2="2560.9" y2="1069.5"/>
				<line class="st10" x1="2649.2" y1="-1526.6" x2="2649.2" y2="1069.5"/>
				<line class="st10" x1="2737.5" y1="-1526.6" x2="2737.5" y2="1069.5"/>
				<line class="st10" x1="2825.8" y1="-1526.6" x2="2825.8" y2="1069.5"/>
				<line class="st10" x1="2914.1" y1="-1526.6" x2="2914.1" y2="1069.5"/>
				<line class="st10" x1="3002.4" y1="-1526.6" x2="3002.4" y2="1069.5"/>
				<line class="st10" x1="3090.7" y1="-1526.6" x2="3090.7" y2="1069.5"/>
				<line class="st10" x1="3179" y1="-1526.6" x2="3179" y2="1069.5"/>
				<line class="st10" x1="3267.3" y1="-1526.6" x2="3267.3" y2="1069.5"/>
			</g>
			<g>
				<line class="st10" x1="-1920" y1="1253.8" x2="537.5" y2="2551.8"/>
				<line class="st10" x1="-1875.8" y1="1183.9" x2="581.6" y2="2481.9"/>
				<line class="st10" x1="-1831.7" y1="1113.9" x2="625.8" y2="2411.9"/>
				<line class="st10" x1="-1787.5" y1="1043.9" x2="669.9" y2="2342"/>
				<line class="st10" x1="-1743.3" y1="974" x2="714.1" y2="2272"/>
				<line class="st10" x1="-1699.2" y1="904" x2="758.2" y2="2202"/>
				<line class="st10" x1="-1655" y1="834" x2="802.4" y2="2132.1"/>
				<line class="st10" x1="-1610.9" y1="764.1" x2="846.5" y2="2062.1"/>
				<line class="st10" x1="-1566.7" y1="694.1" x2="890.7" y2="1992.1"/>
				<line class="st10" x1="-1522.6" y1="624.1" x2="934.8" y2="1922.2"/>
				<line class="st10" x1="-1478.4" y1="554.2" x2="979" y2="1852.2"/>
				<line class="st10" x1="-1434.3" y1="484.2" x2="1023.1" y2="1782.2"/>
				<line class="st10" x1="-1390.1" y1="414.2" x2="1067.3" y2="1712.3"/>
				<line class="st10" x1="-1346" y1="344.3" x2="1111.4" y2="1642.3"/>
				<line class="st10" x1="-1301.8" y1="274.3" x2="1155.6" y2="1572.3"/>
				<line class="st10" x1="-1257.7" y1="204.3" x2="1199.7" y2="1502.4"/>
				<line class="st10" x1="-1213.5" y1="134.4" x2="1243.9" y2="1432.4"/>
				<line class="st10" x1="-1169.4" y1="64.4" x2="1288.1" y2="1362.4"/>
				<line class="st10" x1="-1125.2" y1="-5.6" x2="1332.2" y2="1292.5"/>
				<line class="st10" x1="-1081" y1="-75.5" x2="1376.4" y2="1222.5"/>
				<line class="st10" x1="-1036.9" y1="-145.5" x2="1420.5" y2="1152.5"/>
				<line class="st10" x1="-992.7" y1="-215.5" x2="1464.7" y2="1082.6"/>
				<line class="st10" x1="-948.6" y1="-285.4" x2="1508.8" y2="1012.6"/>
				<line class="st10" x1="-904.4" y1="-355.4" x2="1553" y2="942.6"/>
				<line class="st10" x1="-860.3" y1="-425.4" x2="1597.1" y2="872.7"/>
				<line class="st10" x1="-816.1" y1="-495.3" x2="1641.3" y2="802.7"/>
				<line class="st10" x1="-772" y1="-565.3" x2="1685.4" y2="732.7"/>
				<line class="st10" x1="-727.8" y1="-635.2" x2="1729.6" y2="662.8"/>
				<line class="st10" x1="-683.7" y1="-705.2" x2="1773.7" y2="592.8"/>
				<line class="st10" x1="-639.5" y1="-775.2" x2="1817.9" y2="522.8"/>
				<line class="st10" x1="-595.4" y1="-845.1" x2="1862" y2="452.9"/>
				<line class="st10" x1="-551.2" y1="-915.1" x2="1906.2" y2="382.9"/>
				<line class="st10" x1="-507.1" y1="-985.1" x2="1950.3" y2="312.9"/>
				<line class="st10" x1="-462.9" y1="-1055" x2="1994.5" y2="243"/>
				<line class="st10" x1="-418.8" y1="-1125" x2="2038.7" y2="173"/>
				<line class="st10" x1="-374.6" y1="-1195" x2="2082.8" y2="103"/>
				<line class="st10" x1="-330.4" y1="-1264.9" x2="2127" y2="33.1"/>
				<line class="st10" x1="-286.3" y1="-1334.9" x2="2171.1" y2="-36.9"/>
				<line class="st10" x1="-242.1" y1="-1404.9" x2="2215.3" y2="-106.9"/>
				<line class="st10" x1="-198" y1="-1474.8" x2="2259.4" y2="-176.8"/>
				<line class="st10" x1="-153.8" y1="-1544.8" x2="2303.6" y2="-246.8"/>
				<line class="st10" x1="-109.7" y1="-1614.8" x2="2347.7" y2="-316.8"/>
				<line class="st10" x1="-65.5" y1="-1684.7" x2="2391.9" y2="-386.7"/>
				<line class="st10" x1="-21.4" y1="-1754.7" x2="2436" y2="-456.7"/>
				<line class="st10" x1="22.8" y1="-1824.7" x2="2480.2" y2="-526.7"/>
				<line class="st10" x1="66.9" y1="-1894.6" x2="2524.3" y2="-596.6"/>
				<line class="st10" x1="111.1" y1="-1964.6" x2="2568.5" y2="-666.6"/>
				<line class="st10" x1="155.2" y1="-2034.6" x2="2612.6" y2="-736.5"/>
				<line class="st10" x1="199.4" y1="-2104.5" x2="2656.8" y2="-806.5"/>
				<line class="st10" x1="243.5" y1="-2174.5" x2="2701" y2="-876.5"/>
				<line class="st10" x1="287.7" y1="-2244.5" x2="2745.1" y2="-946.4"/>
				<line class="st10" x1="331.9" y1="-2314.4" x2="2789.3" y2="-1016.4"/>
				<line class="st10" x1="376" y1="-2384.4" x2="2833.4" y2="-1086.4"/>
				<line class="st10" x1="420.2" y1="-2454.4" x2="2877.6" y2="-1156.3"/>
				<line class="st10" x1="464.3" y1="-2524.3" x2="2921.7" y2="-1226.3"/>
				<line class="st10" x1="508.5" y1="-2594.3" x2="2965.9" y2="-1296.3"/>
				<line class="st10" x1="552.6" y1="-2664.3" x2="3010" y2="-1366.2"/>
				<line class="st10" x1="596.8" y1="-2734.2" x2="3054.2" y2="-1436.2"/>
				<line class="st10" x1="640.9" y1="-2804.2" x2="3098.3" y2="-1506.2"/>
				<line class="st10" x1="685.1" y1="-2874.2" x2="3142.5" y2="-1576.1"/>
				<line class="st10" x1="729.2" y1="-2944.1" x2="3186.6" y2="-1646.1"/>
				<line class="st10" x1="773.4" y1="-3014.1" x2="3230.8" y2="-1716.1"/>
			</g>
			<g>
				<line class="st10" x1="3151.4" y1="1256.4" x2="694" y2="2554.4"/>
				<line class="st10" x1="3107.2" y1="1186.4" x2="649.8" y2="2484.4"/>
				<line class="st10" x1="3063.1" y1="1116.5" x2="605.7" y2="2414.5"/>
				<line class="st10" x1="3018.9" y1="1046.5" x2="561.5" y2="2344.5"/>
				<line class="st10" x1="2974.8" y1="976.5" x2="517.4" y2="2274.5"/>
				<line class="st10" x1="2930.6" y1="906.6" x2="473.2" y2="2204.6"/>
				<line class="st10" x1="2886.5" y1="836.6" x2="429.1" y2="2134.6"/>
				<line class="st10" x1="2842.3" y1="766.6" x2="384.9" y2="2064.6"/>
				<line class="st10" x1="2798.2" y1="696.7" x2="340.8" y2="1994.7"/>
				<line class="st10" x1="2754" y1="626.7" x2="296.6" y2="1924.7"/>
				<line class="st10" x1="2709.9" y1="556.7" x2="252.5" y2="1854.7"/>
				<line class="st10" x1="2665.7" y1="486.8" x2="208.3" y2="1784.8"/>
				<line class="st10" x1="2621.6" y1="416.8" x2="164.2" y2="1714.8"/>
				<line class="st10" x1="2577.4" y1="346.8" x2="120" y2="1644.9"/>
				<line class="st10" x1="2533.3" y1="276.9" x2="75.8" y2="1574.9"/>
				<line class="st10" x1="2489.1" y1="206.9" x2="31.7" y2="1504.9"/>
				<line class="st10" x1="2444.9" y1="136.9" x2="-12.5" y2="1435"/>
				<line class="st10" x1="2400.8" y1="67" x2="-56.6" y2="1365"/>
				<line class="st10" x1="2356.6" y1="-3" x2="-100.8" y2="1295"/>
				<line class="st10" x1="2312.5" y1="-73" x2="-144.9" y2="1225.1"/>
				<line class="st10" x1="2268.3" y1="-142.9" x2="-189.1" y2="1155.1"/>
				<line class="st10" x1="2224.2" y1="-212.9" x2="-233.2" y2="1085.1"/>
				<line class="st10" x1="2180" y1="-282.9" x2="-277.4" y2="1015.2"/>
				<line class="st10" x1="2135.9" y1="-352.8" x2="-321.5" y2="945.2"/>
				<line class="st10" x1="2091.7" y1="-422.8" x2="-365.7" y2="875.2"/>
				<line class="st10" x1="2047.6" y1="-492.8" x2="-409.8" y2="805.3"/>
				<line class="st10" x1="2003.4" y1="-562.7" x2="-454" y2="735.3"/>
				<line class="st10" x1="1959.3" y1="-632.7" x2="-498.1" y2="665.3"/>
				<line class="st10" x1="1915.1" y1="-702.7" x2="-542.3" y2="595.4"/>
				<line class="st10" x1="1871" y1="-772.6" x2="-586.4" y2="525.4"/>
				<line class="st10" x1="1826.8" y1="-842.6" x2="-630.6" y2="455.4"/>
				<line class="st10" x1="1782.7" y1="-912.6" x2="-674.8" y2="385.5"/>
				<line class="st10" x1="1738.5" y1="-982.5" x2="-718.9" y2="315.5"/>
				<line class="st10" x1="1694.3" y1="-1052.5" x2="-763.1" y2="245.5"/>
				<line class="st10" x1="1650.2" y1="-1122.5" x2="-807.2" y2="175.6"/>
				<line class="st10" x1="1606" y1="-1192.4" x2="-851.4" y2="105.6"/>
				<line class="st10" x1="1561.9" y1="-1262.4" x2="-895.5" y2="35.6"/>
				<line class="st10" x1="1517.7" y1="-1332.3" x2="-939.7" y2="-34.3"/>
				<line class="st10" x1="1473.6" y1="-1402.3" x2="-983.8" y2="-104.3"/>
				<line class="st10" x1="1429.4" y1="-1472.3" x2="-1028" y2="-174.3"/>
				<line class="st10" x1="1385.3" y1="-1542.2" x2="-1072.1" y2="-244.2"/>
				<line class="st10" x1="1341.1" y1="-1612.2" x2="-1116.3" y2="-314.2"/>
				<line class="st10" x1="1297" y1="-1682.2" x2="-1160.4" y2="-384.2"/>
				<line class="st10" x1="1252.8" y1="-1752.1" x2="-1204.6" y2="-454.1"/>
				<line class="st10" x1="1208.7" y1="-1822.1" x2="-1248.7" y2="-524.1"/>
				<line class="st10" x1="1164.5" y1="-1892.1" x2="-1292.9" y2="-594.1"/>
				<line class="st10" x1="1120.4" y1="-1962" x2="-1337.1" y2="-664"/>
				<line class="st10" x1="1076.2" y1="-2032" x2="-1381.2" y2="-734"/>
				<line class="st10" x1="1032" y1="-2102" x2="-1425.4" y2="-804"/>
				<line class="st10" x1="987.9" y1="-2171.9" x2="-1469.5" y2="-873.9"/>
				<line class="st10" x1="943.7" y1="-2241.9" x2="-1513.7" y2="-943.9"/>
				<line class="st10" x1="899.6" y1="-2311.9" x2="-1557.8" y2="-1013.9"/>
				<line class="st10" x1="855.4" y1="-2381.8" x2="-1602" y2="-1083.8"/>
				<line class="st10" x1="811.3" y1="-2451.8" x2="-1646.1" y2="-1153.8"/>
				<line class="st10" x1="767.1" y1="-2521.8" x2="-1690.3" y2="-1223.7"/>
				<line class="st10" x1="723" y1="-2591.7" x2="-1734.4" y2="-1293.7"/>
				<line class="st10" x1="678.8" y1="-2661.7" x2="-1778.6" y2="-1363.7"/>
				<line class="st10" x1="634.7" y1="-2731.7" x2="-1822.7" y2="-1433.6"/>
				<line class="st10" x1="590.5" y1="-2801.6" x2="-1866.9" y2="-1503.6"/>
				<line class="st10" x1="546.4" y1="-2871.6" x2="-1911" y2="-1573.6"/>
				<line class="st10" x1="502.2" y1="-2941.6" x2="-1955.2" y2="-1643.5"/>
				<line class="st10" x1="458.1" y1="-3011.5" x2="-1999.3" y2="-1713.5"/>
			</g>
		</g>
	</g>
</g>
</svg>
