<?xml version="1.0" encoding="utf-8"?>
<!-- Generator: Adobe Illustrator 22.1.0, SVG Export Plug-In . SVG Version: 6.00 Build 0)  -->
<svg version="1.1" id="Layer_1" xmlns="http://www.w3.org/2000/svg" xmlns:xlink="http://www.w3.org/1999/xlink" x="0px" y="0px"
	 viewBox="0 0 895 649" style="enable-background:new 0 0 895 649;" xml:space="preserve">
<style type="text/css">
	.st0{clip-path:url(#SVGID_2_);}
	.st1{clip-path:url(#SVGID_4_);fill:#745D54;stroke:#FFFFFF;stroke-miterlimit:10;}
	.st2{display:none;clip-path:url(#SVGID_4_);}
	.st3{display:inline;}
	.st4{display:inline;opacity:0.41;clip-path:url(#SVGID_6_);}
	.st5{fill:#424242;}
</style>
<g>
	<defs>
		<rect id="SVGID_1_" x="0.5" y="0.5" width="895" height="649"/>
	</defs>
	<clipPath id="SVGID_2_">
		<use xlink:href="#SVGID_1_"  style="overflow:visible;"/>
	</clipPath>
	<g class="st0">
		<defs>
			<rect id="SVGID_3_" x="-222" y="-121" width="1117" height="1056"/>
		</defs>
		<clipPath id="SVGID_4_">
			<use xlink:href="#SVGID_3_"  style="overflow:visible;"/>
		</clipPath>
		<polygon class="st1" points="-959.4,-92.9 202.8,-700.3 1212.3,136.8 50.1,744.3 		"/>
		<g class="st2">
			<defs>
				<rect id="SVGID_5_" x="-502.9" y="-314.5" width="1767.1" height="1866.8"/>
			</defs>
			<clipPath id="SVGID_6_" class="st3">
				<use xlink:href="#SVGID_5_"  style="overflow:visible;"/>
			</clipPath>
			<g class="st4">
				<g>
					<line class="st5" x1="-2358.3" y1="-889.6" x2="-2358.3" y2="1706.5"/>
					<line class="st5" x1="-2270" y1="-889.6" x2="-2270" y2="1706.5"/>
					<line class="st5" x1="-2181.7" y1="-889.6" x2="-2181.7" y2="1706.5"/>
					<line class="st5" x1="-2093.4" y1="-889.6" x2="-2093.4" y2="1706.5"/>
					<line class="st5" x1="-2005.1" y1="-889.6" x2="-2005.1" y2="1706.5"/>
					<line class="st5" x1="-1916.8" y1="-889.6" x2="-1916.8" y2="1706.5"/>
					<line class="st5" x1="-1828.5" y1="-889.6" x2="-1828.5" y2="1706.5"/>
					<line class="st5" x1="-1740.2" y1="-889.6" x2="-1740.2" y2="1706.5"/>
					<line class="st5" x1="-1651.9" y1="-889.6" x2="-1651.9" y2="1706.5"/>
					<line class="st5" x1="-1563.6" y1="-889.6" x2="-1563.6" y2="1706.5"/>
					<line class="st5" x1="-1475.3" y1="-889.6" x2="-1475.3" y2="1706.5"/>
					<line class="st5" x1="-1387" y1="-889.6" x2="-1387" y2="1706.5"/>
					<line class="st5" x1="-1298.7" y1="-889.6" x2="-1298.7" y2="1706.5"/>
					<line class="st5" x1="-1210.4" y1="-889.6" x2="-1210.4" y2="1706.5"/>
					<line class="st5" x1="-1122.1" y1="-889.6" x2="-1122.1" y2="1706.5"/>
					<line class="st5" x1="-1033.7" y1="-889.6" x2="-1033.7" y2="1706.5"/>
					<line class="st5" x1="-945.4" y1="-889.6" x2="-945.4" y2="1706.5"/>
					<line class="st5" x1="-857.1" y1="-889.6" x2="-857.1" y2="1706.5"/>
					<line class="st5" x1="-768.8" y1="-889.6" x2="-768.8" y2="1706.5"/>
					<line class="st5" x1="-680.5" y1="-889.6" x2="-680.5" y2="1706.5"/>
					<line class="st5" x1="-592.2" y1="-889.6" x2="-592.2" y2="1706.5"/>
					<line class="st5" x1="-503.9" y1="-889.6" x2="-503.9" y2="1706.5"/>
					<line class="st5" x1="-415.6" y1="-889.6" x2="-415.6" y2="1706.5"/>
					<line class="st5" x1="-327.3" y1="-889.6" x2="-327.3" y2="1706.5"/>
					<line class="st5" x1="-239" y1="-889.6" x2="-239" y2="1706.5"/>
					<line class="st5" x1="-150.7" y1="-889.6" x2="-150.7" y2="1706.5"/>
					<line class="st5" x1="-62.4" y1="-889.6" x2="-62.4" y2="1706.5"/>
					<line class="st5" x1="25.9" y1="-889.6" x2="25.9" y2="1706.5"/>
					<line class="st5" x1="114.2" y1="-889.6" x2="114.2" y2="1706.5"/>
					<line class="st5" x1="202.5" y1="-889.6" x2="202.5" y2="1706.5"/>
					<line class="st5" x1="290.8" y1="-889.6" x2="290.8" y2="1706.5"/>
					<line class="st5" x1="379.2" y1="-889.6" x2="379.2" y2="1706.5"/>
					<line class="st5" x1="467.5" y1="-889.6" x2="467.5" y2="1706.5"/>
					<line class="st5" x1="555.8" y1="-889.6" x2="555.8" y2="1706.5"/>
					<line class="st5" x1="644.1" y1="-889.6" x2="644.1" y2="1706.5"/>
					<line class="st5" x1="732.4" y1="-889.6" x2="732.4" y2="1706.5"/>
					<line class="st5" x1="820.7" y1="-889.6" x2="820.7" y2="1706.5"/>
					<line class="st5" x1="909" y1="-889.6" x2="909" y2="1706.5"/>
					<line class="st5" x1="997.3" y1="-889.6" x2="997.3" y2="1706.5"/>
					<line class="st5" x1="1085.6" y1="-889.6" x2="1085.6" y2="1706.5"/>
					<line class="st5" x1="1173.9" y1="-889.6" x2="1173.9" y2="1706.5"/>
					<line class="st5" x1="1262.2" y1="-889.6" x2="1262.2" y2="1706.5"/>
					<line class="st5" x1="1350.5" y1="-889.6" x2="1350.5" y2="1706.5"/>
					<line class="st5" x1="1438.8" y1="-889.6" x2="1438.8" y2="1706.5"/>
					<line class="st5" x1="1527.1" y1="-889.6" x2="1527.1" y2="1706.5"/>
					<line class="st5" x1="1615.4" y1="-889.6" x2="1615.4" y2="1706.5"/>
					<line class="st5" x1="1703.7" y1="-889.6" x2="1703.7" y2="1706.5"/>
					<line class="st5" x1="1792" y1="-889.6" x2="1792" y2="1706.5"/>
					<line class="st5" x1="1880.4" y1="-889.6" x2="1880.4" y2="1706.5"/>
					<line class="st5" x1="1968.7" y1="-889.6" x2="1968.7" y2="1706.5"/>
					<line class="st5" x1="2057" y1="-889.6" x2="2057" y2="1706.5"/>
					<line class="st5" x1="2145.3" y1="-889.6" x2="2145.3" y2="1706.5"/>
					<line class="st5" x1="2233.6" y1="-889.6" x2="2233.6" y2="1706.5"/>
					<line class="st5" x1="2321.9" y1="-889.6" x2="2321.9" y2="1706.5"/>
					<line class="st5" x1="2410.2" y1="-889.6" x2="2410.2" y2="1706.5"/>
					<line class="st5" x1="2498.5" y1="-889.6" x2="2498.5" y2="1706.5"/>
					<line class="st5" x1="2586.8" y1="-889.6" x2="2586.8" y2="1706.5"/>
					<line class="st5" x1="2675.1" y1="-889.6" x2="2675.1" y2="1706.5"/>
					<line class="st5" x1="2763.4" y1="-889.6" x2="2763.4" y2="1706.5"/>
					<line class="st5" x1="2851.7" y1="-889.6" x2="2851.7" y2="1706.5"/>
					<line class="st5" x1="2940" y1="-889.6" x2="2940" y2="1706.5"/>
					<line class="st5" x1="3028.3" y1="-889.6" x2="3028.3" y2="1706.5"/>
				</g>
				<g>
					<line class="st5" x1="-2159" y1="1890.8" x2="298.5" y2="3188.8"/>
					<line class="st5" x1="-2114.8" y1="1820.9" x2="342.6" y2="3118.9"/>
					<line class="st5" x1="-2070.7" y1="1750.9" x2="386.8" y2="3048.9"/>
					<line class="st5" x1="-2026.5" y1="1680.9" x2="430.9" y2="2979"/>
					<line class="st5" x1="-1982.3" y1="1611" x2="475.1" y2="2909"/>
					<line class="st5" x1="-1938.2" y1="1541" x2="519.2" y2="2839"/>
					<line class="st5" x1="-1894" y1="1471" x2="563.4" y2="2769.1"/>
					<line class="st5" x1="-1849.9" y1="1401.1" x2="607.5" y2="2699.1"/>
					<line class="st5" x1="-1805.7" y1="1331.1" x2="651.7" y2="2629.1"/>
					<line class="st5" x1="-1761.6" y1="1261.1" x2="695.8" y2="2559.2"/>
					<line class="st5" x1="-1717.4" y1="1191.2" x2="740" y2="2489.2"/>
					<line class="st5" x1="-1673.3" y1="1121.2" x2="784.1" y2="2419.2"/>
					<line class="st5" x1="-1629.1" y1="1051.2" x2="828.3" y2="2349.3"/>
					<line class="st5" x1="-1585" y1="981.3" x2="872.4" y2="2279.3"/>
					<line class="st5" x1="-1540.8" y1="911.3" x2="916.6" y2="2209.3"/>
					<line class="st5" x1="-1496.7" y1="841.3" x2="960.7" y2="2139.4"/>
					<line class="st5" x1="-1452.5" y1="771.4" x2="1004.9" y2="2069.4"/>
					<line class="st5" x1="-1408.4" y1="701.4" x2="1049.1" y2="1999.4"/>
					<line class="st5" x1="-1364.2" y1="631.4" x2="1093.2" y2="1929.5"/>
					<line class="st5" x1="-1320" y1="561.5" x2="1137.4" y2="1859.5"/>
					<line class="st5" x1="-1275.9" y1="491.5" x2="1181.5" y2="1789.5"/>
					<line class="st5" x1="-1231.7" y1="421.5" x2="1225.7" y2="1719.6"/>
					<line class="st5" x1="-1187.6" y1="351.6" x2="1269.8" y2="1649.6"/>
					<line class="st5" x1="-1143.4" y1="281.6" x2="1314" y2="1579.6"/>
					<line class="st5" x1="-1099.3" y1="211.6" x2="1358.1" y2="1509.7"/>
					<line class="st5" x1="-1055.1" y1="141.7" x2="1402.3" y2="1439.7"/>
					<line class="st5" x1="-1011" y1="71.7" x2="1446.4" y2="1369.7"/>
					<line class="st5" x1="-966.8" y1="1.8" x2="1490.6" y2="1299.8"/>
					<line class="st5" x1="-922.7" y1="-68.2" x2="1534.7" y2="1229.8"/>
					<line class="st5" x1="-878.5" y1="-138.2" x2="1578.9" y2="1159.8"/>
					<line class="st5" x1="-834.4" y1="-208.1" x2="1623" y2="1089.9"/>
					<line class="st5" x1="-790.2" y1="-278.1" x2="1667.2" y2="1019.9"/>
					<line class="st5" x1="-746.1" y1="-348.1" x2="1711.3" y2="949.9"/>
					<line class="st5" x1="-701.9" y1="-418" x2="1755.5" y2="880"/>
					<line class="st5" x1="-657.8" y1="-488" x2="1799.7" y2="810"/>
					<line class="st5" x1="-613.6" y1="-558" x2="1843.8" y2="740"/>
					<line class="st5" x1="-569.4" y1="-627.9" x2="1888" y2="670.1"/>
					<line class="st5" x1="-525.3" y1="-697.9" x2="1932.1" y2="600.1"/>
					<line class="st5" x1="-481.1" y1="-767.9" x2="1976.3" y2="530.1"/>
					<line class="st5" x1="-437" y1="-837.8" x2="2020.4" y2="460.2"/>
					<line class="st5" x1="-392.8" y1="-907.8" x2="2064.6" y2="390.2"/>
					<line class="st5" x1="-348.7" y1="-977.8" x2="2108.7" y2="320.2"/>
					<line class="st5" x1="-304.5" y1="-1047.7" x2="2152.9" y2="250.3"/>
					<line class="st5" x1="-260.4" y1="-1117.7" x2="2197" y2="180.3"/>
					<line class="st5" x1="-216.2" y1="-1187.7" x2="2241.2" y2="110.3"/>
					<line class="st5" x1="-172.1" y1="-1257.6" x2="2285.3" y2="40.4"/>
					<line class="st5" x1="-127.9" y1="-1327.6" x2="2329.5" y2="-29.6"/>
					<line class="st5" x1="-83.8" y1="-1397.6" x2="2373.6" y2="-99.5"/>
					<line class="st5" x1="-39.6" y1="-1467.5" x2="2417.8" y2="-169.5"/>
					<line class="st5" x1="4.5" y1="-1537.5" x2="2462" y2="-239.5"/>
					<line class="st5" x1="48.7" y1="-1607.5" x2="2506.1" y2="-309.4"/>
					<line class="st5" x1="92.9" y1="-1677.4" x2="2550.3" y2="-379.4"/>
					<line class="st5" x1="137" y1="-1747.4" x2="2594.4" y2="-449.4"/>
					<line class="st5" x1="181.2" y1="-1817.4" x2="2638.6" y2="-519.3"/>
					<line class="st5" x1="225.3" y1="-1887.3" x2="2682.7" y2="-589.3"/>
					<line class="st5" x1="269.5" y1="-1957.3" x2="2726.9" y2="-659.3"/>
					<line class="st5" x1="313.6" y1="-2027.3" x2="2771" y2="-729.2"/>
					<line class="st5" x1="357.8" y1="-2097.2" x2="2815.2" y2="-799.2"/>
					<line class="st5" x1="401.9" y1="-2167.2" x2="2859.3" y2="-869.2"/>
					<line class="st5" x1="446.1" y1="-2237.2" x2="2903.5" y2="-939.1"/>
					<line class="st5" x1="490.2" y1="-2307.1" x2="2947.6" y2="-1009.1"/>
					<line class="st5" x1="534.4" y1="-2377.1" x2="2991.8" y2="-1079.1"/>
				</g>
				<g>
					<line class="st5" x1="2912.4" y1="1893.4" x2="455" y2="3191.4"/>
					<line class="st5" x1="2868.2" y1="1823.4" x2="410.8" y2="3121.4"/>
					<line class="st5" x1="2824.1" y1="1753.5" x2="366.7" y2="3051.5"/>
					<line class="st5" x1="2779.9" y1="1683.5" x2="322.5" y2="2981.5"/>
					<line class="st5" x1="2735.8" y1="1613.5" x2="278.4" y2="2911.5"/>
					<line class="st5" x1="2691.6" y1="1543.6" x2="234.2" y2="2841.6"/>
					<line class="st5" x1="2647.5" y1="1473.6" x2="190.1" y2="2771.6"/>
					<line class="st5" x1="2603.3" y1="1403.6" x2="145.9" y2="2701.6"/>
					<line class="st5" x1="2559.2" y1="1333.7" x2="101.8" y2="2631.7"/>
					<line class="st5" x1="2515" y1="1263.7" x2="57.6" y2="2561.7"/>
					<line class="st5" x1="2470.9" y1="1193.7" x2="13.5" y2="2491.7"/>
					<line class="st5" x1="2426.7" y1="1123.8" x2="-30.7" y2="2421.8"/>
					<line class="st5" x1="2382.6" y1="1053.8" x2="-74.8" y2="2351.8"/>
					<line class="st5" x1="2338.4" y1="983.8" x2="-119" y2="2281.9"/>
					<line class="st5" x1="2294.3" y1="913.9" x2="-163.2" y2="2211.9"/>
					<line class="st5" x1="2250.1" y1="843.9" x2="-207.3" y2="2141.9"/>
					<line class="st5" x1="2205.9" y1="773.9" x2="-251.5" y2="2072"/>
					<line class="st5" x1="2161.8" y1="704" x2="-295.6" y2="2002"/>
					<line class="st5" x1="2117.6" y1="634" x2="-339.8" y2="1932"/>
					<line class="st5" x1="2073.5" y1="564" x2="-383.9" y2="1862.1"/>
					<line class="st5" x1="2029.3" y1="494.1" x2="-428.1" y2="1792.1"/>
					<line class="st5" x1="1985.2" y1="424.1" x2="-472.2" y2="1722.1"/>
					<line class="st5" x1="1941" y1="354.1" x2="-516.4" y2="1652.2"/>
					<line class="st5" x1="1896.9" y1="284.2" x2="-560.5" y2="1582.2"/>
					<line class="st5" x1="1852.7" y1="214.2" x2="-604.7" y2="1512.2"/>
					<line class="st5" x1="1808.6" y1="144.2" x2="-648.8" y2="1442.3"/>
					<line class="st5" x1="1764.4" y1="74.3" x2="-693" y2="1372.3"/>
					<line class="st5" x1="1720.3" y1="4.3" x2="-737.1" y2="1302.3"/>
					<line class="st5" x1="1676.1" y1="-65.7" x2="-781.3" y2="1232.4"/>
					<line class="st5" x1="1632" y1="-135.6" x2="-825.4" y2="1162.4"/>
					<line class="st5" x1="1587.8" y1="-205.6" x2="-869.6" y2="1092.4"/>
					<line class="st5" x1="1543.7" y1="-275.6" x2="-913.8" y2="1022.5"/>
					<line class="st5" x1="1499.5" y1="-345.5" x2="-957.9" y2="952.5"/>
					<line class="st5" x1="1455.3" y1="-415.5" x2="-1002.1" y2="882.5"/>
					<line class="st5" x1="1411.2" y1="-485.5" x2="-1046.2" y2="812.6"/>
					<line class="st5" x1="1367" y1="-555.4" x2="-1090.4" y2="742.6"/>
					<line class="st5" x1="1322.9" y1="-625.4" x2="-1134.5" y2="672.6"/>
					<line class="st5" x1="1278.7" y1="-695.3" x2="-1178.7" y2="602.7"/>
					<line class="st5" x1="1234.6" y1="-765.3" x2="-1222.8" y2="532.7"/>
					<line class="st5" x1="1190.4" y1="-835.3" x2="-1267" y2="462.7"/>
					<line class="st5" x1="1146.3" y1="-905.2" x2="-1311.1" y2="392.8"/>
					<line class="st5" x1="1102.1" y1="-975.2" x2="-1355.3" y2="322.8"/>
					<line class="st5" x1="1058" y1="-1045.2" x2="-1399.4" y2="252.8"/>
					<line class="st5" x1="1013.8" y1="-1115.1" x2="-1443.6" y2="182.9"/>
					<line class="st5" x1="969.7" y1="-1185.1" x2="-1487.7" y2="112.9"/>
					<line class="st5" x1="925.5" y1="-1255.1" x2="-1531.9" y2="42.9"/>
					<line class="st5" x1="881.4" y1="-1325" x2="-1576.1" y2="-27"/>
					<line class="st5" x1="837.2" y1="-1395" x2="-1620.2" y2="-97"/>
					<line class="st5" x1="793" y1="-1465" x2="-1664.4" y2="-167"/>
					<line class="st5" x1="748.9" y1="-1534.9" x2="-1708.5" y2="-236.9"/>
					<line class="st5" x1="704.7" y1="-1604.9" x2="-1752.7" y2="-306.9"/>
					<line class="st5" x1="660.6" y1="-1674.9" x2="-1796.8" y2="-376.9"/>
					<line class="st5" x1="616.4" y1="-1744.8" x2="-1841" y2="-446.8"/>
					<line class="st5" x1="572.3" y1="-1814.8" x2="-1885.1" y2="-516.8"/>
					<line class="st5" x1="528.1" y1="-1884.8" x2="-1929.3" y2="-586.7"/>
					<line class="st5" x1="484" y1="-1954.7" x2="-1973.4" y2="-656.7"/>
					<line class="st5" x1="439.8" y1="-2024.7" x2="-2017.6" y2="-726.7"/>
					<line class="st5" x1="395.7" y1="-2094.7" x2="-2061.7" y2="-796.6"/>
					<line class="st5" x1="351.5" y1="-2164.6" x2="-2105.9" y2="-866.6"/>
					<line class="st5" x1="307.4" y1="-2234.6" x2="-2150" y2="-936.6"/>
					<line class="st5" x1="263.2" y1="-2304.6" x2="-2194.2" y2="-1006.5"/>
					<line class="st5" x1="219.1" y1="-2374.5" x2="-2238.3" y2="-1076.5"/>
				</g>
			</g>
		</g>
	</g>
</g>
</svg>
