<?xml version="1.0" encoding="utf-8"?>
<!-- Generator: Adobe Illustrator 22.1.0, SVG Export Plug-In . SVG Version: 6.00 Build 0)  -->
<svg version="1.1" id="Layer_1" xmlns="http://www.w3.org/2000/svg" xmlns:xlink="http://www.w3.org/1999/xlink" x="0px" y="0px"
	 viewBox="0 0 1024 768" style="enable-background:new 0 0 1024 768;" xml:space="preserve">
<style type="text/css">
	.st0{fill:#C3C3C3;}
	.st1{fill:#424242;}
</style>
<path class="st0" d="M391,583c-4,0-8-1.2-11.5-3.6l-750-525c-5.3-3.7-8.5-9.9-8.5-16.4s3.2-12.6,8.5-16.4l750-525
	c3.4-2.4,7.5-3.6,11.5-3.6s8,1.2,11.5,3.6l750,525c5.3,3.7,8.5,9.9,8.5,16.4s-3.2,12.6-8.5,16.4l-750,525C399,581.8,395,583,391,583
	z"/>
<path class="st1" d="M391,502c-4,0-8-1.2-11.5-3.6l-750-525c-5.3-3.7-8.5-9.9-8.5-16.4s3.2-12.6,8.5-16.4l750-525
	c3.4-2.4,7.5-3.6,11.5-3.6s8,1.2,11.5,3.6l750,525c5.3,3.7,8.5,9.9,8.5,16.4s-3.2,12.6-8.5,16.4l-750,525C399,500.8,395,502,391,502
	z"/>
</svg>
