<svg version="1.1" id="brown-nav" xmlns="http://www.w3.org/2000/svg" xmlns:xlink="http://www.w3.org/1999/xlink" x="0px" y="0px"
	 viewBox="0 0 157.1 285.2" style="enable-background:new 0 0 157.1 285.2;" xml:space="preserve">
<g id="Shield_Reverse">
	<g>
		<path d="M34.6,215.9c0,0,0.6-1.2,2.8-1.2c2.7,0.1,5.4,0.8,7.6,1.2c1,0.2,1.9,0.2,2.6,0.1v26.8c0,0-0.4,0.3-1.3,0.4
			c-0.5,0.1-1.3,0.1-2.2,0c-0.6-0.1-1.2-0.2-2-0.4c-5.2-1.5-7.5,0.2-7.5,0.2l2.4-2.5l-2.4,2.4C34.6,242.9,34.6,215.9,34.6,215.9z
			 M17.5,242.8V216v0.1c2.3,0.4,6.2-1.3,10.2-1.4c2.1-0.1,2.7,1.1,2.7,1.1l0,0v27l-0.5-0.2c0,0-1.9-1.3-7.1,0.1
			c-0.2,0-0.3,0.1-0.5,0.1C19.6,243.7,17.6,242.9,17.5,242.8 M0,118.7v82.4c0,27.2,6.8,46.1,21.4,59.3
			c14.5,13.2,36.1,19.8,57.2,24.8c21.7-5.1,42.6-11.5,57.2-24.8c14.6-13.3,21.3-32.1,21.3-59.3v-82.4C157.1,118.7,0,118.7,0,118.7z
			 M102.9,134h3.9v-5.7c4,1,10.5-1.2,13.4-1.2c3.2,0,4.9,1.4,4.9,1.4s1.7-1.4,4.9-1.4c2.9,0,9.4,2.2,13.4,1.2v5.7h3.9v31.1h-18.4
			v2.3h-7.6v-2.3h-18.4C102.9,165.1,102.9,134,102.9,134z M10.2,133.8h3.9v-5.6c3.9,1,10.7-1.1,13.6-1.1c3.2,0,4.8,1.4,4.8,1.4
			s1.7-1.4,4.8-1.4c2.9,0,9.3,2.1,13.3,1.2v5.6h4.2v31.2H36.3v2.3h-7.5v-2.3L10.2,165V133.8z M54.7,249.2H36.3v2.4l-7.6-0.1v-2.3
			h-17l-1.4-2.3v-28.8h3.9v-5.7c4,1,10.5-1.2,13.4-1.2c3.2,0,4.9,1.4,4.9,1.4s1.7-1.4,4.9-1.4c2.9,0,9.4,2.2,13.4,1.2v5.8l3.9-0.1
			C54.7,218.1,54.7,249.2,54.7,249.2z M145.5,249.2H129v2.3h-7.6v-2.3H103v-31.1h3.9v-5.7c4,1,10.5-1.2,13.4-1.2
			c3.2,0,4.9,1.4,4.9,1.4s1.7-1.4,4.9-1.4c2.9,0,9.4,2.2,13.4,1.2v5.7h3.9V246L145.5,249.2z M155.4,202.6H92.3v77l-13.7,3.6
			l-13.7-3.6v-77H1.8v-25.1h63.1v-57.1h27.5v57.1h63V202.6z M122.6,158.8c0,0-2.3-1.6-7.5-0.1c-4,1.1-5.5,0-5.5,0v-26.8
			c2.3,0.4,6.2-1.2,10.2-1.3c2.2-0.1,2.7,1.2,2.7,1.2v27H122.6z M126.7,158.8v-27c0,0,0.6-1.2,2.8-1.2c4,0.1,7.9,1.7,10.2,1.3v26.8
			c0,0-1.5,1.1-5.5,0C129,157.2,126.7,158.8,126.7,158.8z M30.5,158.8c0,0-2.3-1.6-7.6-0.1c-4,1.1-5.5,0-5.5,0v-26.8
			c2.3,0.4,6.3-1.2,10.3-1.3c2.2-0.1,2.8,1.2,2.8,1.2V158.8z M34.5,159v-27.2c0,0,0.6-1.2,2.7-1.2c4,0.1,8,1.5,10.3,1.1v27
			c0,0-1.7,1-5.6-0.1C36.8,157.1,34.5,159,34.5,159z M127.2,215.9c0,0,0.6-1.2,2.8-1.2c2.8,0.1,5.4,0.8,7.6,1.2
			c1,0.2,1.9,0.2,2.6,0.1v26.8c0,0-0.4,0.3-1.3,0.4c-0.5,0.1-1.3,0.1-2.2,0c-0.6-0.1-1.2-0.2-2-0.4c-5.2-1.5-7.5,0.1-7.5,0.1
			L127.2,215.9z M123.2,242.9L123.2,242.9c-0.1-0.1-2.3-1.6-7.5-0.1c-0.2,0-0.3,0.1-0.5,0.1c-2.9,0.7-4.4,0.2-4.8,0l-0.2-0.1V216
			h0.1c2.3,0.4,6.1-1.2,10.1-1.3c2.1-0.1,2.8,1.2,2.8,1.2V242.9z"/>
		<g>
			<path d="M54.4,38.5c0.3,0.5,0.7,1.2,1.3,2.2c1.5,2.5,3.9,12.1,6.9,15.3c1.6-1.1,4.5-2.5,6.1-3.1c-0.4-0.6-2.1-3.6-4-6.1
				c-3.7-4.9-6.3-7.5-6.6-7.9C57.1,38.9,55.4,38.9,54.4,38.5"/>
			<path d="M81.9,51.3c0.7-5-0.9-13.3-1.9-15.4c-1.2-0.3-2.5-0.8-3.6-1.3c-0.1,0.6-1.1,4-1.4,9c-0.2,2.7-0.1,6.8,0.4,7.7
				C77,51.1,79.6,51.1,81.9,51.3"/>
			<path d="M105.6,80.8c0-15.1-11.8-26.9-26.8-26.9C64,53.9,52,65.9,52,80.8c0,0.7,0.2,2.1,0.4,3.6c7.7-1.8,17.9-1.5,22.4,2.2
				c7.2-4.1,18-4.2,25.7,0c3.1-1.6,4.3-1.8,4.8-2C105.5,83.5,105.6,81.6,105.6,80.8 M73,71.7c-0.1,1.7-1.5,3.1-3.3,3
				c-1.7-0.1-3-1.6-2.9-3.3v-0.3c-0.3-0.4-1.7-0.9-3.7,0.4c-1,0.6-2.2,0.2-0.4-1.4c1.9-1.7,3.8-2.7,5.4-2.9h0.1
				c2.7-0.2,6.3,0.4,7.9,1c0.7,0.3,0,3.7-0.2,3.6c-0.6-0.1-1.8-0.6-2.8-0.4L73,71.7z M81.9,81.1c-0.5,1.6-6.2,2.1-7.2,0
				c-0.4-0.8-1-3-0.2-2.5c1.3,0.7,5.8,0.2,6.6,0c0.8-0.2,0.3-1.3,0.7-1.1C82.4,77.6,82.4,79.5,81.9,81.1 M95.2,72.2
				c-1.4-1.2-3.3-1.7-4-1.2v0.2c0.1,1.7-1.1,3.2-2.8,3.4c-1.7,0.2-3.2-1.1-3.4-2.9v-0.1c-1.1-0.4-2.9,0.3-3.1,0.2
				c-0.1-0.1-0.9-3.3,0.1-3.7c2.7-1.1,11.3-1.6,13.9,3.2C96.1,72,95.9,72.8,95.2,72.2"/>
			<path d="M96.8,38.2c-3.1,2.7-8,9.2-8.6,14.4c1.5,0.6,5.4,2.5,5.9,2.9c3.9-3.8,3.1-8.1,4.6-11.3c0.7-1.4,1.3-2.5,1.7-3.2
				C99.1,40.3,97.8,39.4,96.8,38.2"/>
			<path d="M115.6,48.5c-0.7,0.4-2.3,1.4-2.9,1.8c-3.7,2.8-11.8,6.6-13.6,8.7c1.5,1.3,3.7,3.7,4.7,5.7c0.9,0,3.5-2.1,8.7-8.2
				c1.7-1.9,3.4-3,6.6-4.8C117.7,50.8,116.5,49.7,115.6,48.5"/>
			<path d="M50.7,71.1c-1.7-1.7-5.2-3.2-9.7-2.9c-9.2,0.7-15.3,0.1-18.8-0.4c-6-0.9-9.7,0-12.6,0c-9.1,0,0.3,0.8,1.3,1.2
				c4.3,1.7,12.9,3.8,19.6,3.3c3.3-0.2,8.8,1.8,9.8,2.1c2.4,0.9,6.8,2.3,9.2,2.3C49.6,75.7,50.2,72.4,50.7,71.1"/>
			<path d="M58.1,59.7c-4.6-3.8-8.9-4.6-15.7-7.8c-1.5-0.7-4.1-2.5-4.3-2.6s-0.5-0.3-0.9-0.6c-0.4,1.3-1.2,3-2,4
				c1.1,1.4,8.6,10.1,18.4,12.8C54.7,63.7,56.4,61.5,58.1,59.7"/>
			<path d="M155.5,66.4c-0.5-0.1-2.2-0.3-3.3-0.3c-1.5,0-11.1,0.1-13.7,0.5c-5.4,0.8-15.8,0.4-21.5,0.2c-4.3-0.2-9.2,1.5-10.7,2.3
				c0,0,1.6,4.1,1.7,6.9c1.8,0.3,3.6-2,8.7-1.9c5.4,0.1,18.6-0.6,25.4-3.3c5-2,9.2-2.9,12.6-3.6C156,67,157.8,66.8,155.5,66.4"/>
			<path d="M27.3,29.8c-4,0.9-8.1,1.9-9.4,8.3"/>
			<path d="M16.5,32.3c-0.5-0.3-0.8-0.5-0.9-0.6c-7.7-5.1-4.1,1.5-1.2,4.4C14.4,36.1,14.6,33.8,16.5,32.3"/>
			<path d="M45.7,14.3c-1-1.3-2.4-2.9-4.4-4.6c-1.3-1.2-2.5-0.6-1.6,1.8c0.3,0.9,0.6,1.7,0.8,2.5C40.5,13.9,42.8,13.6,45.7,14.3"/>
			<path d="M80.7,6.7c-0.3-2.3-0.6-4.2-0.9-5.3c-0.9-2.8-1.9-0.6-2,0.3c-0.2,1.2-0.5,2.8-0.8,4.7C77,6.3,79.6,7.8,80.7,6.7"/>
			<path d="M113.2,16.2c0.2-0.5,0.4-1,0.6-1.4c1.6-3.5,0.8-4.3-1-2.8c-2,1.7-3.2,3-4.1,4c0,0,0.3,1.3,1.4,1.7c0.9,0.4,2.5,0,2.5,0
				S112.8,17.2,113.2,16.2"/>
			<path d="M146.1,30.2c0.6-0.8,1.5-1.7,1.9-2.2c0.5-0.6,2.1-3.3-2.3-1c-0.2,0.1-0.9,0.5-1.5,0.8C144.2,27.8,145.8,28.9,146.1,30.2"
				/>
			<path d="M35.4,39.4c0.4-0.4,1-0.3,1.6-0.1c4.5,1.5,11.1,0.5,14.1-4.4c0.4-0.7,1.3-0.9,2-0.6c3.1,1.3,9.6,1.9,17.4-6.1
				c0.6-0.6,1.5-0.5,2.2,0c6.9,5.6,14.1,5.9,21.3,1c0.5-0.3,1-0.7,1.5-0.5s0.9,0.6,1,1.2c2.3,10.8,13.5,9.8,16.9,9.3
				c0.4-0.1,0.9,0,1.2,0.3c0.4,0.3,0.6,0.7,0.6,1.1c0.4,2.5,3.2,7.4,8,9.9c4.1,2.1,8.6,2,13.4-0.5c0.5-0.2,1-0.2,1.5,0
				c6.1,3.3,11.6,3.5,15,0.5c2.4-2.1,3.4-5.4,2.5-8.4c-1.1-3.3-4.3-5.3-8.9-5.6c-0.8,0-1.4-0.6-1.5-1.4c-0.4-2.6-1.9-4.8-4.2-6.2
				c-3.6-2.2-8.8-2.5-14.1-0.7c-0.5,0.2-1,0.1-1.4-0.2c-0.4-0.3-0.7-0.7-0.8-1.2c-0.3-2-1.2-4.8-3.7-6.3c-2.7-1.6-6.7-1.6-11.6,0.1
				c-0.8,0.3-1.6-0.1-2-0.8c-3.2-6.1-7.6-10.1-12.9-11.5C89.8,7,84.5,8,80.1,10.8c-0.6,0.4-1.3,0.3-1.9-0.1
				C73.9,7.6,68.6,6.5,63.8,8c-4.7,1.4-8.3,5.1-10.1,10.4c-0.1,0.4-0.5,0.8-0.9,1s-0.9,0.2-1.3,0c-7.2-2.9-13.1-2.8-17,0.2
				c-3.4,2.6-4.4,6.8-4.3,8c0.1,0.8-0.4,1.6-1.2,1.8l-1.7,0.4c-4,0.9-8.1,1.9-9.4,8.3c-0.1,0.7-0.7,1.3-1.4,1.3
				C9.5,40.1,5,42.7,4,46.5c-0.7,2.7,0.6,5.7,3,7.4c2.5,1.7,5.4,1.5,8.2-0.5c0.4-0.3,1-0.4,1.5-0.2c4.1,1.6,10.7,1.3,14.7-2
				c2.9-2.3,4-5.8,3.4-10.3C34.8,40.4,35,39.8,35.4,39.4 M145.5,39.9c4.1-1,9.1,2.1,7.7,7.6c-0.2,1-2.6,1-2.5,0c0.4-4.7-1.9-5-5-5
				C144.5,42.6,144.6,40.1,145.5,39.9 M127.8,31.6c4-2.3,12.2-1.9,14.8,5.5c0.4,1.3-1.2,3.4-2.2,1.5c-3.1-5.7-8.1-5.7-12.2-4.1
				C127.2,34.8,126.4,32.5,127.8,31.6 M110.6,23.1c3.7-1.3,10.1-1.9,11.7,4.3c0.5,1.7-1.7,2.6-2.1,1.4c-1.7-4.5-5-4.3-8.9-3.1
				C109.6,26.3,110,23.3,110.6,23.1 M80.2,16.1c2.7-4.4,16.7-8.5,23.9,3.9c0.8,1.3-0.3,2.1-1.1,2.7c-0.6,0.4-0.9-0.5-1.3-1.1
				c-6.1-9.7-17.2-7.2-20.1-2.6C81,19.9,79.4,17.4,80.2,16.1 M57.6,16.8c2.5-3.9,10.9-10,18.4-3.3c0.8,0.7-0.2,3.5-1.1,2.8
				c-6.9-4.7-12.2-0.9-15.1,2.5C58.4,20.4,57,17.7,57.6,16.8 M17.2,44.3c-2.9,0-5.2,0.1-7.2,2.3c-2.2,2.3-1.6,3.6-2,4.1
				c-0.6,0.6-2.1-0.4-2-1.6c0.1-5.5,6.8-7.7,10.7-7.2C18.1,41.9,18.5,44.3,17.2,44.3 M28.8,35c-4.2,0.5-5.4,2.5-6.2,4.9
				c-0.3,0.9-2.7,0.3-2.3-1.5c1.1-5.2,6.7-6.5,8.7-6C29.8,32.5,29.6,34.9,28.8,35 M32.4,29.4c0.9-4.6,5.3-11.3,15.5-8.7
				c1.2,0.3,0.5,3.5-0.8,3c-7.4-2.9-11.2,2.7-12.4,7.2C34.5,31.5,32.1,31.3,32.4,29.4"/>
		</g>
		<path d="M118,103.6c-2-2.4-3.3-5.6-5.5-7c-1.1-0.6-1.8-1.9-0.4-2.7c1.5-0.4,2.8,0.9,4.6,3.3c0.5,0.6,1,1.2,1.5,1.8
			c2.5,2.9,2.9,5.9,5.3,5.9c3.1,0.2,6-0.6,8.1-1.8c6.5,2.9,18.5,1.6,21.5-0.4c5.7-3.9,2.2-12.1-3.5-15c-11.6-5.6-22-1-24.8,0.3
			c-2.6-1.8-7-2.6-12.4-2.4c-6,0.4-8.8,1.3-12.8,3.2c-7.3-4.2-17.3-4.1-24.5,0c-2.9-2.3-8.4-3.1-13.9-3c-4.6,0.2-8.9,0.9-11.4,2.6
			C46.6,86.1,36,82,23.5,87.2c-2.6-0.9-8.2-4-15.9-1.5c-9.3,3.1-8,11.5-4.9,15.5c4.1,5.5,11.9,4.6,14.4,1.8c-0.6-1.5-1.8-2.7-3-4.2
			c-1-1.3-2-2.4-2.7-2.6c-2.1,0-1.4-2.2-0.6-2.4c2.4-0.9,5.3,3.2,8.2,6.7c1.5,1.8,2.2,4.7,4.3,4.7c4.4-0.1,6.2-1.4,7.8-2.2
			c2.5,1.5,14.6,3.8,23.8,0.1c1.3,0.9,6.3,3.6,12.8,0.3c-2.5-2.7-3.8-5.4-6.2-7.2c-1.6-0.8-1.3-2.3-0.5-2.6c1.7-0.5,3.4,1.3,4.9,3.3
			c0.9,1.2,1.9,2.5,2.8,3.5c1.8,2,3.3,4.6,5,4.6c3.6,0.1,5.6-0.9,7.1-2.1c1,0.7,2.3,1.4,4.7,1.8c1.7,0.3,3.8,0.5,7.1,0.5
			c4.3-0.1,7.5-0.4,9.5-1c1.3-0.4,2.3-1.1,2.8-1.5C105,102.7,111.1,106.5,118,103.6z M33.2,100.7c-3.4-1.5-6-9.4-7.1-10.5
			c-0.4-0.4,5.9-2.7,12.5-2.2c11.3,0.8,11.5,8,14.2,11.4C53.8,100.8,43.6,103.6,33.2,100.7z M83.9,101.2c-3.4-1.5-6.1-9.4-7.1-10.4
			c-0.4-0.4,6.1-2.7,12.7-2.1c11.2,0.9,11.3,7.9,14,11.4C104.5,101.3,94.3,104.2,83.9,101.2z M152.9,99c-1,2.1-7.9,4.8-18.3,1.9
			c-3.4-1.5-6.1-9.4-7.1-10.4c-0.4-0.4,5.9-2.7,12.5-2.2C151.1,89.1,154,96.5,152.9,99z"/>
	</g>
</g>
</svg>
