<svg version="1.1" id="Layer_1" class="logo-rainbow" xmlns="http://www.w3.org/2000/svg" xmlns:xlink="http://www.w3.org/1999/xlink" x="0px" y="0px"
	 viewBox="0 0 396 180" style="enable-background:new 0 0 396 180;" xml:space="preserve">
<style type="text/css">
	.st0{clip-path:url(#SVGID_2_);fill:url(#SVGID_3_);}
</style>
<g>
	<defs>
		<path id="SVGID_1_" d="M66.1,66.7c-2,0-3.7-1.7-3.7-3.7l0-33.1c0-2,1.7-3.7,3.7-3.7l33.1,0c2,0,3.7,1.7,3.7,3.7l0,33.1
			c0,2-1.7,3.7-3.7,3.7L66.1,66.7z M144.8,66.7c2,0,3.7-1.7,3.7-3.7l0-33.1c0-2-1.7-3.7-3.7-3.7l-33.1,0c-2,0-3.7,1.7-3.7,3.7
			l0,33.1c0,2,1.7,3.7,3.7,3.7L144.8,66.7z M53.7,112.3c2,0,3.7-1.7,3.7-3.7l0-33.1c0-2-1.7-3.7-3.7-3.7l-33.1,0
			c-2,0-3.7,1.7-3.7,3.7l0,33.1c0,2,1.7,3.7,3.7,3.7L53.7,112.3z M99.3,157.9c2,0,3.7-1.7,3.7-3.7l0-33.1c0-2-1.7-3.7-3.7-3.7
			l-33.1,0c-2,0-3.7,1.7-3.7,3.7l0,33.1c0,2,1.7,3.7,3.7,3.7L99.3,157.9z M144.8,157.9c2,0,3.7-1.7,3.7-3.7l0-33.1
			c0-2-1.7-3.7-3.7-3.7l-33.1,0c-2,0-3.7,1.7-3.7,3.7l0,33.1c0,2,1.7,3.7,3.7,3.7L144.8,157.9z M195.1,61.6l0-31.3
			c0-2.8-2.3-5.1-5.1-5.1l-31.3,0c-2.8,0-5.1,2.3-5.1,5.1l0,31.3c0,2.8,2.3,5.1,5.1,5.1l31.3,0C192.8,66.8,195.1,64.5,195.1,61.6z
			 M190,28.5c1,0,1.8,0.8,1.8,1.8l0,31.3c0,1-0.8,1.8-1.8,1.8l-31.3,0c-1,0-1.8-0.8-1.8-1.8l0-31.3c0-1,0.8-1.8,1.8-1.8L190,28.5z
			 M240.6,61.6l0-31.3c0-2.8-2.3-5.1-5.1-5.1l-31.3,0c-2.8,0-5.1,2.3-5.1,5.1l0,31.3c0,2.8,2.3,5.1,5.1,5.1l31.3,0
			C238.3,66.8,240.6,64.5,240.6,61.6z M235.5,28.5c1,0,1.8,0.8,1.8,1.8l0,31.3c0,1-0.8,1.8-1.8,1.8l-31.3,0c-1,0-1.8-0.8-1.8-1.8
			l0-31.3c0-1,0.8-1.8,1.8-1.8L235.5,28.5z M149.5,107.2l0-31.3c0-2.8-2.3-5.1-5.1-5.1l-31.3,0c-2.8,0-5.1,2.3-5.1,5.1l0,31.3
			c0,2.8,2.3,5.1,5.1,5.1l31.3,0C147.2,112.3,149.5,110,149.5,107.2z M144.4,74.1c1,0,1.8,0.8,1.8,1.8l0,31.3c0,1-0.8,1.8-1.8,1.8
			l-31.3,0c-1,0-1.8-0.8-1.8-1.8l0-31.3c0-1,0.8-1.8,1.8-1.8L144.4,74.1z M195.1,152.8l0-31.3c0-2.8-2.3-5.1-5.1-5.1l-31.3,0
			c-2.8,0-5.1,2.3-5.1,5.1l0,31.3c0,2.8,2.3,5.1,5.1,5.1l31.3,0C192.8,157.9,195.1,155.6,195.1,152.8z M190,119.6
			c1,0,1.8,0.8,1.8,1.8l0,31.3c0,1-0.8,1.8-1.8,1.8l-31.3,0c-1,0-1.8-0.8-1.8-1.8l0-31.3c0-1,0.8-1.8,1.8-1.8L190,119.6z
			 M240.6,152.8l0-31.3c0-2.8-2.3-5.1-5.1-5.1l-31.3,0c-2.8,0-5.1,2.3-5.1,5.1l0,31.3c0,2.8,2.3,5.1,5.1,5.1l31.3,0
			C238.4,157.9,240.6,155.6,240.6,152.8z M235.5,119.6c1,0,1.8,0.8,1.8,1.8l0,31.3c0,1-0.8,1.8-1.8,1.8l-31.3,0
			c-1,0-1.8-0.8-1.8-1.8l0-31.3c0-1,0.8-1.8,1.8-1.8L235.5,119.6z M285.7,75.9c0-2-1.7-3.7-3.7-3.7l-33.1,0c-2,0-3.7,1.7-3.7,3.7
			l0,33.1c0,2,1.7,3.7,3.7,3.7l33.1,0c2,0,3.7-1.7,3.7-3.7L285.7,75.9z M285.7,30.3c0-2-1.7-3.7-3.7-3.7l-33.1,0
			c-2,0-3.7,1.7-3.7,3.7l0,33.1c0,2,1.7,3.7,3.7,3.7l33.1,0c2,0,3.7-1.7,3.7-3.7L285.7,30.3z M331.3,121.5c0-2-1.7-3.7-3.7-3.7
			l-33.1,0c-2,0-3.7,1.7-3.7,3.7l0,33.1c0,2,1.7,3.7,3.7,3.7l33.1,0c2,0,3.7-1.7,3.7-3.7L331.3,121.5z M376.9,75.9
			c0-2-1.7-3.7-3.7-3.7l-33.1,0c-2,0-3.7,1.7-3.7,3.7l0,33.1c0,2,1.7,3.7,3.7,3.7l33.1,0c2,0,3.7-1.7,3.7-3.7L376.9,75.9z
			 M376.9,30.3c0-2-1.7-3.7-3.7-3.7l-33.1,0c-2,0-3.7,1.7-3.7,3.7l0,33.1c0,2,1.7,3.7,3.7,3.7l33.1,0c2,0,3.7-1.7,3.7-3.7
			L376.9,30.3z"/>
	</defs>
	<clipPath id="SVGID_2_">
		<use xlink:href="#SVGID_1_"  style="overflow:visible;"/>
	</clipPath>
	
		<linearGradient id="SVGID_3_" gradientUnits="userSpaceOnUse" x1="94.5819" y1="-34.0723" x2="352.812" y2="224.1578" gradientTransform="matrix(-1 2.934817e-05 2.934817e-05 1 420.996 -6.255210e-03)">
		<stop  offset="9.867788e-02" style="stop-color:#E40303"/>
		<stop  offset="0.2357" style="stop-color:#FF8C00"/>
		<stop  offset="0.2928" style="stop-color:#FF8E00"/>
		<stop  offset="0.323" style="stop-color:#FF9600"/>
		<stop  offset="0.347" style="stop-color:#FFA400"/>
		<stop  offset="0.3677" style="stop-color:#FFB700"/>
		<stop  offset="0.386" style="stop-color:#FFD000"/>
		<stop  offset="0.4025" style="stop-color:#FFED00"/>
		<stop  offset="0.4286" style="stop-color:#FCEC00"/>
		<stop  offset="0.4499" style="stop-color:#F2E702"/>
		<stop  offset="0.4695" style="stop-color:#E0E005"/>
		<stop  offset="0.4881" style="stop-color:#C8D608"/>
		<stop  offset="0.506" style="stop-color:#A9C80D"/>
		<stop  offset="0.5234" style="stop-color:#83B812"/>
		<stop  offset="0.5403" style="stop-color:#56A519"/>
		<stop  offset="0.5565" style="stop-color:#238F21"/>
		<stop  offset="0.5662" style="stop-color:#008026"/>
		<stop  offset="0.6396" style="stop-color:#008028"/>
		<stop  offset="0.666" style="stop-color:#007E2F"/>
		<stop  offset="0.6849" style="stop-color:#007B3A"/>
		<stop  offset="0.7001" style="stop-color:#00774B"/>
		<stop  offset="0.7132" style="stop-color:#007261"/>
		<stop  offset="0.7248" style="stop-color:#006C7D"/>
		<stop  offset="0.7352" style="stop-color:#00649D"/>
		<stop  offset="0.7448" style="stop-color:#005BC3"/>
		<stop  offset="0.7534" style="stop-color:#0051EC"/>
		<stop  offset="0.7569" style="stop-color:#004DFF"/>
		<stop  offset="0.7995" style="stop-color:#1143EE"/>
		<stop  offset="0.8841" style="stop-color:#3D29C1"/>
		<stop  offset="0.9798" style="stop-color:#750787"/>
	</linearGradient>
	<polygon class="st0" points="16.3,172.2 378.3,172.2 378.3,17.8 16.3,17.9 	"/>
</g>
</svg>
