<svg version="1.1" id="Layer_1" class="docs-icon" xmlns="http://www.w3.org/2000/svg" xmlns:xlink="http://www.w3.org/1999/xlink" x="0px" y="0px"
	 viewBox="0 0 1067 769" style="enable-background:new 0 0 1067 769;" xml:space="preserve">

	<g id="GitBook" transform="translate(-186.000000, -128.000000)">
		<path id="GitBook_logo_blue" class="docs-icon" d="M666,768.7c17.2,0,31.2,14,31.2,31.2c0,17.2-14,31.2-31.2,31.2
			c-17.2,0-31.2-14-31.2-31.2C634.8,782.7,648.8,768.7,666,768.7 M1156,575.5c-17.2,0-31.2-14-31.2-31.2c0-17.2,14-31.2,31.2-31.2
			c17.2,0,31.2,14,31.2,31.2C1187.1,561.5,1173.2,575.5,1156,575.5 M1156,447.6c-53.3,0-96.6,43.3-96.6,96.6
			c0,10.4,1.7,20.7,5.1,30.7L745.3,744.9c-18.1-26.1-47.5-41.6-79.3-41.6c-36.8,0-70.4,21.1-86.6,54L292.7,606.1
			c-30.3-15.9-53-65.8-50.6-111.2c1.2-23.7,9.4-42.1,21.9-49.2c7.9-4.5,17.4-4.1,27.5,1.2l1.9,1c76,40,324.6,171,335.1,175.8
			c16.2,7.5,25.1,10.5,52.7-2.5l514-267.3c7.5-2.8,16.3-10.1,16.3-21c0-15.2-15.7-21.2-15.8-21.2c-29.2-14-74.2-35.1-118-55.6
			c-93.7-43.9-199.8-93.6-246.5-118c-40.3-21.1-72.7-3.3-78.4,0.3l-11.2,5.6C531.7,247.7,250.9,386.8,234.9,396.6
			c-28.6,17.4-46.4,52.1-48.7,95.2c-3.6,68.3,31.3,139.5,81.1,165.6l303.2,156.4c6.8,47.3,47.6,82.7,95.5,82.7
			c52.8,0,95.8-42.5,96.6-95.1l333.9-181c16.9,13.2,37.9,20.5,59.4,20.5c53.3,0,96.6-43.3,96.6-96.6S1209.2,447.6,1156,447.6"/>
	</g>
</svg>
