<svg xmlns="http://www.w3.org/2000/svg" viewBox="0 0 576 297.52">
  <g>
    <path d="M436.84,63l62.24-17.74v62.24l-62.24,17.45Z" transform="translate(1.45 -44.79)" style="fill: #ccc6b8"/>
    <path d="M498.94,107,436.7,124.77l35.77,30.83,62.24-17.74Z" transform="translate(1.45 -44.79)" style="fill: #ffc82e"/>
    <path d="M498.94,107V44.79l35.77,31.12v62.24Z" transform="translate(1.45 -44.79)" style="fill: #f3cf8d"/>
    <path d="M436.84,63v62l35.78,30.82V93.8Z" transform="translate(1.45 -44.79)" style="fill: #3c454d"/>
    <path d="M436.84,63l62.24-17.74,35.78,30.83L472.62,93.8Z" transform="translate(1.45 -44.79)" style="fill: #231f20"/>
    <path d="M472.62,156l62.24-17.74V76.06L472.62,93.8Z" transform="translate(1.45 -44.79)" style="fill: #222238"/>
    <path d="M476.4,97l62.24-17.75v62.1L476.4,159.09Z" transform="translate(1.45 -44.79)" style="fill: #ccc6b8"/>
    <path d="M538.49,141.06,476.25,158.8,512,189.63l62.23-17.74Z" transform="translate(1.45 -44.79)" style="fill: #ffc82e"/>
    <path d="M300.44,102.08l62.24-17.74v62.24l-62.24,17.74V102.08Z" transform="translate(1.45 -44.79)" style="fill: #ccc6b8"/>
    <path d="M538.49,141.06V79l35.77,30.83V172Z" transform="translate(1.45 -44.79)" style="fill: #f3cf8d"/>
    <path d="M362.54,146.15,300.3,163.89l35.77,30.83L398.31,177Z" transform="translate(1.45 -44.79)" style="fill: #ffc82e"/>
    <path d="M362.54,146.15V84.34l35.91,30.83v62.24Z" transform="translate(1.45 -44.79)" style="fill: #f3cf8d"/>
    <path d="M476.4,97v62.23l35.77,30.83V128Z" transform="translate(1.45 -44.79)" style="fill: #3c454d"/>
    <path d="M232.24,121.86l62.24-17.74v62.24L232.24,184.1Z" transform="translate(1.45 -44.79)" style="fill: #ccc6b8"/>
    <path d="M476.4,97l62.24-17.75,35.62,31L512,128Z" transform="translate(1.45 -44.79)" style="fill: #231f20"/>
    <path d="M300.44,102.08v62.24l35.78,30.83V133.5Z" transform="translate(1.45 -44.79)" style="fill: #3c454d"/>
    <path d="M294.48,166.07l-62.24,18L268,214.93l62.24-17.74Z" transform="translate(1.45 -44.79)" style="fill: #d98b8b"/>
    <path d="M512.32,190.21l62.23-17.74V110.23L512.32,128Z" transform="translate(1.45 -44.79)" style="fill: #222238"/>
    <path d="M300.44,102.08l62.24-17.74,35.77,30.83-62.23,18Z" transform="translate(1.45 -44.79)" style="fill: #231f20"/>
    <path d="M294.48,166.07V104.12L330.25,135v62.24Z" transform="translate(1.45 -44.79)" style="fill: #f3cf8d"/>
    <path d="M336.22,195.3l62.23-17.74V115.32l-62.23,18Z" transform="translate(1.45 -44.79)" style="fill: #222238"/>
    <path d="M340,136.26l62.09-18v62.24L340,198.21Z" transform="translate(1.45 -44.79)" style="fill: #ccc6b8"/>
    <path d="M401.94,180.47l-62.23,17.74L375.48,229l62.24-18Z" transform="translate(1.45 -44.79)" style="fill: #ffc82e"/>
    <path d="M164.19,141.78,226.42,124v62.24l-62.23,17.6Z" transform="translate(1.45 -44.79)" style="fill: #ccc6b8"/>
    <path d="M401.94,180.47V118.52l35.78,30.83v62.23Z" transform="translate(1.45 -44.79)" style="fill: #f3cf8d"/>
    <path d="M232.24,121.86V184.1L268,214.93V152.84Z" transform="translate(1.45 -44.79)" style="fill: #3c454d"/>
    <path d="M226,185.85l-62.24,17.74,35.77,30.83,62.24-17.75Z" transform="translate(1.45 -44.79)" style="fill: #d98b8b"/>
    <path d="M232.24,121.86l62.24-17.74L330.25,135,268,152.69Z" transform="translate(1.45 -44.79)" style="fill: #414042"/>
    <path d="M226,185.85V123.61l35.77,30.83v62.23Z" transform="translate(1.45 -44.79)" style="fill: #f3cf8d"/>
    <path d="M447.46,150.8l62.24-18V195l-62.24,17.74Z" transform="translate(1.45 -44.79)" style="fill: #ccc6b8"/>
    <path d="M268,214.93l62.24-17.74V135.24L268,153v62Z" transform="translate(1.45 -44.79)" style="fill: #222238"/>
    <path d="M509.7,195l-62.24,17.74,35.77,30.83,62.24-17.74Z" transform="translate(1.45 -44.79)" style="fill: #ffc82e"/>
    <path d="M509.7,195V132.77l35.77,30.83v62.24Z" transform="translate(1.45 -44.79)" style="fill: #f3cf8d"/>
    <path d="M340,136.26V198.5l35.77,30.83V167.52Z" transform="translate(1.45 -44.79)" style="fill: #3c454d"/>
    <path d="M95.84,161.42l61.95-18v62.24L95.55,223.36V161.42Z" transform="translate(1.45 -44.79)" style="fill: #ccc6b8"/>
    <path d="M340,136.26l62.09-18,35.77,30.82L375.62,166.8Z" transform="translate(1.45 -44.79)" style="fill: #231f20"/>
    <path d="M164.19,141.78v62.1L200,234.71V172.47Z" transform="translate(1.45 -44.79)" style="fill: #3c454d"/>
    <path d="M157.79,205.48,95.55,223.22l35.77,30.83,62.24-17.74Z" transform="translate(1.45 -44.79)" style="fill: #ffc82e"/>
    <path d="M375.91,229.33l62.24-18V149.35l-62.24,17.88v62.1Z" transform="translate(1.45 -44.79)" style="fill: #222238"/>
    <path d="M164.19,141.78,226.42,124l35.63,30.83-62.24,17.74Z" transform="translate(1.45 -44.79)" style="fill: #414042"/>
    <path d="M157.79,205.48v-62.1l35.77,30.83V236.6Z" transform="translate(1.45 -44.79)" style="fill: #f3cf8d"/>
    <path d="M199.81,234.85l62.24-17.74V154.87l-62.24,17.74Z" transform="translate(1.45 -44.79)" style="fill: #222238"/>
    <path d="M447.46,150.8V213l35.77,30.83v-62.1Z" transform="translate(1.45 -44.79)" style="fill: #3c454d"/>
    <path d="M447.46,150.8l62.24-18,35.77,30.83-62.24,17.74Z" transform="translate(1.45 -44.79)" style="fill: #231f20"/>
    <path d="M27.78,180.9l62.1-17.74v62L27.64,242.85C27.78,242.85,27.78,180.9,27.78,180.9Z" transform="translate(1.45 -44.79)" style="fill: #ccc6b8"/>
    <path d="M483.38,243.72,545.62,226V163.74l-62.24,17.74Z" transform="translate(1.45 -44.79)" style="fill: #222238"/>
    <path d="M95.84,161.42v62.23l35.77,30.83V192.24Z" transform="translate(1.45 -44.79)" style="fill: #3c454d"/>
    <path d="M89.59,225.11,27.35,242.85l35.92,30.83,62.23-17.74Z" transform="translate(1.45 -44.79)" style="fill: #ffc82e"/>
    <path d="M95.84,161.42l61.95-18,35.77,30.83L131.32,192Z" transform="translate(1.45 -44.79)" style="fill: #231f20"/>
    <path d="M89.59,225.11v-62L125.36,194v62.24Z" transform="translate(1.45 -44.79)" style="fill: #f3cf8d"/>
    <path d="M311.06,190.21l62.24-17.74v62.24l-62.24,17.74V190.21Z" transform="translate(1.45 -44.79)" style="fill: #ccc6b8"/>
    <path d="M131.61,254.34l61.95-17.74V174.36L131.32,192.1v62.24Z" transform="translate(1.45 -44.79)" style="fill: #222238"/>
    <path d="M373.3,234.27,311.06,252l35.77,31.12,62.24-17.74Z" transform="translate(1.45 -44.79)" style="fill: #d98b8b"/>
    <path d="M135.1,195.59l62.24-17.74v62.24L135.1,257.83Z" transform="translate(1.45 -44.79)" style="fill: #ccc6b8"/>
    <path d="M373.3,234.27V172.18L409.07,203V265Z" transform="translate(1.45 -44.79)" style="fill: #f3cf8d"/>
    <path d="M197.2,239.8,135,257.54l35.77,30.83L233,270.62Z" transform="translate(1.45 -44.79)" style="fill: #d98b8b"/>
    <path d="M197.2,239.8V177.56L233,208.39v62.23Z" transform="translate(1.45 -44.79)" style="fill: #f3cf8d"/>
    <path d="M27.78,180.9v62.24L63.56,274V212Z" transform="translate(1.45 -44.79)" style="fill: #3c454d"/>
    <path d="M27.78,180.9l62.1-17.74L125.65,194,63.41,211.73Z" transform="translate(1.45 -44.79)" style="fill: #231f20"/>
    <path d="M242.86,209.84,305.1,192.1v62.24l-62.24,17.74V209.84Z" transform="translate(1.45 -44.79)" style="fill: #ccc6b8"/>
    <path d="M63.41,274l62.24-17.74V194L63.41,211.73Z" transform="translate(1.45 -44.79)" style="fill: #222238"/>
    <path d="M311.06,190.21v62.24l35.77,30.83V221Z" transform="translate(1.45 -44.79)" style="fill: #3c454d"/>
    <path d="M304.66,254.05l-62.09,17.74,35.77,30.83,62.24-17.74Z" transform="translate(1.45 -44.79)" style="fill: #d98b8b"/>
    <path d="M311.06,190.21l62.24-17.74,35.77,30.83L346.83,221Z" transform="translate(1.45 -44.79)" style="fill: #414042"/>
    <path d="M304.66,254.05V191.81l35.77,30.83v62.24Z" transform="translate(1.45 -44.79)" style="fill: #f3cf8d"/>
    <path d="M135.1,195.59v62.24l35.78,30.83V226.42Z" transform="translate(1.45 -44.79)" style="fill: #3c454d"/>
    <path d="M347,283.28l62.23-17.75V203.3L347,221Z" transform="translate(1.45 -44.79)" style="fill: #222238"/>
    <path d="M135.1,195.59l62.24-17.74,35.77,30.83-62.23,17.88Z" transform="translate(1.45 -44.79)" style="fill: #414042"/>
    <path d="M171,288.37l62.24-17.75V208.39L171,226.13Z" transform="translate(1.45 -44.79)" style="fill: #222238"/>
    <path d="M174.66,229.76,236.89,212v62l-62.23,17.74Z" transform="translate(1.45 -44.79)" style="fill: #ccc6b8"/>
    <path d="M242.86,209.84v62.24l35.77,31V240.81Z" transform="translate(1.45 -44.79)" style="fill: #3c454d"/>
    <path d="M-1.45,234.85l62.24-17.74v62.24L-1.45,297.09Z" transform="translate(1.45 -44.79)" style="fill: #ccc6b8"/>
    <path d="M242.86,209.84,305.1,192.1l35.77,30.83-62.24,17.74Z" transform="translate(1.45 -44.79)" style="fill: #414042"/>
    <path d="M236.6,273.82V211.58l35.78,30.83v62.24Z" transform="translate(1.45 -44.79)" style="fill: #f3cf8d"/>
    <path d="M278.63,303.05l62.24-17.74V223.07l-62.24,17.74v62.24Z" transform="translate(1.45 -44.79)" style="fill: #222238"/>
    <path d="M60.65,278.91V217l35.77,30.82V310Z" transform="translate(1.45 -44.79)" style="fill: #f3cf8d"/>
    <path d="M106.46,249.25l62.23-17.74v62.24l-62.23,17.74V249.25Z" transform="translate(1.45 -44.79)" style="fill: #ccc6b8"/>
    <path d="M174.66,229.76V292l35.77,30.68V260.59Z" transform="translate(1.45 -44.79)" style="fill: #3c454d"/>
    <path d="M174.66,229.76,236.89,212l35.49,30.68-62.24,17.74Z" transform="translate(1.45 -44.79)" style="fill: #231f20"/>
    <path d="M168.26,293.16V231.22L204,262v62.53Z" transform="translate(1.45 -44.79)" style="fill: #f3cf8d"/>
    <path d="M-1.45,234.85v62.24l35.78,30.83V265.68Z" transform="translate(1.45 -44.79)" style="fill: #3c454d"/>
    <path d="M210.57,322.39l61.95-17.74V242.41L210.14,260.3v62.24l.43-.15Z" transform="translate(1.45 -44.79)" style="fill: #222238"/>
    <path d="M-1.45,234.85l62.24-17.74,35.49,30.83L34.33,265.68Z" transform="translate(1.45 -44.79)" style="fill: #231f20"/>
    <path d="M34.62,327.92l62.09-17.74V247.94L34.47,265.68v62.24Z" transform="translate(1.45 -44.79)" style="fill: #222238"/>
    <path d="M106.46,249.25v62.24l35.77,30.83V280.37Z" transform="translate(1.45 -44.79)" style="fill: #3c454d"/>
    <path d="M106.46,249.25l62.23-17.74,35.49,30.83-62.24,17.74Z" transform="translate(1.45 -44.79)" style="fill: #231f20"/>
    <path d="M142.23,342.32l62.24-17.75V262.34l-62.24,17.74Z" transform="translate(1.45 -44.79)" style="fill: #222238"/>
  </g>
  <text x="1.45" y="-44.79"/></svg>
