
<svg version="1.1" id="Layer_1" class="docs-icon" xmlns="http://www.w3.org/2000/svg" xmlns:xlink="http://www.w3.org/1999/xlink" x="0px" y="0px"
	 viewBox="0 0 73 75" style="enable-background:new 0 0 73 75;" xml:space="preserve">

	<path id="path9_fill_2_" d="M35.9,24.8c8,0,15.1,2.9,18.7,7.1c-1.4-3.8-4-7.1-7.3-9.4c-3.3-2.3-7.3-3.6-11.4-3.6
			c-4.1,0-8,1.2-11.4,3.6c-3.3,2.3-5.9,5.6-7.3,9.4C20.9,27.6,27.9,24.8,35.9,24.8z"/>

	<path id="path0_fill_1_" d="M16.3,41.8c0,1.6-0.1,2.1-0.4,2.4c-0.4,0.3-0.8,0.5-1.3,0.5l0.1,0.9c0.7,0,1.5-0.3,2-0.7
		c0.3-0.4,0.5-0.8,0.7-1.3c0.1-0.5,0.2-0.9,0.1-1.4v-5.9h-1.2V41.8L16.3,41.8z"/>

	<path id="path1_fill_1_" d="M25.2,41.1c0,0.7,0,1.3,0.1,1.8h-1.1l-0.1-1.1c-0.2,0.4-0.5,0.7-0.9,0.9c-0.4,0.2-0.8,0.3-1.2,0.3
		c-1,0-2.3-0.6-2.3-2.8v-3.8h1.2V40c0,1.2,0.4,2.1,1.5,2.1c0.2,0,0.4,0,0.6-0.1c0.2-0.1,0.4-0.2,0.5-0.4
		c0.2-0.2,0.3-0.3,0.4-0.5c0.1-0.2,0.1-0.4,0.1-0.6v-4h1.2L25.2,41.1L25.2,41.1z"/>

	<path id="path2_fill_1_" d="M27.4,38.5c0-0.8,0-1.5-0.1-2.1h1.1l0.1,1.1c0.2-0.4,0.6-0.7,1-1c0.4-0.2,0.9-0.3,1.3-0.3
		c1.6,0,2.8,1.3,2.8,3.3c0,2.3-1.4,3.5-3,3.5c-0.4,0-0.8-0.1-1.1-0.2c-0.4-0.2-0.7-0.4-0.9-0.8l0,0v3.6h-1.2V38.5L27.4,38.5z
		 M28.6,40.3c0,0.2,0,0.3,0.1,0.5c0.1,0.4,0.3,0.7,0.7,1c0.3,0.2,0.7,0.4,1.1,0.4c1.3,0,2-1,2-2.5c0-1.3-0.7-2.4-1.9-2.4
		c-0.5,0-1,0.3-1.3,0.6c-0.3,0.4-0.5,0.8-0.6,1.3V40.3z"/>

	<path id="path3_fill_1_" d="M35.7,36.4l1.4,3.8c0.2,0.4,0.3,0.9,0.4,1.3c0.1-0.4,0.3-0.9,0.4-1.4l1.3-3.8h1.3L38.8,41
		c-0.9,2.2-1.4,3.4-2.3,4.1c-0.4,0.4-0.9,0.6-1.5,0.8l-0.3-1c0.4-0.1,0.7-0.3,1-0.6c0.4-0.4,0.8-0.8,1-1.3
		c0-0.1,0.1-0.2,0.1-0.3c0-0.1,0-0.2-0.1-0.3l-2.4-6L35.7,36.4L35.7,36.4z"/>
	<path id="path4_fill_1_" d="M43.7,34.5v1.9h1.7v0.9h-1.7v3.5c0,0.8,0.2,1.3,0.9,1.3c0.2,0,0.5,0,0.7-0.1l0.1,0.9
		C45,43,44.7,43.1,44.3,43c-0.2,0-0.5,0-0.7-0.1c-0.2-0.1-0.4-0.2-0.6-0.4c-0.4-0.5-0.5-1.1-0.5-1.7v-3.6h-1v-0.9h1v-1.6
		L43.7,34.5z"/>

	<path id="path5_fill_1_" d="M47.6,39.9c0,0.3,0,0.6,0.1,0.9c0.1,0.3,0.3,0.5,0.5,0.8c0.2,0.2,0.5,0.4,0.8,0.5
		c0.3,0.1,0.6,0.1,0.9,0.1c0.6,0,1.2-0.1,1.8-0.3l0.2,0.9c-0.7,0.3-1.4,0.4-2.2,0.4c-0.4,0-0.9,0-1.3-0.2
		c-0.4-0.2-0.8-0.4-1.1-0.7c-0.3-0.3-0.5-0.7-0.7-1.1c-0.1-0.4-0.2-0.8-0.2-1.3c0-2,1.2-3.5,3.1-3.5c2.1,0,2.7,1.9,2.7,3.1
		c0,0.2,0,0.4,0,0.6L47.6,39.9L47.6,39.9z M51.1,39c0-0.2,0-0.5-0.1-0.7c-0.1-0.2-0.2-0.4-0.3-0.6c-0.2-0.2-0.4-0.3-0.6-0.4
		c-0.2-0.1-0.5-0.2-0.7-0.2c-0.5,0-0.9,0.3-1.3,0.6c-0.3,0.4-0.5,0.8-0.5,1.3H51.1z"/>

	<path id="path6_fill_1_" d="M54,38.4c0-0.8,0-1.4-0.1-2H55v1.3h0.1c0.1-0.4,0.3-0.7,0.7-1s0.7-0.4,1.1-0.4c0.1,0,0.2,0,0.3,0
		v1.1c-0.1,0-0.3,0-0.4,0c-0.4,0-0.8,0.2-1.1,0.5c-0.3,0.3-0.5,0.7-0.5,1.1c0,0.2-0.1,0.4-0.1,0.6v3.5H54L54,38.4L54,38.4z"/>

	<path id="path8_fill_1_" d="M35.9,54.4c-8,0-15.1-2.9-18.7-7.1c1.4,3.8,4,7.1,7.3,9.4c3.3,2.3,7.3,3.6,11.4,3.6
	c4.1,0,8-1.2,11.4-3.6c3.3-2.3,5.9-5.6,7.3-9.4C51,51.5,44,54.4,35.9,54.4z"/>

	<path id="path11_fill_2_" d="M19.1,22.8c-0.4,0-0.9-0.1-1.2-0.3c-0.4-0.2-0.7-0.6-0.8-1c-0.2-0.4-0.2-0.8-0.2-1.3
	c0.1-0.4,0.3-0.8,0.6-1.1c0.3-0.3,0.7-0.5,1.1-0.6c0.4-0.1,0.9-0.1,1.3,0.1c0.4,0.2,0.8,0.4,1,0.8c0.3,0.3,0.4,0.8,0.4,1.2
	c0,0.6-0.2,1.2-0.6,1.6C20.3,22.5,19.7,22.8,19.1,22.8z"/>

	<path id="path7_fill_1_" d="M53.5,16.5c0,0.6-0.1,1.2-0.4,1.7c-0.3,0.5-0.8,0.9-1.3,1.2c-0.5,0.3-1.1,0.4-1.7,0.3
	c-0.6-0.1-1.1-0.3-1.6-0.7c-0.4-0.4-0.8-0.9-0.9-1.5c-0.1-0.6-0.1-1.2,0.1-1.8s0.6-1.1,1.1-1.4c0.5-0.4,1.1-0.6,1.7-0.6
	c0.4,0,0.8,0,1.2,0.2c0.4,0.1,0.7,0.3,1,0.6c0.3,0.3,0.5,0.6,0.7,0.9S53.5,16.1,53.5,16.5L53.5,16.5z"/>

	<path id="path10_fill_2_" d="M24.9,62.7c0,0.8-0.1,1.5-0.5,2.2c-0.4,0.7-0.9,1.2-1.6,1.5c-0.7,0.3-1.4,0.4-2.2,0.3
	c-0.7-0.1-1.4-0.4-2-0.9s-1-1.2-1.1-1.9c-0.2-0.7-0.1-1.5,0.1-2.2c0.3-0.7,0.7-1.3,1.3-1.8c0.6-0.4,1.3-0.7,2.1-0.7
	c0.5,0,1,0,1.5,0.2c0.5,0.2,0.9,0.4,1.3,0.8s0.7,0.7,0.9,1.2C24.7,61.7,24.8,62.2,24.9,62.7L24.9,62.7z"/>

</svg>
