<svg class="docs-icon" version="1.1" id="Layer_1" xmlns="http://www.w3.org/2000/svg" xmlns:xlink="http://www.w3.org/1999/xlink" x="0px" y="0px"
	 viewBox="0 0 730 864.5" style="enable-background:new 0 0 730 864.5;" xml:space="preserve">
<g>
	<g>
		<g>
			<g>
				<g>
					<path  d="M455.9,223.6c0-7.9,6.1-14,14-14h125.7c7.9,0,14,6.1,14,14v125.7c0,7.9-6.1,14-14,14H469.9
						c-7.9,0-14-6.1-14-14V223.6z"/>
				</g>
				<g>
					<path  d="M282.7,85.3c0-7.9,6.1-14,14-14h125.7c7.9,0,14,6.1,14,14V211c0,7.9-6.1,14-14,14H296.7
						c-7.9,0-14-6.1-14-14V85.3z"/>
				</g>
				<g>
					<path  d="M109.8,223.6c0-7.9,6.1-14,14-14h125.7c7.9,0,14,6.1,14,14v125.7c0,7.9-6.1,14-14,14H123.8
						c-7.9,0-14-6.1-14-14V223.6z"/>
				</g>
			</g>
			<g>
				<g>
					<path  d="M263.4,532.5c0,7.9-6.1,14-14,14H123.7c-7.9,0-14-6.1-14-14V406.8c0-7.9,6.1-14,14-14h125.7
						c7.9,0,14,6.1,14,14V532.5z"/>
				</g>
				<g>
					<path  d="M436.3,670.8c0,7.9-6.1,14-14,14H296.5c-7.9,0-14-6.1-14-14V545.1c0-7.9,6.1-14,14-14h125.7
						c7.9,0,14,6.1,14,14L436.3,670.8L436.3,670.8z"/>
				</g>
				<g>
					<path  d="M609.5,532.5c0,7.9-6.1,14-14,14H469.7c-7.9,0-14-6.1-14-14V406.8c0-7.9,6.1-14,14-14h125.7
						c7.9,0,14,6.1,14,14V532.5z"/>
				</g>
			</g>
		</g>
	</g>
</g>
<g>
	<path  d="M178.5,829.9c-21.5,0-37.5-13.1-37.5-35.6s16-35.7,37.5-35.7s37.5,13.2,37.5,35.7S200,829.9,178.5,829.9z
		 M178.5,777.7c-9,0-14.8,6.6-14.8,16.1s5.8,16.1,14.8,16.1s14.7-6.6,14.7-16.1S187.5,777.7,178.5,777.7z"/>
	<path  d="M291,824c-5.5,4.2-12.4,5.9-20.4,5.9s-17.2-2.2-26.6-9.2l10-17c6.4,5.4,15.4,7.5,18.4,7.5s5.1-0.9,5.1-2.9
		s-2.5-2.8-5-3.6c-2.5-0.7-8-2.5-10-3.2c-2-0.8-6-2.1-9.5-5.1s-6.3-7.2-6.3-14.7s3.9-13.3,8-16.7c4.2-3.5,11.1-6,20.3-6
		s18.6,3.3,24.6,8.3l-8.6,16c-5.2-4.6-12.8-6.6-16.4-6.6s-5.6,0.7-5.6,2.8c0,2,3.2,2.7,4.8,3.2c1.6,0.5,5.8,1.7,8.2,2.5
		c2.4,0.8,8,2.8,11.5,5.8s6.5,7.7,6.5,15C300,813.2,296.5,819.7,291,824z"/>
	<path  d="M390.4,821.2c-2.5,2.5-9.5,8.7-24.5,8.7c-20.5,0-37-12.6-37-35.6s16.5-35.6,37-35.6c15.5,0,23,6.5,23,6.5
		l-6,19c0,0-7-6-15.5-6s-15.8,5-15.8,15.8c0,10.7,7.8,15.5,15.8,15.5s13.5-3.3,16.5-6.3L390.4,821.2z"/>
	<path  d="M488.2,828.7h-24.5L461,819h-19.7l-2.6,9.7h-23.5l24-69h25L488.2,828.7z M456.4,801.7l-5.1-18.5l-5.1,18.5
		H456.4z"/>
	<path  d="M580.7,828.7h-26l-11-23h-2.9v23h-22.6v-69h30c8.5,0,15,1.5,20,5s8.5,9.5,8.5,17c0,14-8.5,19-11.5,20.8
		L580.7,828.7z M551.3,778c-1-0.8-2.5-1.3-5-1.3h-5.7v12h5.7c2.5,0,4.1-0.5,5-1.2c1.1-0.8,2.5-1.8,2.5-4.8S552.3,778.7,551.3,778z"
		/>
</g>
</svg>
