<svg class="docs-icon" version="1.1" id="Layer_1" xmlns="http://www.w3.org/2000/svg" xmlns:xlink="http://www.w3.org/1999/xlink" x="0px" y="0px"
	 viewBox="0 0 730 726" style="enable-background:new 0 0 730 726;" xml:space="preserve">
<style type="text/css">
	.st0{fill:none;}
	.st1{fill:#98A4AE;}
	.st2{clip-path:url(#SVGID_2_);}
</style>
<g>
	<path class="st0" d="M364,704.5c-91.8,0-178-35.7-242.9-100.6C56.2,539,20.5,452.8,20.5,361s35.7-178,100.6-242.9
		S272.2,17.5,364,17.5s178,35.7,242.9,100.6C671.8,183,707.5,269.2,707.5,361s-35.7,178-100.6,242.9
		C542,668.8,455.8,704.5,364,704.5z"/>
	<path class="st1" d="M364,34.5c44.1,0,86.9,8.6,127.1,25.6c38.9,16.4,73.8,40,103.8,70c30,30,53.5,64.9,70,103.8
		c17,40.2,25.6,83,25.6,127.1s-8.6,86.9-25.6,127.1c-16.4,38.9-40,73.8-70,103.8c-30,30-64.9,53.5-103.8,70
		c-40.2,17-83,25.6-127.1,25.6s-86.9-8.6-127.1-25.6c-38.9-16.4-73.8-40-103.8-70c-30-30-53.5-64.9-70-103.8
		c-17-40.2-25.6-83-25.6-127.1s8.6-86.9,25.6-127.1c16.4-38.9,40-73.8,70-103.8s64.9-53.5,103.8-70C277.1,43.1,319.9,34.5,364,34.5
		 M364,0.5C164.9,0.5,3.5,161.9,3.5,361S164.9,721.5,364,721.5S724.5,560.1,724.5,361S563.1,0.5,364,0.5L364,0.5z"/>
</g>
<g>
	<defs>
		<circle id="SVGID_1_" cx="363" cy="361" r="350"/>
	</defs>
	<clipPath id="SVGID_2_">
		<use xlink:href="#SVGID_1_"  style="overflow:visible;"/>
	</clipPath>
	<g class="st2">
		<g>
			<g>
				<path class="st1" d="M238.3,311.6c0-2.3,1.8-4.1,4.1-4.1h36.8c2.3,0,4.1,1.8,4.1,4.1v36.8c0,2.3-1.8,4.1-4.1,4.1h-36.8
					c-2.3,0-4.1-1.8-4.1-4.1V311.6z"/>
			</g>
			<g>
				<path class="st1" d="M238.3,362.2c0-2.3,1.8-4.1,4.1-4.1h36.8c2.3,0,4.1,1.8,4.1,4.1v36.8c0,2.3-1.8,4.1-4.1,4.1h-36.8
					c-2.3,0-4.1-1.8-4.1-4.1V362.2z"/>
			</g>
			<g>
				<path class="st1" d="M187.6,260.9c0-2.3,1.8-4.1,4.1-4.1h36.8c2.3,0,4.1,1.8,4.1,4.1v36.8c0,2.3-1.8,4.1-4.1,4.1h-36.8
					c-2.3,0-4.1-1.8-4.1-4.1V260.9z"/>
			</g>
			<g>
				<path class="st1" d="M137,311.6c0-2.3,1.8-4.1,4.1-4.1h36.8c2.3,0,4.1,1.8,4.1,4.1v36.8c0,2.3-1.8,4.1-4.1,4.1h-36.8
					c-2.3,0-4.1-1.8-4.1-4.1V311.6z"/>
			</g>
			<g>
				<path class="st1" d="M137,362.2c0-2.3,1.8-4.1,4.1-4.1h36.8c2.3,0,4.1,1.8,4.1,4.1v36.8c0,2.3-1.8,4.1-4.1,4.1h-36.8
					c-2.3,0-4.1-1.8-4.1-4.1V362.2z"/>
			</g>
		</g>
		<g>
			<path class="st1" d="M336.7,450.9c0,2.3-1.8,4.1-4.1,4.1h-36.8c-2.3,0-4.1-1.8-4.1-4.1v-36.8c0-2.3,1.8-4.1,4.1-4.1h36.8
				c2.3,0,4.1,1.8,4.1,4.1V450.9z"/>
		</g>
		<g>
			<path class="st1" d="M336.7,400.3c0,2.3-1.8,4.1-4.1,4.1h-36.8c-2.3,0-4.1-1.8-4.1-4.1v-36.8c0-2.3,1.8-4.1,4.1-4.1h36.8
				c2.3,0,4.1,1.8,4.1,4.1V400.3z"/>
		</g>
		<g>
			<path class="st1" d="M387.4,501.6c0,2.3-1.8,4.1-4.1,4.1h-36.8c-2.3,0-4.1-1.8-4.1-4.1v-36.8c0-2.3,1.8-4.1,4.1-4.1h36.8
				c2.3,0,4.1,1.8,4.1,4.1V501.6z"/>
		</g>
		<g>
			<path class="st1" d="M438,450.9c0,2.3-1.8,4.1-4.1,4.1h-36.8c-2.3,0-4.1-1.8-4.1-4.1v-36.8c0-2.3,1.8-4.1,4.1-4.1h36.8
				c2.3,0,4.1,1.8,4.1,4.1V450.9z"/>
		</g>
		<g>
			<path class="st1" d="M438,400.3c0,2.3-1.8,4.1-4.1,4.1h-36.8c-2.3,0-4.1-1.8-4.1-4.1v-36.8c0-2.3,1.8-4.1,4.1-4.1h36.8
				c2.3,0,4.1,1.8,4.1,4.1V400.3z"/>
		</g>
		<g>
			<g>
				<path class="st1" d="M546.3,312.6c0-2.3,1.8-4.1,4.1-4.1h36.8c2.3,0,4.1,1.8,4.1,4.1v36.8c0,2.3-1.8,4.1-4.1,4.1h-36.8
					c-2.3,0-4.1-1.8-4.1-4.1V312.6z"/>
			</g>
			<g>
				<path class="st1" d="M546.3,363.2c0-2.3,1.8-4.1,4.1-4.1h36.8c2.3,0,4.1,1.8,4.1,4.1v36.8c0,2.3-1.8,4.1-4.1,4.1h-36.8
					c-2.3,0-4.1-1.8-4.1-4.1V363.2z"/>
			</g>
			<g>
				<path class="st1" d="M495.6,261.9c0-2.3,1.8-4.1,4.1-4.1h36.8c2.3,0,4.1,1.8,4.1,4.1v36.8c0,2.3-1.8,4.1-4.1,4.1h-36.8
					c-2.3,0-4.1-1.8-4.1-4.1V261.9z"/>
			</g>
			<g>
				<path class="st1" d="M445,312.6c0-2.3,1.8-4.1,4.1-4.1h36.8c2.3,0,4.1,1.8,4.1,4.1v36.8c0,2.3-1.8,4.1-4.1,4.1h-36.8
					c-2.3,0-4.1-1.8-4.1-4.1V312.6z"/>
			</g>
			<g>
				<path class="st1" d="M445,363.2c0-2.3,1.8-4.1,4.1-4.1h36.8c2.3,0,4.1,1.8,4.1,4.1v36.8c0,2.3-1.8,4.1-4.1,4.1h-36.8
					c-2.3,0-4.1-1.8-4.1-4.1V363.2z"/>
			</g>
		</g>
		<g>
			<path class="st1" d="M643.7,450.9c0,2.3-1.8,4.1-4.1,4.1h-36.8c-2.3,0-4.1-1.8-4.1-4.1v-36.8c0-2.3,1.8-4.1,4.1-4.1h36.8
				c2.3,0,4.1,1.8,4.1,4.1V450.9z"/>
		</g>
		<g>
			<path class="st1" d="M643.7,400.3c0,2.3-1.8,4.1-4.1,4.1h-36.8c-2.3,0-4.1-1.8-4.1-4.1v-36.8c0-2.3,1.8-4.1,4.1-4.1h36.8
				c2.3,0,4.1,1.8,4.1,4.1V400.3z"/>
		</g>
		<g>
			<path class="st1" d="M694.4,501.6c0,2.3-1.8,4.1-4.1,4.1h-36.8c-2.3,0-4.1-1.8-4.1-4.1v-36.8c0-2.3,1.8-4.1,4.1-4.1h36.8
				c2.3,0,4.1,1.8,4.1,4.1V501.6z"/>
		</g>
		<g>
			<path class="st1" d="M79.4,500.6c0,2.3-1.8,4.1-4.1,4.1H38.4c-2.3,0-4.1-1.8-4.1-4.1v-36.8c0-2.3,1.8-4.1,4.1-4.1h36.8
				c2.3,0,4.1,1.8,4.1,4.1V500.6z"/>
		</g>
		<g>
			<path class="st1" d="M130,449.9c0,2.3-1.8,4.1-4.1,4.1H89.1c-2.3,0-4.1-1.8-4.1-4.1v-36.8c0-2.3,1.8-4.1,4.1-4.1h36.8
				c2.3,0,4.1,1.8,4.1,4.1V449.9z"/>
		</g>
		<g>
			<path class="st1" d="M130,399.3c0,2.3-1.8,4.1-4.1,4.1H89.1c-2.3,0-4.1-1.8-4.1-4.1v-36.8c0-2.3,1.8-4.1,4.1-4.1h36.8
				c2.3,0,4.1,1.8,4.1,4.1V399.3z"/>
		</g>
	</g>
	<g class="st2">
		<g>
			<g>
				<path class="st1" d="M239.3,502.6c0-2.3,1.8-4.1,4.1-4.1h36.8c2.3,0,4.1,1.8,4.1,4.1v36.8c0,2.3-1.8,4.1-4.1,4.1h-36.8
					c-2.3,0-4.1-1.8-4.1-4.1V502.6z"/>
			</g>
			<g>
				<path class="st1" d="M239.3,553.2c0-2.3,1.8-4.1,4.1-4.1h36.8c2.3,0,4.1,1.8,4.1,4.1v36.8c0,2.3-1.8,4.1-4.1,4.1h-36.8
					c-2.3,0-4.1-1.8-4.1-4.1V553.2z"/>
			</g>
			<g>
				<path class="st1" d="M188.6,451.9c0-2.3,1.8-4.1,4.1-4.1h36.8c2.3,0,4.1,1.8,4.1,4.1v36.8c0,2.3-1.8,4.1-4.1,4.1h-36.8
					c-2.3,0-4.1-1.8-4.1-4.1V451.9z"/>
			</g>
			<g>
				<path class="st1" d="M138,502.6c0-2.3,1.8-4.1,4.1-4.1h36.8c2.3,0,4.1,1.8,4.1,4.1v36.8c0,2.3-1.8,4.1-4.1,4.1h-36.8
					c-2.3,0-4.1-1.8-4.1-4.1V502.6z"/>
			</g>
			<g>
				<path class="st1" d="M138,553.2c0-2.3,1.8-4.1,4.1-4.1h36.8c2.3,0,4.1,1.8,4.1,4.1v36.8c0,2.3-1.8,4.1-4.1,4.1h-36.8
					c-2.3,0-4.1-1.8-4.1-4.1V553.2z"/>
			</g>
		</g>
		<g>
			<path class="st1" d="M337.7,641.9c0,2.3-1.8,4.1-4.1,4.1h-36.8c-2.3,0-4.1-1.8-4.1-4.1v-36.8c0-2.3,1.8-4.1,4.1-4.1h36.8
				c2.3,0,4.1,1.8,4.1,4.1V641.9z"/>
		</g>
		<g>
			<path class="st1" d="M337.7,591.3c0,2.3-1.8,4.1-4.1,4.1h-36.8c-2.3,0-4.1-1.8-4.1-4.1v-36.8c0-2.3,1.8-4.1,4.1-4.1h36.8
				c2.3,0,4.1,1.8,4.1,4.1V591.3z"/>
		</g>
		<g>
			<path class="st1" d="M388.4,692.6c0,2.3-1.8,4.1-4.1,4.1h-36.8c-2.3,0-4.1-1.8-4.1-4.1v-36.8c0-2.3,1.8-4.1,4.1-4.1h36.8
				c2.3,0,4.1,1.8,4.1,4.1V692.6z"/>
		</g>
		<g>
			<path class="st1" d="M439,641.9c0,2.3-1.8,4.1-4.1,4.1h-36.8c-2.3,0-4.1-1.8-4.1-4.1v-36.8c0-2.3,1.8-4.1,4.1-4.1h36.8
				c2.3,0,4.1,1.8,4.1,4.1V641.9z"/>
		</g>
		<g>
			<path class="st1" d="M439,591.3c0,2.3-1.8,4.1-4.1,4.1h-36.8c-2.3,0-4.1-1.8-4.1-4.1v-36.8c0-2.3,1.8-4.1,4.1-4.1h36.8
				c2.3,0,4.1,1.8,4.1,4.1V591.3z"/>
		</g>
		<g>
			<g>
				<path class="st1" d="M547.3,503.6c0-2.3,1.8-4.1,4.1-4.1h36.8c2.3,0,4.1,1.8,4.1,4.1v36.8c0,2.3-1.8,4.1-4.1,4.1h-36.8
					c-2.3,0-4.1-1.8-4.1-4.1V503.6z"/>
			</g>
			<g>
				<path class="st1" d="M547.3,554.2c0-2.3,1.8-4.1,4.1-4.1h36.8c2.3,0,4.1,1.8,4.1,4.1v36.8c0,2.3-1.8,4.1-4.1,4.1h-36.8
					c-2.3,0-4.1-1.8-4.1-4.1V554.2z"/>
			</g>
			<g>
				<path class="st1" d="M496.6,452.9c0-2.3,1.8-4.1,4.1-4.1h36.8c2.3,0,4.1,1.8,4.1,4.1v36.8c0,2.3-1.8,4.1-4.1,4.1h-36.8
					c-2.3,0-4.1-1.8-4.1-4.1V452.9z"/>
			</g>
			<g>
				<path class="st1" d="M446,503.6c0-2.3,1.8-4.1,4.1-4.1h36.8c2.3,0,4.1,1.8,4.1,4.1v36.8c0,2.3-1.8,4.1-4.1,4.1h-36.8
					c-2.3,0-4.1-1.8-4.1-4.1V503.6z"/>
			</g>
			<g>
				<path class="st1" d="M446,554.2c0-2.3,1.8-4.1,4.1-4.1h36.8c2.3,0,4.1,1.8,4.1,4.1v36.8c0,2.3-1.8,4.1-4.1,4.1h-36.8
					c-2.3,0-4.1-1.8-4.1-4.1V554.2z"/>
			</g>
		</g>
		<g>
			<path class="st1" d="M644.7,591.3c0,2.3-1.8,4.1-4.1,4.1h-36.8c-2.3,0-4.1-1.8-4.1-4.1v-36.8c0-2.3,1.8-4.1,4.1-4.1h36.8
				c2.3,0,4.1,1.8,4.1,4.1V591.3z"/>
		</g>
		<g>
			<path class="st1" d="M131,590.3c0,2.3-1.8,4.1-4.1,4.1H90.1c-2.3,0-4.1-1.8-4.1-4.1v-36.8c0-2.3,1.8-4.1,4.1-4.1h36.8
				c2.3,0,4.1,1.8,4.1,4.1V590.3z"/>
		</g>
	</g>
</g>
<g>
	<path class="st1" d="M179.8,219.9c-21.5,0-37.5-13.1-37.5-35.6c0-22.5,16-35.7,37.5-35.7s37.5,13.2,37.5,35.7
		C217.3,206.8,201.3,219.9,179.8,219.9z M179.8,167.7c-9,0-14.8,6.6-14.8,16.1c0,9.5,5.8,16.1,14.8,16.1s14.7-6.6,14.7-16.1
		C194.5,174.3,188.8,167.7,179.8,167.7z"/>
	<path class="st1" d="M292.2,214c-5.5,4.2-12.4,5.9-20.4,5.9c-8,0-17.2-2.2-26.6-9.2l10-17c6.4,5.4,15.4,7.5,18.4,7.5
		s5.1-0.9,5.1-2.9c0-2-2.5-2.8-5-3.6c-2.5-0.7-8-2.5-10-3.2c-2-0.8-6-2.1-9.5-5.1c-3.5-3-6.3-7.2-6.3-14.7s3.9-13.3,8-16.7
		c4.2-3.5,11.1-6,20.3-6c9.2,0,18.6,3.3,24.6,8.3l-8.6,16c-5.2-4.6-12.8-6.6-16.4-6.6c-3.6,0-5.6,0.7-5.6,2.8c0,2,3.2,2.7,4.8,3.2
		c1.6,0.5,5.8,1.7,8.2,2.5c2.4,0.8,8,2.8,11.5,5.8c3.5,3,6.5,7.7,6.5,15C301.2,203.2,297.7,209.7,292.2,214z"/>
	<path class="st1" d="M391.6,211.2c-2.5,2.5-9.5,8.7-24.5,8.7c-20.5,0-37-12.6-37-35.6c0-23,16.5-35.6,37-35.6c15.5,0,23,6.5,23,6.5
		l-6,19c0,0-7-6-15.5-6c-8.5,0-15.8,5-15.8,15.8c0,10.7,7.8,15.5,15.8,15.5c8,0,13.5-3.3,16.5-6.3L391.6,211.2z"/>
	<path class="st1" d="M489.5,218.7H465l-2.7-9.7h-19.7l-2.6,9.7h-23.5l24-69h25L489.5,218.7z M457.6,191.7l-5.1-18.5l-5.1,18.5
		H457.6z"/>
	<path class="st1" d="M581.9,218.7h-26l-11-23H542v23h-22.6v-69h30c8.5,0,15,1.5,20,5c5,3.5,8.5,9.5,8.5,17c0,14-8.5,19-11.5,20.8
		L581.9,218.7z M552.6,168c-1-0.8-2.5-1.3-5-1.3h-5.7v12h5.7c2.5,0,4.1-0.5,5-1.2c1.1-0.8,2.5-1.8,2.5-4.8
		C555.1,169.7,553.6,168.7,552.6,168z"/>
</g>
</svg>
