<?xml version="1.0" encoding="utf-8"?>
<!-- Generator: Adobe Illustrator 22.1.0, SVG Export Plug-In . SVG Version: 6.00 Build 0)  -->
<svg version="1.1" id="Layer_1" xmlns="http://www.w3.org/2000/svg" xmlns:xlink="http://www.w3.org/1999/xlink" x="0px" y="0px"
	 viewBox="0 0 730 864.5" style="enable-background:new 0 0 730 864.5;" xml:space="preserve">
<style type="text/css">
	.st0{font-family:'Gibson-Bold';}
	.st1{font-size:72px;}
	.st2{letter-spacing:14;}
</style>
<g>
	<g>
		<g>
			<path d="M262.6,388.2c-5.1,0-9.1-4-9.1-9.2l0.3-81.9c0-5.1,4-9.1,9.2-9.1l81.9,0.3c5.1,0,9.1,4,9.1,9.2l-0.3,81.9
				c0,5.1-4,9.1-9.2,9.1L262.6,388.2z"/>
		</g>
		<g>
			<path d="M262.6,500.7c-5.1,0-9.1-4-9.1-9.2l0.3-81.9c0-5.1,4-9.1,9.2-9.1l81.9,0.3c5.1,0,9.1,4,9.1,9.2l-0.3,81.9
				c0,5.1-4,9.1-9.2,9.1L262.6,500.7z"/>
		</g>
		<g>
			<path d="M374.1,388.2c-5.1,0-9.1-4-9.1-9.2l0.3-81.9c0-5.1,4-9.1,9.2-9.1l81.9,0.3c5.1,0,9.1,4,9.1,9.2l-0.3,81.9
				c0,5.1-4,9.1-9.2,9.1L374.1,388.2z"/>
		</g>
		<g>
			<path d="M262.6,706c-5.1,0-9.1-4-9.1-9.2l0.3-81.9c0-5.1,4-9.1,9.2-9.1l81.9,0.3c5.1,0,9.1,4,9.1,9.2l-0.3,81.9
				c0,5.1-4,9.1-9.2,9.1L262.6,706z"/>
		</g>
	</g>
	<g>
		<g>
			<path d="M456.3,606.2c5.1,0,9.1,4,9.1,9.2l-0.3,81.9c0,5.1-4,9.1-9.2,9.1l-81.9-0.3c-5.1,0-9.1-4-9.1-9.2l0.3-81.9
				c0-5.1,4-9.1,9.2-9.1L456.3,606.2z"/>
		</g>
		<g>
			<path d="M456.3,493.8c5.1,0,9.1,4,9.1,9.2l-0.3,82c0,5.1-4,9.1-9.2,9.1l-81.9-0.3c-5.1,0-9.1-4-9.1-9.2l0.3-81.9
				c0-5.1,4-9.1,9.2-9.1L456.3,493.8L456.3,493.8z"/>
		</g>
	</g>
</g>
<text transform="matrix(1 0 0 1 93 799)" class="st0 st1 st2">Stronghold</text>
</svg>
